<svg xmlns="http://www.w3.org/2000/svg" xmlns:xlink="http://www.w3.org/1999/xlink" width="0" height="0" style="position:absolute">
	
		<symbol id="icon-advantage1" viewBox="0 0 96 96">
			<g clip-path="url(#a)"><path d="M94.5 93h-93a1.5 1.5 0 0 0 0 3h93a1.5 1.5 0 0 0 0-3zM37.5 87h-21a1.5 1.5 0 0 0 0 3h21a1.5 1.5 0 0 0 0-3zM7.5 90a1.5 1.5 0 1 0 0-3 1.5 1.5 0 0 0 0 3zM46.5 81h-21a1.5 1.5 0 0 0 0 3h21a1.5 1.5 0 0 0 0-3zM16.5 84a1.5 1.5 0 1 0 0-3 1.5 1.5 0 0 0 0 3zM62.76 3C61.92 15.84 60 57.72 72 70.62a12 12 0 0 0 8.76 4.11c1.07.18 2.154.27 3.24.27h2.61A6.3 6.3 0 0 1 93 79.77 5.999 5.999 0 0 1 87 87H72c-10.38 0-15.54-7.71-21.51-16.65-5.22-7.86-12.45-9.69-19.44-11.49-2.01-.51-4.08-1.05-6-1.71C15.69 54 15 51.54 15 48c0-2.7 1.89-6 4.53-10.41a131.781 131.781 0 0 0 6.93-13.02A78.45 78.45 0 0 0 32.7 3h30.06zM66 0H30a72.418 72.418 0 0 1-6.27 23.34C18 36 12 42 12 48s3 9 12 12 18 3 24 12 12 18 24 18h15a9 9 0 0 0 8.82-10.8 9.27 9.27 0 0 0-9.21-7.2H84a16.405 16.405 0 0 1-3-.27C60 71.73 66 0 66 0z"></path><path d="M33 45a3 3 0 0 1 0-6 1.5 1.5 0 1 0 0-3 6 6 0 1 0 0 12 1.5 1.5 0 1 0 0-3z"></path></g><defs><clipPath id="a"><path d="M0 0h96v96H0z"></path></clipPath></defs>
		</symbol>
	
		<symbol id="icon-advantage2" viewBox="0 0 96 96">
			<g clip-path="url(#a)"><path d="M48 4a44 44 0 1 1 0 88 44 44 0 0 1 0-88zm0-4a48 48 0 1 0 0 96 48 48 0 0 0 0-96z"></path><path d="M48 84a2 2 0 1 0 0 4 2 2 0 0 0 0-4zM11.48 35.52a1.96 1.96 0 0 0-1.92 1.44 40 40 0 0 0 27.4 49.48c.185.036.375.036.56 0A1.96 1.96 0 0 0 39.44 85a2.002 2.002 0 0 0-1.36-2.48A36 36 0 0 1 13.4 38.08 2.04 2.04 0 0 0 12 35.6h-.56l.04-.08zM64.96 62.16L52 48.96a3.726 3.726 0 0 0 0-.96 4.001 4.001 0 0 0-2-3.4V34a2 2 0 0 0-4 0v10.6a4 4 0 0 0 2 7.4c.328-.024.65-.091.96-.2l13.2 13.16a1.98 1.98 0 0 0 2.8-2.8z"></path></g><defs><clipPath id="a"><path d="M0 0h96v96H0z"></path></clipPath></defs>
		</symbol>
	
		<symbol id="icon-advantage3" viewBox="0 0 96 96">
			<g clip-path="url(#a)"><path d="M60 33a15 15 0 0 1 15 15v39a6 6 0 0 1-6 6H27a6 6 0 0 1-6-6V48a15 15 0 0 1 15-15h24zm0-3H36a18 18 0 0 0-18 18v39a9 9 0 0 0 9 9h42a9 9 0 0 0 9-9V48a18 18 0 0 0-18-18z"></path><path d="M33 49.5a1.5 1.5 0 0 0-3 0v45a1.5 1.5 0 0 0 3 0v-45zM66 58.5a1.5 1.5 0 0 0-3 0v36a1.5 1.5 0 0 0 3 0v-36zM64.5 48a1.5 1.5 0 1 0 0 3 1.5 1.5 0 0 0 0-3z"></path><path d="M9 94.5a7.5 7.5 0 0 1 0-15h78a7.5 7.5 0 0 1 0 15H9z"></path><path d="M87 81a6 6 0 1 1 0 12H9a6 6 0 1 1 0-12h78zm0-3H9a9 9 0 1 0 0 18h78a9 9 0 0 0 0-18z"></path><path fill-rule="evenodd" clip-rule="evenodd" d="M53.813 78.012L54 79.5l.187 1.488-.022.003-.084.012a21.1 21.1 0 0 0-1.53.288c-.982.223-2.161.566-3.13 1.05-1.04.52-1.473 1.02-1.572 1.368-.06.209-.133.885 1.212 2.23 1.655 1.655 2.478 3.416 1.975 5.176-.463 1.62-1.904 2.621-3.115 3.227-1.281.64-2.727 1.047-3.807 1.293a24.037 24.037 0 0 1-1.767.331l-.113.016-.033.005h-.01l-.003.001s-.002 0-.188-1.488a322.551 322.551 0 0 0-.187-1.488l.022-.003.084-.012a21.207 21.207 0 0 0 1.53-.288c.982-.223 2.16-.566 3.13-1.05 1.04-.52 1.473-1.02 1.572-1.368.06-.209.133-.885-1.212-2.23-1.655-1.655-2.478-3.416-1.975-5.176.463-1.62 1.904-2.621 3.115-3.227 1.28-.64 2.727-1.047 3.807-1.293a24.144 24.144 0 0 1 1.767-.331l.113-.016.033-.005h.01l.004-.001z"></path><path d="M48 3.36A8.64 8.64 0 0 1 56.64 12v6a8.64 8.64 0 1 1-17.28 0v-6A8.64 8.64 0 0 1 48 3.36zM48 0a12 12 0 0 0-12 12v6a12 12 0 0 0 24 0v-6A12 12 0 0 0 48 0z"></path></g><defs><clipPath id="a"><path d="M0 0h96v96H0z"></path></clipPath></defs>
		</symbol>
	
		<symbol id="icon-advantage4" viewBox="0 0 96 51">
			<g clip-path="url(#a)"><path d="M87 16.5H9a9 9 0 1 0 0 18h78a9 9 0 0 0 0-18zm0 15H76.5V27a1.5 1.5 0 1 0-3 0v4.5h-9V27a1.5 1.5 0 1 0-3 0v4.5h-9V27a1.5 1.5 0 1 0-3 0v4.5h-9V27a1.5 1.5 0 1 0-3 0v4.5h-9V27a1.5 1.5 0 1 0-3 0v4.5h-9V27a1.5 1.5 0 1 0-3 0v4.5H9a6 6 0 1 1 0-12h10.5V24a1.53 1.53 0 0 0 1.5 1.5 1.5 1.5 0 0 0 1.5-1.5v-4.5h9V24a1.5 1.5 0 1 0 3 0v-4.5h9V24a1.5 1.5 0 1 0 3 0v-4.5h9V24a1.5 1.5 0 1 0 3 0v-4.5h9V24a1.5 1.5 0 1 0 3 0v-4.5h9V24a1.5 1.5 0 1 0 3 0v-4.5H87a6 6 0 1 1 0 12zM86.76 44.16l-3-4.5a1.5 1.5 0 0 0-2.73.84v3H15v-3a1.5 1.5 0 0 0-2.73-.84l-3 4.5a1.56 1.56 0 0 0 0 1.68l3 4.47A1.5 1.5 0 0 0 15 49.5v-3h66v3a1.5 1.5 0 0 0 2.73.81l3-4.47a1.56 1.56 0 0 0 .03-1.68zM86.76 5.16l-3-4.5A1.5 1.5 0 0 0 81 1.5v3H15v-3a1.5 1.5 0 0 0-2.73-.84l-3 4.5a1.56 1.56 0 0 0 0 1.68l3 4.47A1.5 1.5 0 0 0 15 10.5v-3h66v3a1.5 1.5 0 0 0 2.73.81l3-4.47a1.56 1.56 0 0 0 .03-1.68z"></path></g><defs><clipPath id="a"><path d="M0 0h96v51H0z"></path></clipPath></defs>
		</symbol>
	
		<symbol id="icon-advantage5" viewBox="0 0 72 96">
			<g clip-path="url(#a)"><path d="M39 81a3 3 0 1 0-6 0v12a3 3 0 1 0 6 0V81z"></path><path d="M37.5 69h-3v12h3V69z"></path><path d="M36 3a33 33 0 1 1 0 66 33 33 0 0 1 0-66zm0-3a36 36 0 1 0 0 72 36 36 0 0 0 0-72z"></path><path d="M8.61 26.64a1.47 1.47 0 0 0-1.44 1.08 30 30 0 0 0 20.55 37.11c.139.027.281.027.42 0a1.515 1.515 0 1 0 .42-3 27 27 0 0 1-18.51-33.27A1.501 1.501 0 0 0 9 26.7h-.42l.03-.06zM36 63a1.5 1.5 0 1 0 0 3 1.5 1.5 0 0 0 0-3z"></path><path d="M58.26 33.21a31.23 31.23 0 0 0-17.16-8.76h-.69L38.7 24h-5.4l-1.71.21h-.69a31.23 31.23 0 0 0-17.16 8.76 1.5 1.5 0 0 0 0 2.13 1.5 1.5 0 0 0 2.1 0 27.544 27.544 0 0 1 2.46-2.16 18 18 0 0 0 35.4 0c.862.67 1.684 1.392 2.46 2.16a1.41 1.41 0 0 0 1.05.42 1.38 1.38 0 0 0 1.05-.42 1.5 1.5 0 0 0 0-1.89zM51 31.53a15 15 0 0 1-29.82 0 26.58 26.58 0 0 1 10.74-4.2h.45c2.467-.36 4.973-.36 7.44 0h.45A26.58 26.58 0 0 1 51 31.53z"></path><path d="M36 39a6 6 0 1 0 0-12 6 6 0 0 0 0 12z"></path></g><defs><clipPath id="a"><path d="M0 0h72v96H0z"></path></clipPath></defs>
		</symbol>
	
		<symbol id="icon-angle-left-solid" viewBox="0 0 16 32">
			<path d="M1.981 14.938l8.5-8.5a1.494 1.494 0 0 1 2.119 0l1.412 1.412a1.494 1.494 0 0 1 0 2.119L7.994 16l6.025 6.025a1.494 1.494 0 0 1 0 2.119l-1.413 1.419a1.494 1.494 0 0 1-2.118 0l-8.5-8.5a1.496 1.496 0 0 1-.007-2.125z"></path>
		</symbol>
	
		<symbol id="icon-angle-right-solid" viewBox="0 0 16 32">
			<path d="M14.019 17.063l-8.5 8.5a1.494 1.494 0 0 1-2.119 0L1.988 24.15a1.494 1.494 0 0 1 0-2.119l6.024-6.025-6.025-6.025a1.494 1.494 0 0 1 0-2.118l1.407-1.425a1.494 1.494 0 0 1 2.119 0l8.5 8.5c.593.587.593 1.537.006 2.125z"></path>
		</symbol>
	
		<symbol id="icon-check-solid" viewBox="0 0 512 512">
			<path d="M173.898 439.404l-166.4-166.4c-9.997-9.997-9.997-26.206 0-36.204l36.203-36.204c9.997-9.998 26.207-9.998 36.204 0L192 312.69 432.095 72.596c9.997-9.997 26.207-9.997 36.204 0l36.203 36.204c9.997 9.997 9.997 26.206 0 36.204l-294.4 294.401c-9.998 9.997-26.207 9.997-36.204-.001z"></path>
		</symbol>
	
		<symbol id="icon-envelope-regular" viewBox="0 0 512 512">
			<path d="M464 64H48C21.49 64 0 85.49 0 112v288c0 26.51 21.49 48 48 48h416c26.51 0 48-21.49 48-48V112c0-26.51-21.49-48-48-48zm0 48v40.805c-22.422 18.259-58.168 46.651-134.587 106.49-16.841 13.247-50.201 45.072-73.413 44.701-23.208.375-56.579-31.459-73.413-44.701C106.18 199.465 70.425 171.067 48 152.805V112h416zM48 400V214.398c22.914 18.251 55.409 43.862 104.938 82.646 21.857 17.205 60.134 55.186 103.062 54.955 42.717.231 80.509-37.199 103.053-54.947 49.528-38.783 82.032-64.401 104.947-82.653V400H48z"></path>
		</symbol>
	
		<symbol id="icon-free1" viewBox="0 0 84 96">
			<g clip-path="url(#a)"><path d="M69 51a6 6 0 0 1 6 6v30a6 6 0 0 1-6 6H15a6 6 0 0 1-6-6V57a6 6 0 0 1 6-6h54zm0-3H15a9 9 0 0 0-9 9v30a9 9 0 0 0 9 9h54a9 9 0 0 0 9-9V57a9 9 0 0 0-9-9z"></path><path d="M9.42 64.5a7.8 7.8 0 0 1-7.08-4.17 7.14 7.14 0 0 1 .48-7.47 8.01 8.01 0 0 1 6.6-3.36h65.16a8.01 8.01 0 0 1 6.6 3.36 7.14 7.14 0 0 1 .48 7.47 7.8 7.8 0 0 1-7.08 4.17H9.42z"></path><path d="M74.58 51a6.54 6.54 0 0 1 5.37 2.73 5.55 5.55 0 0 1 .39 6A6.39 6.39 0 0 1 74.58 63H9.42a6.39 6.39 0 0 1-5.76-3.36 5.55 5.55 0 0 1 .39-6A6.54 6.54 0 0 1 9.42 51h65.16zm0-3H9.42a9.48 9.48 0 0 0-7.83 4.02A9 9 0 0 0 9.42 66h65.16a9 9 0 0 0 7.83-13.98A9.48 9.48 0 0 0 74.58 48zM42 87H19.5a4.5 4.5 0 0 1-4.5-4.5V72a1.5 1.5 0 1 0-3 0v10.5a7.5 7.5 0 0 0 7.5 7.5H42a1.5 1.5 0 1 0 0-3zM51 90a1.5 1.5 0 1 0 0-3 1.5 1.5 0 0 0 0 3zM40.14 38.76a7.44 7.44 0 0 1-6.27-3.39 7.71 7.71 0 0 1 1.23-9.69l8.49-8.49a6 6 0 0 0 1.77-4.23V3a1.5 1.5 0 0 1 1.5-1.5h12a1.5 1.5 0 0 1 1.5 1.5v15.3a7.47 7.47 0 0 1-2.16 5.52L45.48 36.57a7.47 7.47 0 0 1-5.31 2.19h-.03z"></path><path d="M58.86 3v15.33A6 6 0 0 1 57 22.77L44.25 35.49a6 6 0 0 1-4.23 1.77 6 6 0 0 1-5.04-2.73 6.3 6.3 0 0 1 1.08-7.8l8.49-8.49a7.439 7.439 0 0 0 2.19-5.28V3h12.12zm-.12-3h-12a3 3 0 0 0-3 3v9.96a4.56 4.56 0 0 1-1.32 3.18l-8.37 8.46a9.3 9.3 0 0 0-1.44 11.61 9 9 0 0 0 13.89 1.41L59.22 24.9a9 9 0 0 0 2.61-6.66V3a3 3 0 0 0-3-3h-.09z"></path><path d="M40.14 38.76a7.5 7.5 0 0 1-5.31-12.81l1.53-1.53a13.26 13.26 0 0 1 10.62 10.62l-1.53 1.53a7.47 7.47 0 0 1-5.31 2.19z"></path><path d="M36.84 26.07a11.82 11.82 0 0 1 5.43 3 11.998 11.998 0 0 1 3 5.43l-.96.93a6 6 0 0 1-4.23 1.77 6 6 0 0 1-6-6A6 6 0 0 1 36 27l.96-.93h-.12zM36 22.83l-2.07 2.07a9 9 0 1 0 12.72 12.72l2.07-2.07A14.7 14.7 0 0 0 36 22.83zM61.86 6h-18v3h18V6z"></path><path d="M31.14 38.76a7.44 7.44 0 0 1-6.27-3.39 7.71 7.71 0 0 1 1.23-9.69l8.49-8.49a6 6 0 0 0 1.77-4.23V3a1.5 1.5 0 0 1 1.5-1.5h12a1.5 1.5 0 0 1 1.5 1.5v15.3a7.35 7.35 0 0 1-2.16 5.52L36.48 36.57a7.47 7.47 0 0 1-5.31 2.19h-.03z"></path><path d="M49.86 3v15.33A6 6 0 0 1 48 22.77L35.25 35.49a6 6 0 0 1-4.23 1.77 6 6 0 0 1-5.04-2.73 6.3 6.3 0 0 1 1.08-7.8l8.49-8.49a7.439 7.439 0 0 0 2.19-5.28V3h12.12zm-.12-3h-12a3 3 0 0 0-3 3v9.96a4.56 4.56 0 0 1-1.32 3.18l-8.37 8.46a9.3 9.3 0 0 0-1.44 11.61 9 9 0 0 0 13.89 1.41L50.22 24.9a9 9 0 0 0 2.61-6.66V3a3 3 0 0 0-3-3h-.09z"></path><path d="M31.14 38.76a7.5 7.5 0 0 1-5.31-12.81l1.53-1.53a13.26 13.26 0 0 1 10.62 10.62l-1.53 1.53a7.47 7.47 0 0 1-5.31 2.19z"></path><path d="M27.84 26.07a11.82 11.82 0 0 1 5.43 3 11.998 11.998 0 0 1 3 5.43l-.96.93a6 6 0 0 1-4.23 1.77 6 6 0 0 1-6-6A6 6 0 0 1 27 27l.96-.93h-.12zM27 22.83l-2.07 2.07a9 9 0 1 0 12.72 12.72l2.07-2.07A14.7 14.7 0 0 0 27 22.83zM52.86 6h-18v3h18V6z"></path></g><defs><clipPath id="a"><path d="M0 0h84v96H0z"></path></clipPath></defs>
		</symbol>
	
		<symbol id="icon-free2" viewBox="0 0 84 96">
			<g clip-path="url(#a)"><path d="M69 51a6 6 0 0 1 6 6v30a6 6 0 0 1-6 6H15a6 6 0 0 1-6-6V57a6 6 0 0 1 6-6h54zm0-3H15a9 9 0 0 0-9 9v30a9 9 0 0 0 9 9h54a9 9 0 0 0 9-9V57a9 9 0 0 0-9-9z"></path><path d="M9.42 64.5a7.89 7.89 0 0 1-7.08-4.17 7.14 7.14 0 0 1 .48-7.47 8.01 8.01 0 0 1 6.6-3.36h65.16a8.01 8.01 0 0 1 6.6 3.36 7.14 7.14 0 0 1 .48 7.47 7.89 7.89 0 0 1-7.08 4.17H9.42z"></path><path d="M74.58 51a6.54 6.54 0 0 1 5.37 2.73 5.55 5.55 0 0 1 .39 6A6.39 6.39 0 0 1 74.58 63H9.42a6.39 6.39 0 0 1-5.76-3.36 5.55 5.55 0 0 1 .39-6A6.54 6.54 0 0 1 9.42 51h65.16zm0-3H9.42a9.48 9.48 0 0 0-7.83 4.02A9 9 0 0 0 9.42 66h65.16a9 9 0 0 0 7.83-13.98A9.48 9.48 0 0 0 74.58 48zM19.5 87a4.5 4.5 0 0 1-4.5-4.5V72h-3v10.5a7.5 7.5 0 0 0 7.5 7.5H42v-3H19.5z"></path><path d="M42 90a1.5 1.5 0 1 0 0-3 1.5 1.5 0 0 0 0 3zM13.5 73.5a1.5 1.5 0 1 0 0-3 1.5 1.5 0 0 0 0 3zM51 90a1.5 1.5 0 1 0 0-3 1.5 1.5 0 0 0 0 3zM62.37 18.51L60.72 12A3 3 0 0 0 63 9V6a3 3 0 0 0-3-3H45.66A9 9 0 0 0 39 0H27a9 9 0 0 0-9 9v12a9 9 0 0 0 9 9h33a6 6 0 0 0 2.37-11.49zM48 12h9.66l1.5 6H48v-6zm0-6h12v3H48V6zm-3 21H27a6 6 0 0 1-6-6V9a6 6 0 0 1 6-6h12a6 6 0 0 1 6 6v18zm15 .18H48V21h12.96a3.15 3.15 0 0 1-.96 6.18z"></path><path d="M25.5 21a1.5 1.5 0 1 0 0-3 1.5 1.5 0 0 0 0 3zM33 6h-4.5a4.5 4.5 0 0 0-4.5 4.5V15a1.5 1.5 0 1 0 3 0v-4.5A1.53 1.53 0 0 1 28.5 9H33a1.5 1.5 0 0 0 0-3zM57 34.5a4.5 4.5 0 1 0 0-9 4.5 4.5 0 0 0 0 9z"></path><path d="M57 27a3 3 0 1 1 0 5.999A3 3 0 0 1 57 27zm0-3a6 6 0 1 0 0 12 6 6 0 0 0 0-12z"></path><path d="M57 31.5a1.5 1.5 0 1 0 0-3 1.5 1.5 0 0 0 0 3zM30 34.5a4.5 4.5 0 1 0 0-9 4.5 4.5 0 0 0 0 9z"></path><path d="M30 27a3 3 0 1 1 0 5.999A3 3 0 0 1 30 27zm0-3a6 6 0 1 0 0 12 6 6 0 0 0 0-12z"></path><path d="M30 31.5a1.5 1.5 0 1 0 0-3 1.5 1.5 0 0 0 0 3z"></path></g><defs><clipPath id="a"><path d="M0 0h84v96H0z"></path></clipPath></defs>
		</symbol>
	
		<symbol id="icon-free3" viewBox="0 0 84 96">
			<g clip-path="url(#a)"><path d="M69 51a6 6 0 0 1 6 6v30a6 6 0 0 1-6 6H15a6 6 0 0 1-6-6V57a6 6 0 0 1 6-6h54zm0-3H15a9 9 0 0 0-9 9v30a9 9 0 0 0 9 9h54a9 9 0 0 0 9-9V57a9 9 0 0 0-9-9z"></path><path d="M9.42 64.5a7.8 7.8 0 0 1-7.08-4.17 7.14 7.14 0 0 1 .48-7.47 8.01 8.01 0 0 1 6.6-3.36h65.16a8.01 8.01 0 0 1 6.6 3.36 7.14 7.14 0 0 1 .48 7.47 7.8 7.8 0 0 1-7.08 4.17H9.42z"></path><path d="M74.58 51a6.54 6.54 0 0 1 5.37 2.73 5.55 5.55 0 0 1 .39 6A6.39 6.39 0 0 1 74.58 63H9.42a6.39 6.39 0 0 1-5.76-3.36 5.55 5.55 0 0 1 .39-6A6.54 6.54 0 0 1 9.42 51h65.16zm0-3H9.42a9.48 9.48 0 0 0-7.83 4.02A9 9 0 0 0 9.42 66h65.16a9 9 0 0 0 7.83-13.98A9.48 9.48 0 0 0 74.58 48zM19.5 87a4.5 4.5 0 0 1-4.5-4.5V72h-3v10.5a7.5 7.5 0 0 0 7.5 7.5H42v-3H19.5z"></path><path d="M42 90a1.5 1.5 0 1 0 0-3 1.5 1.5 0 0 0 0 3zM13.5 73.5a1.5 1.5 0 1 0 0-3 1.5 1.5 0 0 0 0 3zM51 90a1.5 1.5 0 1 0 0-3 1.5 1.5 0 0 0 0 3zM57 0H27a9 9 0 0 0-9 9v18a9 9 0 0 0 9 9h9v6h-6v3h24v-3h-6v-6h9a9 9 0 0 0 9-9V9a9 9 0 0 0-9-9zM45 42h-6v-6h6v6zm18-15a6 6 0 0 1-6 6H27a6 6 0 0 1-6-6v-3h42v3zm-42-6V9a6 6 0 0 1 6-6h30a6 6 0 0 1 6 6v12H21z"></path><path d="M42 27a1.5 1.5 0 1 0 0 3 1.5 1.5 0 0 0 0-3zM40.5 9h-3l-6 6h3l6-6zM49.5 6h-3l-12 12h3l12-12zM52.5 9h-3l-6 6h3l6-6z"></path></g><defs><clipPath id="a"><path d="M0 0h84v96H0z"></path></clipPath></defs>
		</symbol>
	
		<symbol id="icon-phone-solid" viewBox="0 0 512 512">
			<path d="M493.4 24.6l-104-24c-11.3-2.6-22.9 3.3-27.5 13.9l-48 112c-4.2 9.8-1.4 21.3 6.9 28l60.6 49.6c-36 76.7-98.9 140.5-177.2 177.2l-49.6-60.6c-6.8-8.3-18.2-11.1-28-6.9l-112 48C3.9 366.5-2 378.1.6 389.4l24 104C27.1 504.2 36.7 512 48 512c256.1 0 464-207.5 464-464 0-11.2-7.7-20.9-18.6-23.4z"></path>
		</symbol>
	
		<symbol id="icon-reason1" viewBox="0 0 64 64">
			<g clip-path="url(#a)"><path d="M46 52a4 4 0 1 1 0 8H10a4 4 0 1 1 0-8h36zm0-2H10a6 6 0 1 0 0 12h36a6 6 0 1 0 0-12z"></path><path d="M46 42a4 4 0 1 1 0 8H10a4 4 0 1 1 0-8h36zm0-2H10a6 6 0 1 0 0 12h36a6 6 0 1 0 0-12z"></path><path d="M46 32a4 4 0 1 1 0 8H10a4 4 0 1 1 0-8h36zm0-2H10a6 6 0 1 0 0 12h36a6 6 0 1 0 0-12z"></path><path d="M46 22a4 4 0 1 1 0 8H10a4 4 0 1 1 0-8h36zm0-2H10a6 6 0 1 0 0 12h36a6 6 0 1 0 0-12z"></path><path d="M58 12a4 4 0 1 1 0 8H22a4 4 0 1 1 0-8h36zm0-2H22a6 6 0 1 0 0 12h36a6 6 0 1 0 0-12z"></path><path d="M42 2a4 4 0 1 1 0 8H6a4 4 0 0 1 0-8h36zm0-2H6a6 6 0 0 0 0 12h36a6 6 0 1 0 0-12zM40 63c12.703 0 23-10.297 23-23S52.703 17 40 17 17 27.297 17 40s10.297 23 23 23z"></path><path d="M40 18a22 22 0 1 1 0 44 22 22 0 0 1 0-44zm0-2a24 24 0 1 0 0 48.001A24 24 0 0 0 40 16z"></path><path d="M21.74 33.76a.98.98 0 0 0-.96.72 20 20 0 0 0 13.7 24.72.72.72 0 0 0 .28 0 .98.98 0 0 0 .96-.72 1 1 0 0 0-.68-1.24A18 18 0 0 1 22.7 34.98a1.02 1.02 0 0 0-.7-1.18h-.28l.02-.04zM40 58a1 1 0 1 0 0 2 1 1 0 0 0 0-2zM39.56 45.72a4.34 4.34 0 0 0 2.58-.58 1.862 1.862 0 0 0 .76-1.5 2 2 0 0 0-.34-1.16 2.88 2.88 0 0 0-.86-.84 6.559 6.559 0 0 0-1.24-.64L39 40.44c-.48-.18-.96-.36-1.42-.58a5.022 5.022 0 0 1-1.26-.8 3.28 3.28 0 0 1-.9-1.12 3.34 3.34 0 0 1-.36-1.62 4 4 0 0 1 1.02-2.8 5.02 5.02 0 0 1 2.98-1.38v-2.76h2V32c.674.027 1.344.121 2 .28.6.14 1.08.28 1.44.4l-.46 1.88c-.47-.183-.951-.336-1.44-.46a9.32 9.32 0 0 0-2.2-.1 3.72 3.72 0 0 0-2.22.56 1.78 1.78 0 0 0-.78 1.56c-.008.32.068.638.22.92.17.275.395.513.66.7.322.212.664.392 1.02.54l1.32.5c.62.24 1.2.48 1.76.74a6.4 6.4 0 0 1 1.48.92 4.5 4.5 0 0 1 1.02 1.28c.27.56.4 1.178.38 1.8a3.8 3.8 0 0 1-1.02 2.76 5.32 5.32 0 0 1-3.2 1.3v3.1h-2V47.6a10.74 10.74 0 0 1-2.74-.38 10.306 10.306 0 0 1-1.58-.6l.6-1.8c.558.247 1.133.455 1.72.62a9.802 9.802 0 0 0 2.52.28z"></path></g><defs><clipPath id="a"><path d="M0 0h64v64H0z"></path></clipPath></defs>
		</symbol>
	
		<symbol id="icon-reason2" viewBox="0 0 64 64">
			<g clip-path="url(#a)"><path d="M26.56 63a10.96 10.96 0 0 1-8.76-4.32A11.3 11.3 0 0 1 19.1 44l19.84-20a6.96 6.96 0 0 0 2-4.94V6A5 5 0 0 1 46 1h12a5 5 0 0 1 5 5v20a.819.819 0 0 0 0 .22 11 11 0 0 1-3.18 8.12L34.34 59.8a10.98 10.98 0 0 1-7.78 3.2z"></path><path d="M58 0H46a6 6 0 0 0-6 6v13.12a6 6 0 0 1-1.76 4.24L19.46 42.14 18.4 43.2l-.4.32a11.998 11.998 0 0 0-3.4 9.64v.1c.058.587.158 1.168.3 1.74 0 .28.16.54.24.82.12.38.26.755.42 1.12.173.377.367.744.58 1.1.18.3.34.58.54.86l.22.38c.326.411.673.805 1.04 1.18l.1.1c.515.478 1.063.92 1.64 1.32L20 62a11.52 11.52 0 0 0 1.84.96l.36.16c.647.252 1.317.44 2 .56h.34c.66.123 1.329.19 2 .2a12 12 0 0 0 8.48-3.5l1.4-1.4 24-24A12 12 0 0 0 64 26.26V6a6 6 0 0 0-6-6zM33.64 59.08A10 10 0 0 1 18.6 58a10.3 10.3 0 0 1 1.2-13.44l.42-.42a18 18 0 0 1 14.16 14.14l-.74.8zM62 26a1.31 1.31 0 0 0 0 .28v.14a9.86 9.86 0 0 1-2.9 7.3L36 56.76a19.84 19.84 0 0 0-5.16-8.98 19.56 19.56 0 0 0-9-5.16L39.7 24.78a8 8 0 0 0 2.3-5.66V14h20v12zm0-14H42v-2h20v2zM42 8V6a4 4 0 0 1 4-4h12a4 4 0 0 1 4 4v2H42z"></path><path d="M12 63a10.96 10.96 0 0 1-8.76-4.32A11.26 11.26 0 0 1 4.48 44l19.84-20a7.04 7.04 0 0 0 2-4.94V6a5 5 0 0 1 5.06-5h12a5 5 0 0 1 5 5v20.22a10.84 10.84 0 0 1-3.18 8.12L19.72 59.8A10.98 10.98 0 0 1 12 63z"></path><path d="M43.38 0h-12a6 6 0 0 0-6 6v13.12a6 6 0 0 1-1.76 4.24L4.84 42.14 3.76 43.2l-.32.32A12 12 0 0 0 0 53.16v.1A10 10 0 0 0 .32 55c0 .28.14.54.22.82.126.381.273.755.44 1.12.187.369.4.723.64 1.06.16.3.34.58.52.86a4 4 0 0 1 .24.38c.32.416.668.81 1.04 1.18l.12.1c.512.473 1.053.914 1.62 1.32l.24.16a11.34 11.34 0 0 0 1.82.96l.38.16c.647.252 1.317.44 2 .56h.32c.683.165 1.379.272 2.08.32a12 12 0 0 0 8.48-3.5l1.4-1.4 24-24a12 12 0 0 0 3.46-8.78 1.02 1.02 0 0 0 0-.26V6a6 6 0 0 0-5.96-6zM19 59.08A10 10 0 0 1 4 58a10.28 10.28 0 0 1 1.22-13.44l.42-.42a18 18 0 0 1 14.14 14.14l-.78.8zM47.38 26V26.42a9.84 9.84 0 0 1-2.88 7.3L21.32 56.76A19.76 19.76 0 0 0 7.18 42.62l17.86-17.84a8 8 0 0 0 2.34-5.66V14h20v12zm0-13.9h-20V10h20v2.1zm-20-4V6a4 4 0 0 1 4-4h12a4 4 0 0 1 4 4v2l-20 .1z"></path></g><defs><clipPath id="a"><path d="M0 0h64v64H0z"></path></clipPath></defs>
		</symbol>
	
		<symbol id="icon-reason3" viewBox="0 0 64 64">
			<g clip-path="url(#a)"><path d="M58 28.56a6 6 0 0 0-4.26 1.74l-8.6 8.6a5.735 5.735 0 0 0-.78-.4h-.2a5.997 5.997 0 0 0-.8-.24h-.32A6.134 6.134 0 0 0 42 38H23.18A13.88 13.88 0 0 0 16 36a13.618 13.618 0 0 0-4.16.66c.104.439.157.888.16 1.34v.72a11.878 11.878 0 0 1 4-.72 12 12 0 0 1 6.16 1.72l.46.28H42a4.16 4.16 0 0 1 1 .14h.2c.28.09.547.21.8.36a4 4 0 0 1-2 7.5H30a1 1 0 1 0 0 2h12a6 6 0 0 0 4.64-9.76l8.52-8.52a4.002 4.002 0 0 1 6.543 1.304c.2.487.3 1.01.297 1.536a4 4 0 0 1-1.16 2.82L46.58 51.64l-5.18 5.18A4 4 0 0 1 38.58 58H10v2h28.58a6 6 0 0 0 4.24-1.76L48 53.06 62.26 38.8A6 6 0 0 0 58 28.56z"></path><path d="M24 48a1 1 0 1 0 0 2 1 1 0 0 0 0-2zM6 34a4 4 0 0 1 4 4v20a4 4 0 1 1-8 0V38a4 4 0 0 1 4-4zm0-2a6 6 0 0 0-6 6v20a6 6 0 1 0 12 0V38a6 6 0 0 0-6-6zM32 2a14 14 0 1 1 0 28 14 14 0 0 1 0-28zm0-2a16 16 0 1 0 0 32 16 16 0 0 0 0-32z"></path><path d="M29.24 25.62a10 10 0 0 1-6.86-12.38A1 1 0 0 0 21.7 12a1.02 1.02 0 0 0-1.24.7 12 12 0 0 0 8.24 14.84 1 1 0 0 0 1.22-.7.96.96 0 0 0-.68-1.22zM32 28a1 1 0 1 0 0-2 1 1 0 0 0 0 2zM31.7 19.82a2.92 2.92 0 0 0 1.74-.4 1.24 1.24 0 0 0 .48-1 1.3 1.3 0 0 0-.2-.76 2.22 2.22 0 0 0-.58-.56 5.472 5.472 0 0 0-.84-.44l-.96-.36-.96-.3a3.996 3.996 0 0 1-.84-.52 2.798 2.798 0 0 1-.6-.76 2.16 2.16 0 0 1-.22-1.08 2.579 2.579 0 0 1 .68-1.86 3.18 3.18 0 0 1 2-.92V8.92h1.34v1.8c.437.02.871.073 1.3.16.325.075.645.169.96.28l-.3 1.24-.96-.28a5.72 5.72 0 0 0-1.48-.12 2.56 2.56 0 0 0-1.48.36 1.241 1.241 0 0 0-.52 1.04c-.005.224.05.445.16.64.11.18.26.33.44.44.208.152.437.273.68.36l.86.34c.42.16.82.32 1.2.5.35.166.68.375.98.62.28.24.51.532.68.86.179.374.268.785.26 1.2a2.481 2.481 0 0 1-.7 1.82 3.52 3.52 0 0 1-2.12.88v2h-1.34v-2a7.298 7.298 0 0 1-1.82-.24 5.262 5.262 0 0 1-1.06-.42l.4-1.2c.372.177.76.317 1.16.42.54.149 1.1.216 1.66.2z"></path></g><defs><clipPath id="a"><path d="M0 0h64v64H0z"></path></clipPath></defs>
		</symbol>
	
		<symbol id="icon-reason4" viewBox="0 0 56 64">
			<g clip-path="url(#a)"><path d="M46 34a4 4 0 0 1 4 4v20a4 4 0 0 1-4 4H10a4 4 0 0 1-4-4V38a4 4 0 0 1 4-4h36zm0-2H10a6 6 0 0 0-6 6v20a6 6 0 0 0 6 6h36a6 6 0 0 0 6-6V38a6 6 0 0 0-6-6z"></path><path d="M6.28 43a5.2 5.2 0 0 1-4.72-2.78 4.76 4.76 0 0 1 .32-4.98A5.34 5.34 0 0 1 6.28 33h43.44a5.34 5.34 0 0 1 4.4 2.24 4.76 4.76 0 0 1 .32 4.98A5.201 5.201 0 0 1 49.72 43H6.28z"></path><path d="M49.72 34a4.36 4.36 0 0 1 3.58 1.82 3.7 3.7 0 0 1 .26 4A4.26 4.26 0 0 1 49.72 42H6.28a4.26 4.26 0 0 1-3.84-2.24 3.7 3.7 0 0 1 .26-4A4.36 4.36 0 0 1 6.28 34h43.44zm0-2H6.28a6.32 6.32 0 0 0-5.22 2.68A6 6 0 0 0 6.28 44h43.44a6 6 0 0 0 5.22-9.32A6.32 6.32 0 0 0 49.72 32zM28 58H13a3 3 0 0 1-3-3v-7a1 1 0 1 0-2 0v7a5 5 0 0 0 5 5h15a1 1 0 0 0 0-2zM34 60a1 1 0 1 0 0-2 1 1 0 0 0 0 2zM26.76 25.84a4.96 4.96 0 0 1-4.18-2.26 5.14 5.14 0 0 1 .82-6.46l5.66-5.66a4 4 0 0 0 1.18-2.82V2a1 1 0 0 1 1-1h8a1 1 0 0 1 1 1v10.2a4.978 4.978 0 0 1-1.44 3.68l-8.48 8.5a4.98 4.98 0 0 1-3.54 1.46h-.02z"></path><path d="M39.24 2v10.22A4 4 0 0 1 38 15.18l-8.5 8.48a4 4 0 0 1-2.82 1.18 4 4 0 0 1-3.36-1.82 4.2 4.2 0 0 1 .72-5.2l5.66-5.66a4.961 4.961 0 0 0 1.46-3.52V2h8.08zm-.08-2h-8a2 2 0 0 0-2 2v6.64a3.04 3.04 0 0 1-.88 2.12L22.7 16.4a6.2 6.2 0 0 0-.96 7.74 5.998 5.998 0 0 0 9.26.94l8.48-8.48a6 6 0 0 0 1.74-4.44V2a2 2 0 0 0-2-2h-.06z"></path><path d="M26.76 25.84a5 5 0 0 1-3.54-8.54l1.02-1.02a8.84 8.84 0 0 1 7.08 7.08l-1.02 1.02a4.98 4.98 0 0 1-3.54 1.46z"></path><path d="M24.56 17.38a7.88 7.88 0 0 1 3.62 2 7.999 7.999 0 0 1 2 3.62l-.64.62a4 4 0 0 1-2.82 1.18 4 4 0 0 1-4-4A4.002 4.002 0 0 1 24 18l.64-.62h-.08zM24 15.22l-1.38 1.38a6 6 0 1 0 8.48 8.48l1.38-1.38A9.8 9.8 0 0 0 24 15.22zM41.24 4h-12v2h12V4z"></path><path d="M20.76 25.84a4.96 4.96 0 0 1-4.18-2.26 5.14 5.14 0 0 1 .82-6.46l5.66-5.66a4 4 0 0 0 1.18-2.82V2a1 1 0 0 1 1-1h8a1 1 0 0 1 1 1v10.2a4.9 4.9 0 0 1-1.44 3.68l-8.48 8.5a4.98 4.98 0 0 1-3.54 1.46h-.02z"></path><path d="M33.24 2v10.22A4 4 0 0 1 32 15.18l-8.5 8.48a4 4 0 0 1-2.82 1.18 4 4 0 0 1-3.36-1.82 4.2 4.2 0 0 1 .72-5.2l5.66-5.66a4.961 4.961 0 0 0 1.46-3.52V2h8.08zm-.08-2h-8a2 2 0 0 0-2 2v6.64a3.04 3.04 0 0 1-.88 2.12L16.7 16.4a6.2 6.2 0 0 0-.96 7.74 5.998 5.998 0 0 0 9.26.94l8.48-8.48a6 6 0 0 0 1.74-4.44V2a2 2 0 0 0-2-2h-.06z"></path><path d="M20.76 25.84a5 5 0 0 1-3.54-8.54l1.02-1.02a8.84 8.84 0 0 1 7.08 7.08l-1.02 1.02a4.98 4.98 0 0 1-3.54 1.46z"></path><path d="M18.56 17.38a7.88 7.88 0 0 1 3.62 2 7.999 7.999 0 0 1 2 3.62l-.64.62a4 4 0 0 1-2.82 1.18 4 4 0 0 1-4-4A4.002 4.002 0 0 1 18 18l.64-.62h-.08zM18 15.22l-1.38 1.38a6 6 0 1 0 8.48 8.48l1.38-1.38A9.8 9.8 0 0 0 18 15.22zM35.24 4h-12v2h12V4z"></path></g><defs><clipPath id="a"><path d="M0 0h56v64H0z"></path></clipPath></defs>
		</symbol>
	
		<symbol id="icon-reason5" viewBox="0 0 56 64">
			<g clip-path="url(#a)"><path d="M46 34a4 4 0 0 1 4 4v20a4 4 0 0 1-4 4H10a4 4 0 0 1-4-4V38a4 4 0 0 1 4-4h36zm0-2H10a6 6 0 0 0-6 6v20a6 6 0 0 0 6 6h36a6 6 0 0 0 6-6V38a6 6 0 0 0-6-6z"></path><path d="M6.28 43a5.26 5.26 0 0 1-4.72-2.78 4.76 4.76 0 0 1 .32-4.98A5.34 5.34 0 0 1 6.28 33h43.44a5.339 5.339 0 0 1 4.4 2.24 4.76 4.76 0 0 1 .32 4.98A5.26 5.26 0 0 1 49.72 43H6.28z"></path><path d="M49.72 34a4.36 4.36 0 0 1 3.58 1.82 3.7 3.7 0 0 1 .26 4A4.26 4.26 0 0 1 49.72 42H6.28a4.26 4.26 0 0 1-3.84-2.24 3.7 3.7 0 0 1 .26-4A4.36 4.36 0 0 1 6.28 34h43.44zm0-2H6.28a6.32 6.32 0 0 0-5.22 2.68A6 6 0 0 0 6.28 44h43.44a6 6 0 0 0 5.22-9.32A6.32 6.32 0 0 0 49.72 32zM13 58a3 3 0 0 1-3-3v-7H8v7a5 5 0 0 0 5 5h15v-2H13z"></path><path d="M28 60a1 1 0 1 0 0-2 1 1 0 0 0 0 2zM9 49a1 1 0 1 0 0-2 1 1 0 0 0 0 2zM34 60a1 1 0 1 0 0-2 1 1 0 0 0 0 2zM41.58 12.34L40.48 8A2 2 0 0 0 42 6V4a2 2 0 0 0-2-2h-9.56A6 6 0 0 0 26 0h-8a6 6 0 0 0-6 6v8a6 6 0 0 0 6 6h22a4 4 0 0 0 1.58-7.66zM32 8h6.44l1 4H32V8zm0-4h8v2h-8V4zm-2 14H18a4 4 0 0 1-4-4V6a4 4 0 0 1 4-4h8a4 4 0 0 1 4 4v12zm10 .12h-8V14h8.64a2.1 2.1 0 0 1-.64 4.12z"></path><path d="M17 14a1 1 0 1 0 0-2 1 1 0 0 0 0 2zM22 4h-3a3 3 0 0 0-3 3v3a1 1 0 0 0 2 0V7a1.02 1.02 0 0 1 1-1h3a1 1 0 1 0 0-2zM38 23a3 3 0 1 0 0-6 3 3 0 0 0 0 6z"></path><path d="M38 18a2 2 0 1 1 0 4 2 2 0 0 1 0-4zm0-2a4 4 0 1 0 0 8 4 4 0 0 0 0-8z"></path><path d="M38 21a1 1 0 1 0 0-2 1 1 0 0 0 0 2zM20 23a3 3 0 1 0 0-6 3 3 0 0 0 0 6z"></path><path d="M20 18a2 2 0 1 1 0 4 2 2 0 0 1 0-4zm0-2a4 4 0 1 0 0 8 4 4 0 0 0 0-8z"></path><path d="M20 21a1 1 0 1 0 0-2 1 1 0 0 0 0 2z"></path></g><defs><clipPath id="a"><path d="M0 0h56v64H0z"></path></clipPath></defs>
		</symbol>
	
		<symbol id="icon-reason6" viewBox="0 0 56 64">
			<g clip-path="url(#a)"><path d="M46 34a4 4 0 0 1 4 4v20a4 4 0 0 1-4 4H10a4 4 0 0 1-4-4V38a4 4 0 0 1 4-4h36zm0-2H10a6 6 0 0 0-6 6v20a6 6 0 0 0 6 6h36a6 6 0 0 0 6-6V38a6 6 0 0 0-6-6z"></path><path d="M6.28 43a5.2 5.2 0 0 1-4.72-2.78 4.76 4.76 0 0 1 .32-4.98A5.34 5.34 0 0 1 6.28 33h43.44a5.339 5.339 0 0 1 4.4 2.24 4.76 4.76 0 0 1 .32 4.98A5.2 5.2 0 0 1 49.72 43H6.28z"></path><path d="M49.72 34a4.36 4.36 0 0 1 3.58 1.82 3.7 3.7 0 0 1 .26 4A4.26 4.26 0 0 1 49.72 42H6.28a4.26 4.26 0 0 1-3.84-2.24 3.7 3.7 0 0 1 .26-4A4.36 4.36 0 0 1 6.28 34h43.44zm0-2H6.28a6.32 6.32 0 0 0-5.22 2.68A6 6 0 0 0 6.28 44h43.44a6 6 0 0 0 5.22-9.32A6.32 6.32 0 0 0 49.72 32zM13 58a3 3 0 0 1-3-3v-7H8v7a5 5 0 0 0 5 5h15v-2H13z"></path><path d="M28 60a1 1 0 1 0 0-2 1 1 0 0 0 0 2zM9 49a1 1 0 1 0 0-2 1 1 0 0 0 0 2zM34 60a1 1 0 1 0 0-2 1 1 0 0 0 0 2zM38 0H18a6 6 0 0 0-6 6v12a6 6 0 0 0 6 6h6v4h-4v2h16v-2h-4v-4h6a6 6 0 0 0 6-6V6a6 6 0 0 0-6-6zm-8 28h-4v-4h4v4zm12-10a4 4 0 0 1-4 4H18a4 4 0 0 1-4-4v-2h28v2zm-28-4V6a4 4 0 0 1 4-4h20a4 4 0 0 1 4 4v8H14z"></path><path d="M28 18a1 1 0 1 0 0 2 1 1 0 0 0 0-2zM27 6h-2l-4 4h2l4-4zM33 4h-2l-8 8h2l8-8zM35 6h-2l-4 4h2l4-4z"></path></g><defs><clipPath id="a"><path d="M0 0h56v64H0z"></path></clipPath></defs>
		</symbol>
	
		<symbol id="icon-reason7" viewBox="0 0 64 48">
			<g clip-path="url(#a)"><path d="M59.4 24.18l-3-9A4 4 0 0 0 54 8H40V6a6 6 0 0 0-6-6H6a6 6 0 0 0-6 6v28a6 6 0 0 0 6 6h52a6 6 0 0 0 6-6v-4a6 6 0 0 0-4.6-5.82zM54.56 16l2.66 8H40v-8h14.56zM54 10a2 2 0 0 1 0 4H40v-4h14zM38 38H6a4 4 0 0 1-4-4V6a4 4 0 0 1 4-4h28a4 4 0 0 1 4 4v32zm24-4a4 4 0 0 1-4 4H40V26h18a4 4 0 0 1 4 4v4z"></path><path d="M5 24a1 1 0 1 0 0-2 1 1 0 0 0 0 2zM20 4H7a3 3 0 0 0-3 3v13a1 1 0 1 0 2 0V7a1.02 1.02 0 0 1 1-1h13a1 1 0 1 0 0-2zM52 47a7 7 0 1 0 0-14 7 7 0 0 0 0 14z"></path><path d="M52 34a6 6 0 1 1 0 12 6 6 0 0 1 0-12zm0-2a8 8 0 1 0 0 16.001A8 8 0 0 0 52 32z"></path><path d="M52 38a2 2 0 1 0 0 4 2 2 0 0 0 0-4zM16 47a7 7 0 1 0 0-14 7 7 0 0 0 0 14z"></path><path d="M16 34a6 6 0 1 1 0 12 6 6 0 0 1 0-12zm0-2a8 8 0 1 0 0 16.001A8 8 0 0 0 16 32z"></path><path d="M16 38a2 2 0 1 0 0 4 2 2 0 0 0 0-4z"></path></g><defs><clipPath id="a"><path d="M0 0h64v48H0z"></path></clipPath></defs>
		</symbol>
	
		<symbol id="icon-triangle-solid" viewBox="0 0 576 512">
			<path d="M569.517 440.013C587.975 472.007 564.806 512 527.94 512H48.054c-36.937 0-59.999-40.055-41.577-71.987L246.423 23.985c18.467-32.009 64.72-31.951 83.154 0l239.94 416.028zM288 354c-25.405 0-46 20.595-46 46s20.595 46 46 46 46-20.595 46-46-20.595-46-46-46zm-43.673-165.346l7.418 136c.347 6.364 5.609 11.346 11.982 11.346h48.546c6.373 0 11.635-4.982 11.982-11.346l7.418-136c.375-6.874-5.098-12.654-11.982-12.654h-63.383c-6.884 0-12.356 5.78-11.981 12.654z"></path>
		</symbol>
	
</svg>
