<?xml version="1.0" standalone="no"?>
<!DOCTYPE svg PUBLIC "-//W3C//DTD SVG 1.1//EN" "http://www.w3.org/Graphics/SVG/1.1/DTD/svg11.dtd" >
<svg xmlns="http://www.w3.org/2000/svg" xmlns:xlink="http://www.w3.org/1999/xlink" version="1.1">
<metadata></metadata>
<defs>
<font id="blogger_sansregular" horiz-adv-x="1024" >
<font-face units-per-em="2048" ascent="1556" descent="-492" />
<missing-glyph horiz-adv-x="614" />
<glyph horiz-adv-x="0" />
<glyph unicode="&#xd;" horiz-adv-x="614" />
<glyph unicode=" "  horiz-adv-x="614" />
<glyph unicode="&#x09;" horiz-adv-x="614" />
<glyph unicode="&#xa0;" horiz-adv-x="614" />
<glyph unicode="!" horiz-adv-x="464" d="M125 92q0 45 31.5 77t79.5 32q45 0 76.5 -32t31.5 -77q0 -47 -31.5 -79.5t-76.5 -32.5q-47 0 -79 32.5t-32 79.5zM150 1382q0 33 23.5 57.5t57.5 24.5q35 0 58.5 -24.5t23.5 -57.5l-20 -968q0 -27 -18.5 -46.5t-43.5 -19.5q-27 0 -44 19.5t-17 46.5z" />
<glyph unicode="&#x22;" horiz-adv-x="700" d="M115 993l59 498q6 29 34 47t62 14q35 -6 56.5 -31.5t13.5 -54.5l-115 -493q-4 -23 -23.5 -38t-41.5 -11q-23 4 -36 25.5t-9 43.5zM381 993l59 498q6 29 34 47t63 14q35 -6 56 -31.5t13 -54.5l-114 -493q-4 -23 -23.5 -38t-42.5 -11t-36 25.5t-9 43.5z" />
<glyph unicode="#" horiz-adv-x="1107" d="M86 541q0 35 24.5 57.5t55.5 22.5h102l47 208h-88q-35 0 -57.5 22.5t-22.5 57.5t25 57.5t55 22.5h123l92 412q16 57 76 57q29 -4 49.5 -25.5t18.5 -50.5q0 -10 -2 -16l-84 -377h219l92 412q16 57 76 57q29 -4 49 -25.5t18 -50.5q0 -10 -2 -16l-84 -377h72 q31 0 55.5 -22.5t24.5 -57.5t-22.5 -57.5t-57.5 -22.5h-106l-48 -208h93q31 0 55 -23t24 -57q0 -35 -22.5 -57.5t-56.5 -22.5h-127l-93 -416q-16 -59 -75 -59q-29 4 -49.5 25.5t-20.5 51.5l4 19l84 379h-219l-92 -416q-16 -59 -76 -59q-29 4 -49.5 25.5t-20.5 51.5l5 19 l83 379h-67q-35 0 -57.5 22.5t-22.5 57.5zM418 621h219l47 208h-219z" />
<glyph unicode="$" d="M100 193q0 31 21.5 55t54.5 24q20 0 45 -10t58.5 -23.5t77.5 -24.5t104 -13v467q-68 23 -131.5 49t-114.5 67t-82 101.5t-31 152.5q0 162 96.5 255t262.5 108v100q0 23 15.5 38t37.5 15q23 0 38 -15t15 -38v-100q45 -4 97.5 -11.5t97.5 -23.5t74.5 -41t29.5 -61 q0 -31 -21.5 -54.5t-60.5 -23.5q-23 0 -43 7t-44.5 16.5t-55.5 18.5t-74 13v-440q66 -23 130.5 -49.5t114.5 -67.5t82 -102.5t32 -151.5q0 -84 -27 -149.5t-75 -114.5t-113.5 -80t-143.5 -41v-102q0 -23 -15 -38.5t-38 -15.5t-38 15.5t-15 38.5v98q-53 2 -115.5 10 t-117 26.5t-91.5 46.5t-37 69zM272 1051q0 -43 12.5 -75t30 -53.5t38 -35t38.5 -21.5q16 -8 33.5 -15t36.5 -15v403q-39 -6 -73 -18.5t-59.5 -35t-41 -55t-15.5 -79.5zM567 207q187 31 187 207q0 88 -39 129t-78 59q-16 8 -33.5 15.5t-36.5 13.5v-424z" />
<glyph unicode="%" horiz-adv-x="1439" d="M113 1139q0 70 18.5 129t55 103t90 69.5t124.5 25.5q70 0 124.5 -25.5t91 -69.5t55 -103.5t18.5 -128.5q0 -70 -18.5 -129.5t-55 -103.5t-91 -69.5t-124.5 -25.5t-124 25.5t-90.5 69.5t-55 103.5t-18.5 129.5zM252 1143q0 -98 35.5 -151.5t113.5 -53.5t114 53t36 152 q0 92 -36 144t-114 52t-113.5 -52t-35.5 -144zM305 90l8 16l691 1324q14 25 37.5 34t50.5 0q27 -10 41 -35.5t4 -54.5q0 -8 -7 -14l-690 -1325q-14 -27 -37.5 -36t-50.5 -3q-29 10 -42 37.5t-5 56.5zM750 307q0 70 18 129.5t55 103.5t90.5 69.5t124.5 25.5q70 0 124.5 -25.5 t91 -69.5t55 -103.5t18.5 -129.5t-18.5 -129t-55 -103t-91 -69.5t-124.5 -25.5q-72 0 -125 25.5t-90 69.5t-55 103.5t-18 128.5zM889 311q0 -98 35.5 -151.5t113.5 -53.5t114 53.5t36 151.5q0 92 -36 144.5t-114 52.5t-113.5 -52.5t-35.5 -144.5z" />
<glyph unicode="&#x26;" horiz-adv-x="1314" d="M96 369q0 82 27 148.5t71 118.5t99 93t110 76q-76 82 -121.5 164t-45.5 172q0 74 28.5 133t76.5 101t111.5 63.5t131.5 21.5q70 0 130 -22.5t105 -60.5t70.5 -86t25.5 -97q0 -33 -24.5 -55.5t-52.5 -22.5q-29 0 -47.5 17.5t-26.5 44.5q-14 51 -59.5 94t-114.5 43 q-78 0 -136.5 -47t-58.5 -131q0 -35 15.5 -69t39 -68.5t52 -68.5t55.5 -67l379 -436q37 57 66.5 117.5t56.5 120.5q16 37 31.5 44t39.5 7q29 0 52.5 -22.5t23.5 -55.5q0 -31 -15 -74t-40 -89t-54.5 -92t-56.5 -83l160 -190q19 -23 19 -50q0 -33 -21.5 -57t-56.5 -24 q-25 0 -40.5 11t-31.5 32l-131 155q-39 -39 -83 -74.5t-95 -63.5t-110.5 -44t-129.5 -16q-94 0 -172 29.5t-134 81.5t-87 123t-31 155zM254 385q0 -51 18.5 -98t51 -82t80 -56.5t104.5 -21.5q106 0 185 49t145 123l-340 389q-45 -25 -88 -54.5t-78 -66.5t-56.5 -82 t-21.5 -100z" />
<glyph unicode="'" horiz-adv-x="454" d="M115 993l59 498q6 29 34 47t62 14q35 -6 56.5 -31.5t13.5 -54.5l-115 -493q-4 -23 -23.5 -38t-41.5 -11q-23 4 -36 25.5t-9 43.5z" />
<glyph unicode="(" horiz-adv-x="565" d="M133 453q0 231 55.5 465.5t178.5 439.5q25 39 67 39q41 0 59.5 -27t18.5 -59q0 -14 -6 -27.5t-14 -28.5q-104 -184 -150.5 -387.5t-46.5 -414.5t46 -415t151 -388q8 -14 14 -27.5t6 -28.5q0 -33 -18.5 -59.5t-59.5 -26.5q-43 0 -67 39q-123 205 -178.5 439.5t-55.5 466.5 z" />
<glyph unicode=")" horiz-adv-x="563" d="M51 -406q0 14 6 27.5t15 28.5q104 184 150 388t46 415t-46 414.5t-150 387.5q-8 14 -14.5 27.5t-6.5 28.5q0 33 18.5 59.5t59.5 26.5q43 0 68 -39q123 -205 178 -439.5t55 -465.5t-55.5 -466t-177.5 -440q-25 -39 -68 -39q-41 0 -59.5 27t-18.5 59z" />
<glyph unicode="*" horiz-adv-x="1013" d="M117 1219q12 37 39.5 46t56.5 -1q59 -23 116.5 -46.5t116.5 -43.5l-12 249q-2 29 15.5 52.5t56.5 23.5t56.5 -23.5t15.5 -52.5l-13 -249q59 20 116.5 43.5t117.5 46.5q29 10 56.5 1t39.5 -46q12 -35 -6.5 -58.5t-46.5 -34.5l-238 -65l154 -195q18 -23 19 -52.5t-32 -51.5 q-31 -23 -58.5 -13.5t-43.5 31.5l-137 211q-35 -49 -69 -105.5t-68 -105.5q-16 -23 -44 -31t-59 13q-29 20 -28.5 51t16.5 53l156 195l-240 65q-29 10 -46.5 34t-6.5 59z" />
<glyph unicode="+" d="M25 725q0 35 24.5 57.5t54.5 22.5h328v348q0 31 22.5 55.5t57.5 24.5t57.5 -22.5t22.5 -57.5v-348h328q31 0 55 -22.5t24 -57.5t-22.5 -57.5t-56.5 -22.5h-328v-348q0 -35 -22.5 -57.5t-57.5 -22.5t-57.5 24.5t-22.5 55.5v348h-328q-35 0 -57 22.5t-22 57.5z" />
<glyph unicode="," horiz-adv-x="471" d="M125 92q0 45 31.5 77t79.5 32q45 0 76.5 -32t31.5 -77q0 -51 -16.5 -110.5t-41 -109.5t-51 -83t-47.5 -33q-16 0 -27 7.5t-11 27.5q0 25 8 45.5t20 42t24.5 45t22.5 56.5q-43 4 -71.5 35.5t-28.5 76.5z" />
<glyph unicode="-" horiz-adv-x="817" d="M78 604q0 31 21.5 53.5t54.5 22.5h510q31 0 52 -22.5t21 -53.5t-21.5 -52.5t-51.5 -21.5h-510q-33 0 -54.5 21.5t-21.5 52.5z" />
<glyph unicode="." horiz-adv-x="471" d="M125 92q0 45 31.5 77t79.5 32q45 0 76.5 -32t31.5 -77q0 -47 -31.5 -79.5t-76.5 -32.5q-47 0 -79 32.5t-32 79.5z" />
<glyph unicode="/" horiz-adv-x="573" d="M-53 2q0 4 4 16l526 1483q10 29 34 41t52 8q29 -6 47.5 -31.5t14.5 -56.5q0 -6 -4 -14l-527 -1485q-10 -29 -33.5 -42t-52.5 -9q-31 6 -48 31.5t-13 58.5z" />
<glyph unicode="0" d="M100 406v610q0 96 23.5 182t75 149.5t128 100.5t185.5 37q106 0 184 -37t129.5 -100.5t75 -149.5t23.5 -182v-610q0 -90 -27 -167t-79 -135.5t-129 -91t-177 -32.5t-177 32.5t-129 91t-79 135t-27 167.5zM262 406q0 -123 63.5 -199t186.5 -76t186.5 76t63.5 199v626 q0 66 -14.5 122t-44 96t-76.5 62.5t-115 22.5t-115 -22.5t-76.5 -62.5t-44 -96t-14.5 -122v-626z" />
<glyph unicode="1" d="M141 1120q0 47 37 72l404 258q23 14 49 14q37 0 62.5 -25.5t25.5 -62.5v-1313q0 -33 -23.5 -57t-58.5 -24t-58.5 24.5t-23.5 56.5v1190l-252 -161q-23 -14 -45 -27.5t-45 -13.5q-27 0 -49.5 20.5t-22.5 48.5z" />
<glyph unicode="2" d="M92 86q0 20 2 42t10 38q41 98 106.5 183t141.5 162t154 150.5t143 149.5q45 51 79 115.5t34 144.5q0 113 -63.5 188.5t-190.5 75.5q-59 0 -106.5 -10t-88.5 -29q-39 -16 -66.5 -36.5t-56.5 -20.5t-53 20.5t-24 55.5q0 25 13 43t40 35q80 51 163 71.5t181 20.5t174 -31 t129 -84t81 -123.5t28 -152.5q0 -127 -42 -217.5t-106 -161.5q-63 -72 -133 -137.5t-135.5 -132t-122.5 -137t-96 -152.5h563q35 0 57.5 -22.5t22.5 -55.5t-22.5 -55.5t-57.5 -22.5h-674q-37 0 -60.5 24.5t-23.5 61.5z" />
<glyph unicode="3" d="M106 133q0 31 22 54.5t54 23.5q20 0 43 -12q45 -27 98.5 -48.5t133.5 -21.5q86 0 143 28.5t92 72.5t49.5 99.5t14.5 110.5q0 70 -21.5 120t-58.5 83t-88 47.5t-111 14.5q-55 0 -88 -13q-10 -4 -15 -8t-20 -4q-20 0 -36.5 12.5t-24.5 30.5t-7 39.5t15 42.5l367 477h-455 q-35 0 -57.5 22.5t-22.5 57.5t22.5 59.5t57.5 24.5h571q39 0 63.5 -25.5t24.5 -66.5q0 -33 -20 -60l-344 -444q88 -2 162.5 -29.5t130 -78t86.5 -125t31 -168.5q0 -80 -24 -163t-74 -150.5t-129 -110.5t-189 -43q-31 0 -97.5 5t-132 21.5t-116 46t-50.5 78.5z" />
<glyph unicode="4" d="M72 393q0 4 4 21.5t12 34.5l393 985q10 23 28.5 35t41.5 12q29 0 54.5 -23.5t25.5 -58.5v-13.5t-4 -13.5l-367 -913h408v401q0 35 22.5 57.5t57.5 22.5q33 0 56 -22.5t23 -57.5v-401h88q33 0 54.5 -22.5t21.5 -53.5q0 -33 -21.5 -55.5t-54.5 -22.5h-88v-244 q0 -35 -22.5 -57t-56.5 -22q-35 0 -57.5 22.5t-22.5 56.5v244h-512q-37 0 -60.5 26.5t-23.5 61.5z" />
<glyph unicode="5" d="M106 133q0 31 22 54.5t54 23.5q20 0 43 -12q41 -25 95.5 -47.5t136.5 -22.5q86 0 143 27.5t92 73.5t49.5 103.5t14.5 119.5q0 76 -19.5 133t-54.5 94t-82 55.5t-102 18.5q-45 0 -81 -11.5t-69 -29.5q-35 -18 -57.5 -38t-52.5 -20q-35 0 -59.5 25t-22.5 63l20 613 q2 43 31 66.5t63 23.5h494q35 0 64.5 -17.5t29.5 -60.5q0 -41 -29.5 -58.5t-64.5 -17.5h-442l-17 -442q45 27 94.5 38t102.5 11q92 0 167.5 -29.5t131 -86t86.5 -138.5t31 -184q0 -86 -24 -172t-74 -153.5t-128 -110.5t-188 -43q-31 0 -97.5 5t-133 21.5t-117 46t-50.5 78.5 z" />
<glyph unicode="6" d="M84 680q0 381 110.5 582.5t340.5 201.5q27 0 79 -4t104 -15t92 -33.5t40 -59.5q0 -29 -21.5 -52.5t-52.5 -23.5q-14 0 -45 10q-35 10 -78 20.5t-92 10.5q-94 0 -153.5 -41t-94 -111.5t-48 -165t-13.5 -200.5q59 53 133 74.5t143 21.5q86 0 161 -27.5t130 -84t88 -139.5 t33 -193q0 -96 -26.5 -181.5t-79 -150t-133 -102t-187.5 -37.5q-125 0 -208 52t-132 145t-69.5 221t-20.5 282zM248 575q0 -86 11 -164.5t41 -139t83 -96.5t139 -36q72 0 121 25.5t79 68.5t43 98.5t13 114.5q0 152 -69.5 222.5t-186.5 70.5q-86 0 -159.5 -32.5t-114.5 -81.5 v-50z" />
<glyph unicode="7" d="M102 1364q0 35 22.5 58.5t55.5 23.5h656q35 0 60.5 -24.5t25.5 -59.5q0 -10 -2 -22.5t-7 -22.5l-510 -1284q-10 -25 -29.5 -38t-43.5 -13q-31 0 -54.5 19t-27.5 52q0 20 6 39l481 1192h-555q-31 0 -54.5 23.5t-23.5 56.5z" />
<glyph unicode="8" d="M57 391q0 137 73 226.5t179 146.5q-86 53 -143 134t-57 198q0 84 31.5 151.5t87 115.5t128 73.5t154.5 25.5q84 0 157.5 -26.5t128 -74.5t85 -114.5t30.5 -146.5q0 -104 -52 -184t-146 -140q106 -57 179 -147.5t73 -229.5q0 -90 -34 -166.5t-93.5 -133t-142.5 -88 t-183 -31.5q-98 0 -181 30.5t-144.5 85t-95.5 130t-34 165.5zM219 399q0 -59 22.5 -108t61.5 -85t93.5 -56.5t115.5 -20.5q63 0 116.5 20.5t92.5 57.5t60.5 87t21.5 107q0 63 -25.5 112.5t-66.5 85.5t-94.5 59.5t-110.5 33.5q-59 -12 -111.5 -37.5t-91.5 -62.5t-61.5 -86 t-22.5 -107zM268 1092q0 -53 20.5 -95.5t54.5 -74t79 -53t94 -29.5q98 23 168 88.5t70 163.5q0 49 -18.5 91t-51.5 71.5t-77 46t-95 16.5t-96 -16.5t-78 -46t-51.5 -71.5t-18.5 -91z" />
<glyph unicode="9" d="M84 997q0 94 24.5 179.5t76 149t130 101t187.5 37.5q125 0 210 -51t135 -145t71.5 -226.5t21.5 -293.5q0 -383 -109.5 -575.5t-341.5 -192.5q-27 0 -80 4t-105 15t-91 33.5t-39 59.5q0 29 21.5 52.5t52.5 23.5q14 0 45 -10q35 -10 78 -20.5t92 -10.5q94 0 153.5 41 t94 111.5t48 165t13.5 200.5q-59 -53 -133 -74.5t-143 -21.5q-84 0 -159 27.5t-131 83t-89 139.5t-33 198zM246 995q0 -150 70.5 -220t187.5 -70q86 0 158.5 32.5t113.5 81.5v49q0 92 -14 172t-48 138.5t-87.5 92.5t-130.5 34q-70 0 -117 -27t-77 -70t-43 -98t-13 -115z" />
<glyph unicode=":" horiz-adv-x="471" d="M125 0zM125 92q0 45 31.5 77t79.5 32q45 0 76.5 -32t31.5 -77q0 -47 -31.5 -79.5t-76.5 -32.5q-47 0 -79 32.5t-32 79.5zM125 706q0 45 31.5 77t79.5 32q45 0 76.5 -32t31.5 -77q0 -47 -31.5 -79.5t-76.5 -32.5q-47 0 -79 32.5t-32 79.5z" />
<glyph unicode=";" horiz-adv-x="471" d="M125 0zM125 92q0 45 31.5 77t79.5 32q45 0 76.5 -32t31.5 -77q0 -51 -16.5 -110.5t-41 -109.5t-51 -83t-47.5 -33q-16 0 -27 7.5t-11 27.5q0 25 8 45.5t20 42t24.5 45t22.5 56.5q-43 4 -71.5 35.5t-28.5 76.5zM125 706q0 45 31.5 77t79.5 32q45 0 76.5 -32t31.5 -77 q0 -47 -31.5 -79.5t-76.5 -32.5q-47 0 -79 32.5t-32 79.5z" />
<glyph unicode="&#x3c;" horiz-adv-x="1280" d="M139 721q0 45 24.5 62.5t59.5 39.5l811 420q41 14 74 -11.5t33 -66.5q0 -23 -16.5 -43t-41.5 -32l-733 -369l733 -369q25 -12 41.5 -31.5t16.5 -41.5q0 -20 -9.5 -39t-24.5 -31t-34.5 -15.5t-38.5 7.5l-811 420q-35 20 -59.5 38.5t-24.5 61.5z" />
<glyph unicode="=" d="M106 541q0 35 25 57.5t55 22.5h652q31 0 55.5 -23t24.5 -57q0 -35 -23 -57.5t-57 -22.5h-652q-35 0 -57.5 22.5t-22.5 57.5zM106 909q0 35 25 57.5t55 22.5h652q31 0 55.5 -22.5t24.5 -57.5t-23 -57.5t-57 -22.5h-652q-35 0 -57.5 22.5t-22.5 57.5z" />
<glyph unicode="&#x3e;" horiz-adv-x="1280" d="M139 279q0 23 16.5 42t41.5 31l733 369l-733 369q-25 12 -41.5 32.5t-16.5 42.5q0 20 9.5 39t24.5 31t34.5 15t38.5 -7l811 -420q35 -23 59.5 -40t24.5 -62q0 -43 -24.5 -61.5t-59.5 -38.5l-811 -420q-18 -10 -38 -7t-35 15t-24.5 30.5t-9.5 39.5z" />
<glyph unicode="?" horiz-adv-x="946" d="M76 1315q0 25 13 43t40 35q80 51 163 71.5t181 20.5t174 -31t129 -84t81 -123.5t28 -152.5q0 -127 -42 -217.5t-106 -161.5q-47 -53 -98 -99.5t-80 -105.5q-8 -16 -10 -37.5t-2 -42.5q0 -33 -23.5 -57.5t-58.5 -24.5t-58.5 24.5t-23.5 57.5q0 20 2 42t10 38q16 47 42 86 t55.5 75t60.5 69.5t59 70.5q45 51 79 115.5t34 144.5q0 113 -63.5 188.5t-190.5 75.5q-59 0 -106.5 -10t-88.5 -29q-39 -16 -66.5 -36.5t-55.5 -20.5q-29 0 -53.5 20.5t-24.5 55.5zM356 92q0 -47 32 -79.5t79 -32.5q45 0 76.5 32.5t31.5 79.5q0 45 -31.5 77t-76.5 32 q-47 0 -79 -32t-32 -77z" />
<glyph unicode="@" horiz-adv-x="1523" d="M131 641q0 145 41 266t121 209t196.5 136t268.5 48q156 0 274.5 -50t198.5 -138t121 -204.5t41 -250.5q0 -72 -13.5 -133t-42 -106t-77 -69.5t-115.5 -24.5q-68 0 -114 23.5t-75 64.5q-57 -59 -111 -84t-114 -25q-66 0 -116 25.5t-84.5 70.5t-53 107.5t-18.5 134.5 q0 152 77.5 245t229.5 93q76 0 126 -24.5t82 -67.5t48 -103.5t22 -132.5q2 -29 6.5 -59.5t15.5 -58t29.5 -45t49.5 -17.5q51 0 69.5 47t18.5 125q0 109 -29.5 202t-90 161.5t-148.5 107.5t-205 39q-115 0 -202 -38t-146.5 -105.5t-90 -162.5t-30.5 -210t30.5 -210t91 -162.5 t149.5 -105.5t208 -38q55 0 95 7t70 17.5t52.5 19.5t40.5 15q27 8 57.5 1t40.5 -46q10 -43 -16 -66.5t-61 -39.5q-53 -23 -137.5 -39.5t-170.5 -16.5q-141 0 -254.5 48.5t-192.5 136.5t-121 211t-42 272zM618 635q0 -90 31 -139.5t96 -49.5q80 0 160 76q-8 31 -12 64.5 t-8 68.5q-2 27 -6.5 58.5t-16.5 57.5t-36.5 43t-67.5 17q-74 0 -107 -52t-33 -144z" />
<glyph unicode="A" horiz-adv-x="1124" d="M51 61q0 6 1 16.5t3 14.5l400 1264q14 47 37.5 77.5t68.5 30.5q47 0 69.5 -30.5t39.5 -77.5l399 -1264q2 -4 3 -14t1 -17q0 -37 -24.5 -59t-61.5 -22q-23 0 -47.5 16t-32.5 45l-88 285h-518l-86 -285q-10 -29 -32.5 -45t-45.5 -16q-35 0 -60.5 22.5t-25.5 58.5zM350 485 h422l-211 695z" />
<glyph unicode="B" horiz-adv-x="1110" d="M150 98v1248q0 41 28.5 69.5t69.5 28.5h346q100 0 175 -32t125 -84t74.5 -118.5t24.5 -138.5q0 -66 -20.5 -117t-55 -90t-83 -67.5t-105.5 -53.5q51 -16 105.5 -37.5t98.5 -58.5t71.5 -94t27.5 -143t-30.5 -161t-89 -130.5t-140.5 -87t-186 -31.5h-338q-41 0 -69.5 28.5 t-28.5 69.5zM313 160h250q154 0 229.5 68.5t75.5 179.5q0 129 -89 195.5t-224 66.5h-242v-510zM313 829h236q49 0 99 14.5t90 45.5t65.5 77t25.5 107q0 41 -12 79t-40.5 67.5t-76 47t-116.5 17.5h-271v-455z" />
<glyph unicode="C" horiz-adv-x="987" d="M92 504v438q0 119 27.5 215t84 165t143.5 105.5t206 36.5q70 0 135.5 -14t115.5 -37.5t80.5 -55.5t30.5 -69q0 -29 -20.5 -50t-52.5 -21q-23 0 -36 9t-38 25q-90 63 -205 64q-86 0 -145.5 -25.5t-95 -75t-51 -118t-15.5 -154.5v-438q0 -86 15.5 -154.5t51 -118t95 -75 t145.5 -25.5q115 0 205 64q27 16 39 25t35 9q33 0 53 -21.5t20 -49.5q0 -37 -30.5 -69t-80.5 -55.5t-115.5 -37.5t-135.5 -14q-119 0 -206 36.5t-143.5 105.5t-84 165t-27.5 215z" />
<glyph unicode="D" horiz-adv-x="1134" d="M150 98v1250q0 41 28.5 69.5t69.5 28.5h231q156 0 263.5 -43t174 -116t95 -167t28.5 -196v-383q0 -104 -28.5 -202.5t-94 -173.5t-173 -120t-265.5 -45h-231q-41 0 -69.5 28.5t-28.5 69.5zM313 160h201q100 0 170 29.5t113 82t61.5 121t18.5 148.5v383q0 76 -19.5 142.5 t-62.5 115.5t-112 76.5t-169 27.5h-201v-1126z" />
<glyph unicode="E" horiz-adv-x="970" d="M150 96v1252q0 35 27.5 65.5t68.5 30.5h555q35 0 58.5 -23.5t23.5 -58.5t-23.5 -56.5t-58.5 -21.5h-488v-479h449q31 0 55.5 -22.5t24.5 -57.5t-22.5 -57.5t-57.5 -22.5h-449v-485h508q33 0 57.5 -22.5t24.5 -53.5q0 -35 -23.5 -59.5t-58.5 -24.5h-542q-51 0 -90 20.5 t-39 75.5z" />
<glyph unicode="F" horiz-adv-x="970" d="M150 61v1287q0 35 27.5 65.5t68.5 30.5h555q35 0 58.5 -23.5t23.5 -58.5t-23.5 -56.5t-58.5 -21.5h-488v-479h449q31 0 55.5 -22.5t24.5 -57.5t-22.5 -57.5t-57.5 -22.5h-449v-584q0 -33 -23.5 -57t-58.5 -24t-58 24.5t-23 56.5z" />
<glyph unicode="G" horiz-adv-x="1064" d="M92 504v438q0 119 27.5 215t84 165t143.5 105.5t206 36.5q70 0 135.5 -14t115.5 -37.5t80.5 -55.5t30.5 -69q0 -29 -20.5 -50t-52.5 -21q-23 0 -36 9t-38 25q-90 63 -205 64q-86 0 -145.5 -25.5t-95 -75t-51 -118t-15.5 -154.5v-438q0 -86 15.5 -154.5t51 -118t95 -75 t145.5 -25.5q74 0 129.5 20.5t102.5 55.5v440h-199q-31 0 -54.5 22.5t-23.5 55.5t23.5 55.5t54.5 22.5h244q49 0 82.5 -22.5t33.5 -71.5v-490q0 -61 -37.5 -106t-96 -75t-130 -43t-139.5 -13q-119 0 -206 36.5t-143.5 105.5t-84 165t-27.5 215z" />
<glyph unicode="H" horiz-adv-x="1187" d="M150 63v1319q0 33 23.5 57.5t57.5 24.5q35 0 58.5 -24.5t23.5 -57.5v-579h559v579q0 33 25 57.5t57 24.5q33 0 57.5 -24.5t24.5 -57.5v-1319q0 -35 -23.5 -59t-58.5 -24q-33 0 -57.5 24.5t-24.5 58.5v580h-559v-580q0 -35 -23.5 -59t-58.5 -24t-58 24.5t-23 58.5z" />
<glyph unicode="I" horiz-adv-x="464" d="M150 61v1321q0 33 23.5 57.5t57.5 24.5q35 0 58.5 -24.5t23.5 -57.5v-1321q0 -33 -23.5 -57t-58.5 -24t-58 24.5t-23 56.5z" />
<glyph unicode="J" horiz-adv-x="788" d="M51 72q0 39 24.5 59.5t47.5 20.5q16 0 47 -7.5t78 -7.5q70 0 115 22.5t69.5 64.5t33.5 102.5t9 134.5v921q0 35 23.5 58.5t58.5 23.5q33 0 57.5 -24.5t24.5 -57.5v-921q0 -113 -20.5 -202t-67.5 -151.5t-127 -95t-199 -32.5q-23 0 -52.5 2t-56 11t-46 27.5t-19.5 51.5z " />
<glyph unicode="K" horiz-adv-x="1019" d="M150 63v1319q0 33 23.5 57.5t57.5 24.5q35 0 58.5 -24.5t23.5 -57.5v-596l518 639q10 16 31 27.5t43 11.5q23 0 49 -20q23 -17 24 -51q0 -5 -1 -11q-2 -29 -19 -51l-440 -540l477 -685q10 -18 11 -38q0 -29 -15.5 -58.5t-60.5 -29.5q-43 0 -70 38l-444 646l-103 -125 v-476q0 -35 -23.5 -59t-58.5 -24t-58 24.5t-23 58.5z" />
<glyph unicode="L" horiz-adv-x="917" d="M150 92v1290q0 33 23.5 57.5t57.5 24.5q35 0 58.5 -24.5t23.5 -57.5v-1224h506q31 0 54.5 -22.5t23.5 -55.5q0 -35 -22.5 -57.5t-55.5 -22.5h-577q-37 0 -64.5 26.5t-27.5 65.5z" />
<glyph unicode="M" horiz-adv-x="1431" d="M141 59v1319q0 37 24.5 61.5t61.5 24.5q59 0 88 -53l400 -856l399 858q29 51 86 51q37 0 61.5 -25.5t24.5 -60.5v-1319q0 -33 -23.5 -56t-56.5 -23q-35 0 -59.5 23.5t-24.5 55.5v998l-329 -705q-25 -49 -80 -49q-53 0 -78 49l-330 705v-998q0 -33 -25.5 -56t-60.5 -23 q-33 0 -55.5 23.5t-22.5 55.5z" />
<glyph unicode="N" horiz-adv-x="1228" d="M150 63v1311q0 39 24.5 64.5t63.5 25.5q27 0 50 -13t36 -36l589 -1089v1054q0 35 25 59.5t59 24.5q35 0 57.5 -24.5t22.5 -59.5v-1310q0 -37 -24.5 -63.5t-65.5 -26.5q-25 0 -48.5 12t-35.5 35l-590 1091v-1055q0 -35 -24.5 -59t-59.5 -24t-57 24.5t-22 58.5z" />
<glyph unicode="O" horiz-adv-x="1128" d="M92 504v438q0 106 25.5 201.5t83 166t146.5 112.5t216 42t216 -42t146.5 -112.5t83 -165.5t25.5 -202v-438q0 -109 -29.5 -205t-88 -167t-147.5 -111.5t-206 -40.5t-206 40.5t-147 111.5t-88 167t-30 205zM256 504q0 -162 75 -263.5t232 -101.5q158 0 232.5 101.5 t74.5 263.5v438q0 82 -16 148.5t-53 113.5t-95.5 74t-142.5 27t-142.5 -27t-95 -74t-53 -113.5t-16.5 -148.5v-438z" />
<glyph unicode="P" horiz-adv-x="1085" d="M150 66v1280q0 41 28.5 69.5t69.5 28.5h301q127 0 215 -38t142.5 -101.5t79 -146.5t24.5 -173q0 -219 -125 -336t-336 -117h-236v-466q0 -35 -23.5 -60.5t-58.5 -25.5q-33 0 -57 25.5t-24 60.5zM313 692h236q147 0 222 72t75 223q0 55 -12.5 108.5t-45 95.5t-91 67.5 t-148.5 25.5h-236v-592z" />
<glyph unicode="Q" horiz-adv-x="1128" d="M92 504v438q0 106 25.5 201.5t83 166t146.5 112.5t216 42t216 -42t146.5 -112.5t83 -165.5t25.5 -202v-438q0 -98 -24.5 -186.5t-72.5 -157t-120 -113.5t-168 -59q4 -113 45 -158t117 -45q16 0 32.5 1t26.5 1q35 0 57.5 -20.5t22.5 -55.5q0 -53 -47 -63t-119 -10 q-135 0 -210.5 95t-86.5 253q-98 12 -171.5 57t-124 113.5t-75 157.5t-24.5 190zM256 504q0 -162 75 -263.5t232 -101.5q158 0 232.5 101.5t74.5 263.5v438q0 82 -16 148.5t-53 113.5t-95.5 74t-142.5 27t-142.5 -27t-95 -74t-53 -113.5t-16.5 -148.5v-438z" />
<glyph unicode="R" horiz-adv-x="1177" d="M150 66v1280q0 41 27.5 69.5t66.5 28.5h356q127 0 212 -36t137 -93.5t75 -131t23 -149.5q0 -164 -85 -262t-233 -127l328 -539q10 -20 10 -47q0 -33 -31.5 -55t-56.5 -22q-45 0 -68 38l-362 615h-236v-569q0 -35 -24.5 -60.5t-59.5 -25.5q-33 0 -56 25.5t-23 60.5z M313 793h291q135 0 207 61t72 180q0 45 -12.5 90t-44 80t-89 57.5t-145.5 22.5h-279v-491z" />
<glyph unicode="S" horiz-adv-x="995" d="M84 131q0 31 21.5 55.5t52.5 24.5q20 0 49 -11.5t65.5 -24.5t83.5 -24.5t107 -11.5q137 0 205.5 65.5t68.5 186.5q0 49 -11 84t-27.5 59.5t-38 39t-39.5 24.5q-49 25 -107.5 44.5t-118 42t-115 50t-99.5 71.5t-69.5 106.5t-25.5 152.5q0 186 110.5 292.5t303.5 106.5 q39 0 98 -6t115.5 -21.5t96.5 -42t40 -69.5q0 -31 -21.5 -54.5t-60.5 -23.5q-25 0 -47.5 9.5t-52 19.5t-67.5 19.5t-89 9.5q-49 0 -95 -11.5t-82 -37t-57.5 -69.5t-21.5 -112q0 -51 12.5 -86t29.5 -58.5t37.5 -37.5t39.5 -23q49 -25 107.5 -45t117.5 -41.5t115.5 -49 t99.5 -72t68.5 -105.5t25.5 -151q0 -102 -33.5 -181.5t-94 -133.5t-142.5 -82.5t-178 -28.5q-49 0 -114.5 8t-124 26.5t-98.5 47t-40 69.5z" />
<glyph unicode="T" horiz-adv-x="989" d="M51 1364q0 27 23.5 53.5t58.5 26.5h721q33 0 58.5 -22.5t25.5 -57.5q0 -33 -24.5 -56.5t-59.5 -23.5h-279v-1223q0 -33 -23.5 -57t-57.5 -24q-35 0 -58.5 24.5t-23.5 56.5v1223h-279q-35 0 -58.5 23.5t-23.5 56.5z" />
<glyph unicode="U" horiz-adv-x="1171" d="M133 471v907q0 37 24.5 61.5t59.5 24.5q33 0 56.5 -25.5t23.5 -60.5v-907q0 -147 70.5 -239.5t218.5 -92.5q74 0 128 24.5t89 68.5t52 105.5t17 133.5v907q0 35 23 60.5t57 25.5q37 0 61.5 -25.5t24.5 -60.5v-907q0 -106 -30.5 -196.5t-89 -156t-142.5 -102t-190 -36.5 q-109 0 -194 36.5t-142 102t-87 156t-30 196.5z" />
<glyph unicode="V" horiz-adv-x="1083" d="M31 1382q0 37 25.5 59.5t60.5 22.5q23 0 45 -16t33 -45l346 -1139l346 1139q8 29 32.5 45t47.5 16q37 0 61.5 -22.5t24.5 -59.5q0 -6 -1 -16t-3 -14l-400 -1264q-16 -47 -38.5 -77.5t-69.5 -30.5q-45 0 -68.5 30.5t-38.5 77.5l-399 1264q-2 4 -3 14t-1 16z" />
<glyph unicode="W" horiz-adv-x="1589" d="M31 1372v12q0 35 29.5 53.5t62.5 18.5q25 0 45 -14.5t29 -44.5l254 -1092l237 1041q14 57 33.5 87.5t73.5 30.5q49 0 70.5 -32.5t33.5 -85.5l238 -1041l254 1092q20 59 69 59q33 0 66 -17.5t33 -56.5q0 -2 -5 -22l-305 -1266q-10 -45 -35.5 -79.5t-72.5 -34.5t-74 35.5 t-37 80.5l-235 1030l-238 -1032q-10 -41 -33.5 -77.5t-74.5 -36.5q-45 0 -73 33.5t-38 80.5l-305 1268q-2 0 -2 10z" />
<glyph unicode="X" d="M31 63q0 12 4 24.5t8 21.5l373 643l-342 587q-10 20 -11 45q0 31 23 55.5t53 24.5q29 0 50.5 -21.5t37.5 -49.5l285 -510l285 510q14 23 36.5 47t53.5 24q29 0 51.5 -23.5t22.5 -58.5q0 -23 -11 -43l-342 -587l373 -643q4 -8 8 -20.5t4 -25.5q0 -33 -23.5 -58t-51.5 -25 q-29 0 -48.5 18t-31.5 41l-326 582l-326 -582q-10 -20 -29.5 -39.5t-47.5 -19.5q-31 0 -54.5 25.5t-23.5 57.5z" />
<glyph unicode="Y" horiz-adv-x="974" d="M31 1380q0 35 25.5 59.5t58.5 24.5q18 0 35.5 -8t27.5 -24l309 -674l310 674q10 16 27.5 24t35.5 8q33 0 58.5 -24.5t25.5 -59.5q0 -18 -8 -39l-365 -778v-497q0 -35 -24.5 -60.5t-59.5 -25.5t-59.5 25.5t-24.5 60.5v501l-364 774q-8 20 -8 39z" />
<glyph unicode="Z" horiz-adv-x="991" d="M59 90q0 14 7.5 34.5t13.5 31.5l631 1124h-568q-35 0 -57.5 23.5t-22.5 58.5q0 33 23 57.5t57 24.5h695q39 0 63.5 -25.5t24.5 -62.5q0 -18 -6.5 -33.5t-14.5 -30.5l-635 -1128h578q33 0 57.5 -22.5t24.5 -57.5t-23.5 -59.5t-58.5 -24.5h-703q-37 0 -61.5 26.5 t-24.5 63.5z" />
<glyph unicode="[" horiz-adv-x="602" d="M158 -170v1733q0 43 31.5 60t74.5 17h209q29 0 52.5 -22.5t23.5 -52.5q0 -45 -33 -61.5t-70 -16.5h-127v-1581h127q41 0 72 -16.5t31 -59.5q0 -45 -34 -61.5t-71 -16.5h-208q-31 0 -54.5 23.5t-23.5 54.5z" />
<glyph unicode="\" horiz-adv-x="573" d="M-53 1462q-4 31 14.5 56.5t46.5 31.5q29 4 52.5 -8t33.5 -41l527 -1483q4 -12 4 -16q4 -33 -13.5 -58.5t-48.5 -31.5q-29 -4 -52.5 9t-33.5 42l-526 1485q-4 8 -4 14z" />
<glyph unicode="]" horiz-adv-x="602" d="M49 -170q0 45 33 60.5t72 15.5h127v1581h-127q-37 0 -71 15.5t-34 62.5q0 43 34 59t73 16h209q29 0 53 -24.5t24 -52.5v-1733q0 -33 -22.5 -55.5t-54.5 -22.5h-209q-39 0 -73 16.5t-34 61.5z" />
<glyph unicode="^" horiz-adv-x="667" d="M4 1094q2 35 39 77l227 279q25 31 62 31t61 -31l228 -279q37 -43 38 -77q0 -25 -16 -40.5t-45 -15.5q-16 0 -30.5 8.5t-20.5 18.5l-215 266l-215 -266q-6 -10 -20.5 -18.5t-30.5 -8.5q-29 0 -45.5 15.5t-16.5 40.5z" />
<glyph unicode="_" horiz-adv-x="1228" d="M-70 -410q0 35 25 57.5t55 22.5h1209q31 0 55 -22.5t24 -57.5t-22.5 -57t-56.5 -22h-1209q-35 0 -57.5 22.5t-22.5 56.5z" />
<glyph unicode="`" horiz-adv-x="403" d="M55 1423q0 29 20.5 48.5t43.5 19.5q29 0 41 -13.5t35 -33.5l159 -166q10 -12 11 -31q0 -33 -20.5 -52t-47.5 -19q-20 0 -34.5 10t-31.5 26l-165 177q-6 8 -8.5 17t-2.5 17z" />
<glyph unicode="a" horiz-adv-x="987" d="M92 293v8q0 303 361 303q109 0 206 -29v117q0 219 -219 219q-53 0 -87 -12t-68 -31q-4 -2 -20.5 -9t-33.5 -7q-29 0 -42 22.5t-15 45.5q-1 5 -1 10q-1 28 21 50q24 26 66.5 42t95 23.5t105.5 7.5q193 0 275.5 -104.5t82.5 -309.5v-451q0 -61 37 -61q4 0 7 1t9 1 q29 0 44.5 -21.5t15.5 -48.5q0 -39 -29 -54t-63 -15q-51 0 -91 27.5t-63 74.5q-118 -108 -277 -108h-3q-160 0 -237 85t-77 224zM250 291q0 -72 39 -118t141 -46q66 0 121 21.5t108 68.5v221q-51 16 -106 23.5t-102 7.5q-63 0 -102.5 -13.5t-61 -37t-29.5 -54t-8 -65.5v-8z " />
<glyph unicode="b" horiz-adv-x="993" d="M152 307v1100q0 31 20.5 54.5t58.5 23.5q39 0 59.5 -23.5t20.5 -54.5v-438q57 41 123 62.5t150 21.5q88 0 148.5 -24.5t98 -67.5t54 -101.5t16.5 -126.5v-385q0 -78 -23.5 -144.5t-70.5 -115.5t-116.5 -76.5t-164.5 -27.5q-90 0 -159.5 25.5t-116.5 68.5t-72.5 102.5 t-25.5 126.5zM311 307q0 -84 57.5 -130t157.5 -46q111 0 163 57.5t52 159.5v385q0 86 -46 133t-150 47q-78 0 -134.5 -27.5t-99.5 -74.5v-504z" />
<glyph unicode="c" horiz-adv-x="804" d="M92 360v310q0 80 21.5 148.5t65.5 118.5t113.5 80t166.5 30q37 0 85 -6.5t93 -20.5t75.5 -38t30.5 -60q0 -29 -20.5 -49.5t-48.5 -20.5q-14 0 -33 6q-37 18 -75 32.5t-91 14.5q-121 0 -172 -61.5t-51 -173.5v-310q0 -113 51 -174t172 -61q53 0 91 14.5t75 32.5q18 6 33 6 q29 0 49 -20.5t20 -48.5q0 -37 -30.5 -60.5t-75.5 -38t-93 -20.5t-85 -6q-96 0 -166 29.5t-114 79.5t-65.5 119t-21.5 148z" />
<glyph unicode="d" horiz-adv-x="999" d="M92 371v260q0 92 16.5 167.5t56.5 130t105.5 85t163.5 30.5q51 0 111.5 -10t116.5 -28v401q0 33 20 55.5t59 22.5t59.5 -22.5t20.5 -55.5v-1174q0 -43 11.5 -71.5t41.5 -50.5q6 -10 10.5 -18.5t4.5 -22.5q0 -33 -22.5 -52.5t-49.5 -19.5q-35 0 -62.5 18.5t-45.5 46.5 q-68 -35 -140.5 -57t-150.5 -22q-162 0 -244 107.5t-82 279.5zM252 371q0 -244 199 -244q49 0 105 15.5t110 43.5q-4 12 -4 24.5v22.5v629q-51 23 -110.5 33t-96.5 10q-113 0 -158 -65.5t-45 -208.5v-260z" />
<glyph unicode="e" horiz-adv-x="890" d="M92 324v383q0 74 24.5 137t72 109t117 73t161.5 27q172 0 256 -90.5t84 -243.5q0 -141 -81 -222t-265 -81q-47 0 -101.5 4t-107.5 14v-121q0 -86 56 -137t167 -51q66 0 113 16.5t100 40.5q4 2 11.5 4t17.5 2q31 0 51 -21.5t20 -49.5q0 -37 -35.5 -62.5t-88 -41 t-109.5 -22.5t-98 -7q-86 0 -155 25.5t-115 71.5t-70.5 108.5t-24.5 134.5zM252 565q57 -8 120.5 -11t94.5 -3q57 0 93 14.5t56.5 38t26.5 54t6 61.5q0 100 -48 144t-138 44q-100 0 -155.5 -50t-55.5 -136v-156z" />
<glyph unicode="f" horiz-adv-x="673" d="M152 68v1032q0 98 27.5 168.5t74.5 118t112.5 71t143.5 27.5q12 0 43 -1t62.5 -9.5t56 -28t24.5 -53.5q0 -35 -23.5 -55.5t-54.5 -20.5q-27 0 -54 7t-70 7q-92 0 -137.5 -63.5t-45.5 -151.5v-127h213q31 0 52.5 -21.5t21.5 -54.5t-21.5 -54t-52.5 -21h-213v-770 q0 -33 -20.5 -55.5t-59.5 -22.5t-59 22.5t-20 55.5z" />
<glyph unicode="g" horiz-adv-x="1009" d="M92 -182q0 76 27.5 135t81.5 110q-35 35 -48.5 79t-13.5 79q0 37 15.5 82t62.5 86q-111 104 -111 289q0 80 23 148.5t69 118.5t114.5 79t160.5 29q72 0 140.5 -17.5t127.5 -52.5q35 63 82 91t82 28q33 0 54.5 -20.5t21.5 -51.5q0 -16 -5 -26.5t-9 -14.5 q-29 -29 -50.5 -49t-35 -40.5t-19.5 -46.5t-6 -62v-127q0 -78 -23.5 -145.5t-69.5 -117t-115.5 -78t-162.5 -28.5q-94 0 -161 27q-14 -27 -19.5 -51.5t-5.5 -43.5q0 -27 11.5 -44t27.5 -27.5t35.5 -14.5t36.5 -4h86q88 0 162.5 -18.5t130 -55t86 -94t30.5 -133.5 q0 -78 -31.5 -139.5t-88 -104.5t-133.5 -66.5t-167 -23.5q-86 0 -158.5 21.5t-124.5 61.5t-81 99.5t-29 133.5zM252 -160q0 -92 59.5 -141t177.5 -49q111 0 183.5 45t72.5 137q0 158 -245 158h-86q-47 0 -92 10q-70 -61 -70 -160zM266 674q0 -104 51.5 -168t167.5 -64 q111 0 161 57.5t50 159.5v129q0 16 1 31t3 29q-47 29 -98 45t-108 16q-115 0 -171.5 -60.5t-56.5 -174.5z" />
<glyph unicode="h" horiz-adv-x="1038" d="M152 63v1354q0 31 21.5 55.5t55.5 24.5q35 0 57.5 -22.5t22.5 -57.5v-450q53 41 118 63.5t138 22.5q164 0 242 -95.5t78 -244.5v-650q0 -35 -23.5 -57t-56.5 -22q-35 0 -57.5 22.5t-22.5 56.5v648q0 94 -41 143t-137 49q-63 0 -128 -28.5t-110 -88.5v-723 q0 -35 -21.5 -57t-56.5 -22t-57 22.5t-22 56.5z" />
<glyph unicode="i" horiz-adv-x="501" d="M152 1368q0 41 28.5 69.5t69.5 28.5t69.5 -28.5t28.5 -69.5t-28.5 -69.5t-69.5 -28.5t-69.5 28.5t-28.5 69.5zM170 63v904q0 33 22.5 56.5t57.5 23.5t57.5 -24t22.5 -56v-904q0 -35 -22.5 -57t-57.5 -22t-57.5 22.5t-22.5 56.5z" />
<glyph unicode="j" horiz-adv-x="501" d="M-66 -362q-3 12 -3 22q0 25 17 40q25 21 48 26q84 18 129 70t45 165v1006q0 33 22.5 56.5t57.5 23.5t57.5 -24t22.5 -56v-998q0 -162 -75 -262t-214 -121q-12 -2 -20.5 -2h-18.5q-25 0 -43 14.5t-25 39.5zM152 1368q0 41 28.5 69.5t69.5 28.5t69.5 -28.5t28.5 -69.5 t-28.5 -69.5t-69.5 -28.5t-69.5 28.5t-28.5 69.5z" />
<glyph unicode="k" horiz-adv-x="899" d="M152 63v1342q0 35 22.5 57.5t56.5 22.5q35 0 57.5 -22.5t22.5 -57.5v-764l371 385q8 10 21.5 14t27.5 4q33 0 54.5 -21.5t21.5 -51.5q0 -33 -21 -53l-301 -308l346 -512q6 -10 9.5 -23.5t3.5 -23.5q-2 -31 -23.5 -49t-52.5 -18q-41 0 -66 39l-317 483l-74 -76v-367 q0 -35 -22.5 -57t-57.5 -22t-57 22.5t-22 56.5z" />
<glyph unicode="l" horiz-adv-x="466" d="M152 193v1212q0 33 22.5 56.5t56.5 23.5q35 0 57.5 -22.5t22.5 -57.5v-1212q0 -35 5.5 -56.5t23.5 -40.5q4 -6 9 -16t5 -23q0 -31 -21.5 -52t-51.5 -21q-18 0 -41 7t-42.5 28.5t-32.5 62.5t-13 111z" />
<glyph unicode="m" horiz-adv-x="1593" d="M106 944q0 31 22 51.5t54 20.5q27 0 46.5 -15.5t35.5 -39.5q68 43 143.5 67.5t155.5 24.5q86 0 142.5 -27t95.5 -78q66 49 138.5 77t158.5 28q166 0 254 -96.5t88 -251.5v-642q0 -33 -19.5 -55t-60.5 -22t-60.5 22.5t-19.5 54.5v637q0 86 -46 145.5t-140 59.5 q-66 0 -127.5 -30.5t-98.5 -77.5q10 -47 11 -92v-642q0 -33 -19.5 -55t-60.5 -22t-60.5 22.5t-19.5 54.5v594q0 55 -6 100.5t-24.5 78t-51.5 51t-88 18.5q-68 0 -131.5 -24.5t-106.5 -57.5q6 -37 6 -63v-697q0 -33 -19 -55t-60 -22t-60.5 22.5t-19.5 54.5v697q0 43 -3 65.5 t-8.5 37t-12.5 21.5t-13 19q-4 6 -9.5 15.5t-5.5 25.5z" />
<glyph unicode="n" horiz-adv-x="1042" d="M106 944q0 31 22 51.5t54 20.5q29 0 49.5 -16.5t36.5 -43.5q68 47 143.5 70t149.5 23q164 0 245 -106.5t81 -280.5v-599q0 -33 -20.5 -55t-59.5 -22t-59.5 22.5t-20.5 54.5v599q0 117 -48 180t-140 63q-59 0 -116.5 -22.5t-111.5 -63.5q6 -35 6 -59v-697q0 -33 -19 -55 t-60 -22t-60.5 22.5t-19.5 54.5v697q0 43 -3 65.5t-8.5 37t-12.5 21.5t-13 19q-4 6 -9.5 15.5t-5.5 25.5z" />
<glyph unicode="o" horiz-adv-x="950" d="M92 348v342q0 76 24.5 142.5t73 115.5t120 78t165.5 29t166 -29t120 -78t72.5 -115.5t24.5 -142.5v-342q0 -78 -24.5 -144.5t-72.5 -115.5t-120 -76.5t-166 -27.5t-165.5 27.5t-120 76.5t-73 115.5t-24.5 144.5zM252 348q0 -102 56 -159.5t167 -57.5t167 57.5t56 159.5 v344q0 100 -56 157.5t-167 57.5t-167 -57t-56 -158v-344z" />
<glyph unicode="p" horiz-adv-x="978" d="M111 940q0 33 22.5 52.5t48.5 19.5q25 0 44.5 -13.5t35.5 -35.5q70 37 144.5 63.5t154.5 26.5q162 0 244 -107.5t82 -279.5v-267q0 -92 -16.5 -167.5t-56.5 -130t-105.5 -85t-163.5 -30.5q-53 0 -112.5 10t-115.5 29v-387q0 -33 -20.5 -55.5t-58.5 -22.5 q-39 0 -59.5 22.5t-20.5 55.5v1118q0 51 -7.5 82.5t-25.5 60.5q-6 10 -10 18.5t-4 22.5zM307 840q10 -51 10 -84v-588q49 -23 108.5 -33t98.5 -10q113 0 158 65.5t45 208.5v267q0 243 -197 243h-2q-53 0 -110.5 -18.5t-110.5 -50.5z" />
<glyph unicode="q" horiz-adv-x="993" d="M92 358v324q0 78 23.5 145.5t70.5 117.5t117 79t164 29q88 0 158.5 -26t118 -71t73 -104t25.5 -129v-1085q0 -33 -19.5 -55.5t-60.5 -22.5t-60.5 22.5t-19.5 55.5v423q-55 -35 -119.5 -55t-142.5 -20q-92 0 -155.5 28.5t-101.5 77.5t-54.5 118t-16.5 148zM252 358 q0 -111 45 -172t156 -61q63 0 122.5 22.5t106.5 71.5v504q0 86 -57.5 134t-157.5 48q-111 0 -163 -59.5t-52 -163.5v-324z" />
<glyph unicode="r" horiz-adv-x="690" d="M111 940q0 33 22.5 52.5t50.5 19.5q25 0 45.5 -15.5t36.5 -40.5q66 41 143.5 64.5t137.5 23.5q61 0 83.5 -22.5t22.5 -54.5q0 -39 -23.5 -61.5t-56.5 -20.5h-22q-51 1 -101 -7q-60 -10 -137 -67q2 -16 3 -29.5t1 -25.5v-693q0 -35 -22.5 -57t-56.5 -22q-35 0 -57.5 22.5 t-22.5 56.5v693q0 51 -7.5 82.5t-25.5 60.5q-6 10 -10 18.5t-4 22.5z" />
<glyph unicode="s" horiz-adv-x="831" d="M96 102q0 27 19.5 50.5t56.5 23.5q10 0 13 -1t8 -3q43 -16 93 -31.5t111 -15.5q86 0 137.5 36t51.5 115q0 55 -22.5 83t-53.5 44q-49 27 -117.5 47.5t-131 55.5t-107.5 92.5t-45 159.5q0 133 83.5 214t247.5 81q39 0 87 -6.5t89 -19.5t69 -34.5t28 -54.5 q0 -29 -20.5 -51.5t-53.5 -22.5q-16 0 -37 10q-33 16 -66.5 26.5t-89.5 10.5q-182 0 -182 -143q0 -47 21.5 -75.5t74.5 -55.5t119 -47.5t124.5 -56t98 -93t39.5 -157.5q0 -139 -86 -219t-258 -80q-39 0 -91 5t-98 18t-79 37t-33 58z" />
<glyph unicode="t" horiz-adv-x="657" d="M152 416v856q0 33 20.5 55.5t58.5 22.5q39 0 59.5 -22.5t20.5 -55.5v-283h213q31 0 52.5 -21.5t21.5 -54.5t-21.5 -54t-52.5 -21h-213v-408q0 -80 5.5 -134t23.5 -89t51 -50.5t88 -15.5q10 0 19.5 1t19.5 1q18 0 36.5 -2t34 -10t26 -22.5t10.5 -38.5q0 -27 -10.5 -42.5 t-27 -23.5t-38 -10t-41.5 -2q-109 0 -177.5 26.5t-108.5 80t-55 132t-15 185.5z" />
<glyph unicode="u" horiz-adv-x="1042" d="M152 371v598q0 33 20.5 55.5t58.5 22.5q39 0 59.5 -23t20.5 -55v-598q0 -117 48.5 -180.5t140.5 -63.5q59 0 116.5 17.5t108.5 50.5q-2 16 -3 30.5t-1 26.5v717q0 33 19.5 55.5t60.5 22.5t60.5 -23t19.5 -55v-717q0 -43 3 -65.5t9 -37t12 -21.5t13 -19q4 -6 9 -16.5 t5 -24.5q0 -29 -21.5 -50.5t-54.5 -21.5q-29 0 -50.5 16.5t-37.5 44.5q-68 -39 -143.5 -56t-147.5 -17q-164 0 -244.5 106.5t-80.5 280.5z" />
<glyph unicode="v" horiz-adv-x="880" d="M55 952q-4 11 -4 22q-1 24 19 44q28 29 63 29q23 0 42.5 -13.5t29.5 -40.5l239 -772l236 772q8 23 28.5 38.5t43.5 15.5q38 0 62 -30q17 -21 16 -47q0 -12 -3 -24l-278 -866q-16 -51 -40 -73.5t-65 -22.5t-64.5 22.5t-39.5 71.5z" />
<glyph unicode="w" horiz-adv-x="1341" d="M51 971q0 29 22.5 52.5t57.5 23.5q25 0 45.5 -14.5t28.5 -43.5l192 -753q47 186 92.5 368t92.5 371q8 31 31.5 51.5t60.5 20.5q35 0 57.5 -20.5t30.5 -51.5q45 -188 92 -370.5t94 -368.5l191 753q6 25 26.5 41.5t46.5 16.5q31 0 54.5 -23t23.5 -57q0 -4 -1 -7.5t-1 -7.5 l-235 -876q-14 -47 -36 -69.5t-67 -22.5q-33 0 -58.5 17t-35.5 52l-184 719l-183 -719q-20 -69 -94 -69h-2q-41 0 -65.5 24.5t-36.5 67.5l-238 882q-2 4 -2 13z" />
<glyph unicode="x" horiz-adv-x="882" d="M51 63q0 18 10 35l287 426l-268 406q-12 14 -12 35q0 33 22.5 57.5t56.5 24.5q35 0 54.5 -24t36.5 -46l206 -318l215 334q16 25 32 39.5t44 14.5q29 0 53.5 -21.5t24.5 -54.5q0 -10 -2 -19.5t-8 -19.5l-268 -404l286 -426q10 -16 10 -34q0 -35 -22.5 -59.5t-58.5 -24.5 q-29 0 -44.5 13t-33.5 42l-232 356l-241 -370q-27 -41 -66 -41q-35 0 -58.5 22.5t-23.5 56.5z" />
<glyph unicode="y" horiz-adv-x="843" d="M33 957.5v15.5q0 33 22.5 53.5t57.5 20.5q23 0 42 -13.5t29 -40.5l256 -776l224 776q10 27 30.5 40.5t42.5 13.5q31 0 55.5 -23t24.5 -57q0 -8 -4 -25l-250 -813q-37 -121 -72.5 -219t-85 -170t-117 -113t-167.5 -43q-35 0 -58.5 21.5t-23.5 56.5q0 29 20.5 51.5 t55.5 24.5q49 2 85 17.5t64.5 47t52 80.5t45.5 121l-325 940q-4 4 -4 13.5z" />
<glyph unicode="z" horiz-adv-x="786" d="M31 86q0 29 14 51l508 750h-428q-31 0 -52.5 21.5t-21.5 52.5q0 33 21.5 53t52.5 20h543q35 0 59.5 -21.5t24.5 -60.5q0 -31 -19 -57l-506 -748h453q33 0 54.5 -21.5t21.5 -51.5q0 -31 -21.5 -52.5t-54.5 -21.5h-567q-33 0 -57.5 24.5t-24.5 61.5z" />
<glyph unicode="{" horiz-adv-x="854" d="M63 494q0 37 23 55t57 18q78 0 117 44t45 141q6 94 11.5 193t11.5 185q8 117 97 184.5t224 67.5q20 0 43 -3t39.5 -12t27.5 -26.5t11 -46.5q0 -27 -9 -40t-21.5 -18t-28 -5t-27.5 2t-28.5 3t-26.5 1q-53 0 -97.5 -34t-48.5 -97l-16 -342q-4 -96 -41 -166t-107 -104 q70 -35 107 -105t41 -166l16 -342q4 -63 47 -97t97 -34q10 0 27.5 1t29.5 3t27.5 2t28 -5t21.5 -18.5t9 -39.5q0 -29 -11 -46.5t-27.5 -26.5t-39 -12t-43.5 -3q-135 0 -224 67.5t-97 184.5l-23 379q-6 96 -45 140t-117 44q-35 0 -57.5 18.5t-22.5 55.5z" />
<glyph unicode="|" horiz-adv-x="464" d="M158 -418v1899q0 29 21.5 51t51.5 22q31 0 52.5 -22.5t21.5 -50.5v-1899q0 -29 -21.5 -51.5t-52.5 -22.5t-52 23t-21 51z" />
<glyph unicode="}" horiz-adv-x="854" d="M84 -307q0 27 9 40t21.5 18t28 5t27.5 -2t29.5 -3t27.5 -1q53 0 96.5 34t47.5 97l16 342q4 96 40 166t105 105q-70 35 -105.5 104.5t-39.5 165.5l-16 342q-4 63 -48 97t-98 34q-10 0 -26.5 -1t-28.5 -3t-27.5 -2t-28 5t-21.5 18.5t-9 39.5q0 29 11 46.5t27.5 26.5t38 12 t44.5 3q135 0 224 -67.5t97 -184.5q6 -86 11.5 -185t11.5 -193q6 -96 45 -140.5t117 -44.5q35 0 57.5 -18.5t22.5 -54.5q0 -37 -22.5 -55.5t-57.5 -18.5q-78 0 -117 -44t-45 -140l-23 -379q-8 -117 -97 -184.5t-224 -67.5q-23 0 -44.5 3t-38 12t-27.5 26.5t-11 46.5z" />
<glyph unicode="~" horiz-adv-x="929" d="M125 651q0 33 16.5 62.5t45 51t64.5 34t77 12.5q39 0 70.5 -11.5t60 -25.5t56.5 -27.5t58 -15.5q35 0 55.5 9.5t36 21.5t30 23.5t36.5 15.5q29 0 51.5 -22.5t22.5 -57.5q0 -33 -19.5 -59.5t-49 -46t-65.5 -31t-69 -13.5q-39 0 -71.5 11.5t-62.5 26t-57.5 26.5t-54.5 16 q-35 0 -55 -10t-36.5 -23.5t-31 -23.5t-34.5 -10q-29 0 -49.5 18.5t-24.5 48.5z" />
<glyph unicode="&#xa2;" d="M147 422v207q0 74 18.5 137t56.5 113.5t96.5 82t140.5 39.5v91q0 23 15 38t38 15t38 -15.5t15 -37.5v-88q37 -4 78 -12.5t76 -23t57.5 -36t22.5 -51.5q0 -29 -20.5 -49.5t-49.5 -20.5q-14 0 -33 6q-31 16 -61.5 28.5t-69.5 16.5v-676q39 4 70 17.5t61 29.5q18 6 33 7 q29 0 49.5 -20.5t20.5 -49.5q0 -31 -22.5 -52.5t-57.5 -36.5t-76 -23.5t-78 -10.5v-104q0 -23 -15 -38.5t-38 -15.5t-38 15.5t-15 38.5v104q-82 8 -140.5 40t-96.5 82t-56.5 114.5t-18.5 138.5zM307 422q0 -94 35 -152.5t117 -76.5v663q-82 -16 -117 -74.5t-35 -152.5v-207z " />
<glyph unicode="&#xa5;" horiz-adv-x="974" d="M31 1380q0 35 25.5 59.5t58.5 24.5q18 0 35.5 -8t27.5 -24l309 -674l310 674q10 16 27.5 24t35.5 8q33 0 58.5 -24.5t25.5 -59.5q0 -18 -8 -39l-277 -585h154q31 0 55.5 -21.5t24.5 -54.5t-22.5 -54.5t-57.5 -21.5h-223l-19 -41v-74h242q31 0 55.5 -21.5t24.5 -53.5 q0 -33 -22.5 -54.5t-57.5 -21.5h-242v-272q0 -35 -24.5 -60.5t-59.5 -25.5t-59.5 25.5t-24.5 60.5v272h-241q-35 0 -57.5 21.5t-22.5 54.5t24.5 54t55.5 21h241v78l-18 37h-223q-35 0 -57.5 21.5t-22.5 54.5t24.5 54.5t55.5 21.5h151l-274 585q-8 20 -8 39z" />
<glyph unicode="&#xa8;" horiz-adv-x="825" d="M147 1309q0 39 27 67.5t68 28.5t69.5 -27.5t28.5 -68.5t-28.5 -71t-69.5 -30t-68 30t-27 71zM492 1309q0 39 28.5 67.5t69.5 28.5t68.5 -27.5t27.5 -68.5t-27.5 -71t-68.5 -30t-69.5 30t-28.5 71z" />
<glyph unicode="&#xa9;" horiz-adv-x="1515" d="M131 641q0 145 41 266t121 209t196.5 136t268.5 48t268.5 -48t196.5 -136t120.5 -209t40.5 -266t-40.5 -266t-120.5 -209t-197 -136t-268 -48q-152 0 -268.5 48t-196.5 136t-121 209t-41 266zM254 641q0 -119 32.5 -217t97.5 -169t158 -111t216 -40t216 40t157.5 111 t97.5 169t33 217t-33 217t-97.5 169t-157.5 111t-216 40t-216 -40t-158 -111t-97.5 -169t-32.5 -217zM483 580q0 -63 17.5 -118.5t52.5 -95.5t90 -63.5t133 -23.5q29 0 68 5t74.5 16t60.5 29.5t25 47.5q0 23 -16.5 40t-39.5 17q-12 0 -26 -6q-29 -14 -58.5 -25.5 t-72.5 -11.5q-98 0 -139.5 48t-41.5 141v125q0 90 41 139t140 49q43 0 72.5 -11.5t58.5 -27.5q8 -2 14 -3t12 -1q23 0 39.5 16.5t16.5 38.5q0 29 -25 48.5t-60.5 30.5t-74.5 16.5t-68 5.5q-78 0 -133 -24t-90 -64.5t-52.5 -95t-17.5 -117.5v-125z" />
<glyph unicode="&#xab;" horiz-adv-x="882" d="M84 524l311 469q16 25 31.5 39.5t44.5 14.5t53.5 -21.5t24.5 -54.5q0 -10 -2 -19.5t-8 -19.5l-269 -404l287 -426q10 -16 10 -34q0 -35 -22.5 -59.5t-59.5 -24.5q-29 0 -44 13t-33 42zM412 524l233 353q16 25 31.5 39t44.5 14t53.5 -21.5t24.5 -54.5q0 -10 -2 -19.5 t-9 -19.5l-190 -291l190 -291q10 -16 11 -38q0 -33 -24.5 -54.5t-53.5 -21.5t-44 14t-32 39z" />
<glyph unicode="&#xad;" horiz-adv-x="817" d="M78 604q0 31 21.5 53.5t54.5 22.5h510q31 0 52 -22.5t21 -53.5t-21.5 -52.5t-51.5 -21.5h-510q-33 0 -54.5 21.5t-21.5 52.5z" />
<glyph unicode="&#xae;" horiz-adv-x="1433" d="M131 866q0 135 38 249t111.5 196t183 128t253.5 46q143 0 252.5 -46t183.5 -128t112 -196t38 -249q0 -131 -38 -240.5t-112 -189.5t-183.5 -124t-252.5 -44t-253 44t-183.5 124t-111.5 189.5t-38 240.5zM254 866q0 -104 29.5 -191t88 -150.5t145.5 -98.5t200 -35t200 35 t145 98.5t88 150.5t30 191q0 109 -30 200t-88 156.5t-145.5 102.5t-199.5 37q-113 0 -200 -37t-145.5 -102.5t-88 -156.5t-29.5 -200zM496 606q0 -23 18 -37t41 -14q25 0 44 15.5t19 35.5v191h97l141 -222q16 -20 53 -20q18 0 42 11.5t24 27.5q0 10 -1 12t-5 12l-131 199 q49 23 77.5 67.5t28.5 110.5q0 37 -11 74t-38 65.5t-70 46t-104 17.5h-158q-27 0 -47 -20.5t-20 -49.5v-522zM618 915v162h99q66 0 85 -26.5t19 -55.5q0 -80 -98 -80h-105z" />
<glyph unicode="&#xb4;" horiz-adv-x="565" d="M158 1247q0 18 10 31l160 166q23 20 35 33.5t40 13.5q23 0 43.5 -19.5t20.5 -48.5q0 -8 -2 -17t-8 -17l-166 -177q-18 -16 -31.5 -26t-34.5 -10q-29 0 -48 19t-19 52z" />
<glyph unicode="&#xb8;" horiz-adv-x="614" d="M115 -369.5q-6 15.5 4 33.5q14 27 38.5 20.5t69.5 -16.5q37 -6 63.5 -1t44 18.5t26 32t8.5 34.5q0 37 -32 53.5t-91 20.5q-47 4 -64.5 16.5t-11.5 48.5l27 150h100l-21 -123q127 -2 176.5 -51t49.5 -129q0 -37 -17.5 -73t-53.5 -60.5t-89 -35.5t-125 -1q-25 2 -46 11 t-35.5 22.5t-20.5 29z" />
<glyph unicode="&#xbb;" horiz-adv-x="882" d="M84 195q0 23 10 38l191 291l-191 291q-6 10 -8 19.5t-2 19.5q0 33 24.5 54.5t53.5 21.5t44 -14.5t32 -38.5l233 -353l-233 -352q-16 -25 -32 -39t-44 -14q-29 0 -53.5 21.5t-24.5 54.5zM315 68q0 18 11 34l286 426l-268 404q-6 10 -8 19.5t-2 19.5q0 33 24.5 54.5 t53.5 21.5t44 -14.5t31 -39.5l312 -469l-324 -485q-18 -29 -33.5 -42t-44.5 -13q-37 0 -59.5 24.5t-22.5 59.5z" />
<glyph unicode="&#x2c6;" horiz-adv-x="811" d="M160 1219q0 16 10 31.5t27 29.5l161 137q10 6 20.5 11.5t24.5 5.5t24.5 -5.5t21.5 -11.5l161 -137q16 -14 26.5 -29.5t10.5 -31.5q0 -20 -15.5 -37t-37.5 -17q-8 0 -20.5 3t-16.5 10l-154 125l-153 -125q-4 -6 -16.5 -9.5t-22.5 -3.5q-20 0 -35.5 16.5t-15.5 37.5z" />
<glyph unicode="&#x2da;" horiz-adv-x="1169" d="M373 1319q0 43 15 80t43 64.5t66 43t81 15.5q86 0 144 -58.5t58 -144.5t-58 -144.5t-144 -58.5q-43 0 -81 15.5t-66 43t-43 64.5t-15 80zM467 1319q0 -47 31.5 -79t79.5 -32q47 0 78.5 32t31.5 79t-31.5 80t-78.5 33t-79 -33t-32 -80z" />
<glyph unicode="&#x2dc;" horiz-adv-x="768" d="M117 1272q0 29 14 53.5t36.5 41.5t53.5 27.5t64 10.5t59.5 -9.5t51 -21.5t47 -22.5t46.5 -12.5q29 0 46.5 8.5t30 18.5t24.5 19.5t31 11.5q25 0 43 -18.5t18 -47.5q0 -27 -16.5 -49t-41 -38.5t-54 -26t-56.5 -11.5q-33 0 -60.5 9.5t-52 21.5t-47 22.5t-45.5 12.5 q-29 0 -46 -8.5t-30.5 -19.5t-25.5 -19t-29 -8q-23 0 -40 15t-21 40z" />
<glyph unicode="&#x400;" horiz-adv-x="970" d="M150 0zM150 96v1252q0 35 27.5 65.5t68.5 30.5h555q35 0 58.5 -23.5t23.5 -58.5t-23.5 -56.5t-58.5 -21.5h-488v-479h449q31 0 55.5 -22.5t24.5 -57.5t-22.5 -57.5t-57.5 -22.5h-449v-485h508q33 0 57.5 -22.5t24.5 -53.5q0 -35 -23.5 -59.5t-58.5 -24.5h-542 q-51 0 -90 20.5t-39 75.5zM329 1835q0 29 20.5 48.5t43.5 19.5q29 0 41 -13.5t35 -33.5l159 -166q10 -12 11 -31q0 -33 -20.5 -52t-47.5 -19q-20 0 -34.5 10t-31.5 26l-165 177q-6 8 -8.5 17t-2.5 17z" />
<glyph unicode="&#x401;" horiz-adv-x="970" d="M150 0zM150 96v1252q0 35 27.5 65.5t68.5 30.5h555q35 0 58.5 -23.5t23.5 -58.5t-23.5 -56.5t-58.5 -21.5h-488v-479h449q31 0 55.5 -22.5t24.5 -57.5t-22.5 -57.5t-57.5 -22.5h-449v-485h508q33 0 57.5 -22.5t24.5 -53.5q0 -35 -23.5 -59.5t-58.5 -24.5h-542 q-51 0 -90 20.5t-39 75.5zM278 1721q0 39 27 67.5t68 28.5t69.5 -27.5t28.5 -68.5t-28.5 -71t-69.5 -30t-68 30t-27 71zM623 1721q0 39 28.5 67.5t69.5 28.5t68.5 -27.5t27.5 -68.5t-27.5 -71t-68.5 -30t-69.5 30t-28.5 71z" />
<glyph unicode="&#x402;" horiz-adv-x="1318" d="M51 1364q0 29 23.5 55.5t58.5 26.5h721q33 0 58.5 -22.5t25.5 -57.5q0 -33 -24.5 -56.5t-59.5 -23.5h-360v-428q61 29 130.5 41t135.5 12q205 0 317.5 -115.5t112.5 -346.5q0 -109 -24.5 -195t-71.5 -147.5t-114 -94t-149 -32.5q-92 0 -150 35.5t-58 86.5q0 31 21.5 51.5 t49.5 20.5q16 0 25.5 -5t21 -12t27.5 -12.5t47 -5.5q100 0 155.5 73t55.5 232q0 170 -67.5 239t-210.5 69q-68 0 -134.5 -14.5t-119.5 -43.5v-633q0 -33 -24 -57t-58 -24q-35 0 -58.5 24.5t-23.5 56.5v1225h-197q-35 0 -58.5 24.5t-23.5 53.5z" />
<glyph unicode="&#x403;" horiz-adv-x="880" d="M150 0zM150 63v1291q0 35 25.5 63.5t66.5 28.5h557q35 0 57.5 -23.5t22.5 -56.5q0 -35 -22.5 -57.5t-57.5 -22.5h-486v-1223q0 -33 -23.5 -57t-58.5 -24t-58 24.5t-23 56.5zM447 1659q0 18 10 31l160 166q23 20 35 33.5t40 13.5q23 0 43.5 -19.5t20.5 -48.5q0 -8 -2 -17 t-8 -17l-166 -177q-18 -16 -31.5 -26t-34.5 -10q-29 0 -48 19t-19 52z" />
<glyph unicode="&#x404;" horiz-adv-x="987" d="M92 504v438q0 119 27.5 215t84 165t143.5 105.5t206 36.5q70 0 135.5 -14t115.5 -37.5t80.5 -55.5t30.5 -69q0 -29 -20.5 -50t-52.5 -21q-23 0 -36 9t-38 25q-90 63 -205 64q-86 0 -145.5 -25.5t-95 -75t-51 -118t-15.5 -154.5v-137h381q31 0 54.5 -22.5t23.5 -57.5 t-21.5 -58.5t-56.5 -23.5h-381v-139q0 -86 15.5 -154.5t51 -118t95 -75t145.5 -25.5q115 0 205 64q27 16 39 25t35 9q33 0 53 -21.5t20 -49.5q0 -37 -30.5 -69t-80.5 -55.5t-115.5 -37.5t-135.5 -14q-119 0 -206 36.5t-143.5 105.5t-84 165t-27.5 215z" />
<glyph unicode="&#x405;" horiz-adv-x="995" d="M84 0zM84 131q0 31 21.5 55.5t52.5 24.5q20 0 49 -11.5t65.5 -24.5t83.5 -24.5t107 -11.5q137 0 205.5 65.5t68.5 186.5q0 49 -11 84t-27.5 59.5t-38 39t-39.5 24.5q-49 25 -107.5 44.5t-118 42t-115 50t-99.5 71.5t-69.5 106.5t-25.5 152.5q0 186 110.5 292.5 t303.5 106.5q39 0 98 -6t115.5 -21.5t96.5 -42t40 -69.5q0 -31 -21.5 -54.5t-60.5 -23.5q-25 0 -47.5 9.5t-52 19.5t-67.5 19.5t-89 9.5q-49 0 -95 -11.5t-82 -37t-57.5 -69.5t-21.5 -112q0 -51 12.5 -86t29.5 -58.5t37.5 -37.5t39.5 -23q49 -25 107.5 -45t117.5 -41.5 t115.5 -49t99.5 -72t68.5 -105.5t25.5 -151q0 -102 -33.5 -181.5t-94 -133.5t-142.5 -82.5t-178 -28.5q-49 0 -114.5 8t-124 26.5t-98.5 47t-40 69.5z" />
<glyph unicode="&#x406;" horiz-adv-x="464" d="M150 0zM150 61v1321q0 33 23.5 57.5t57.5 24.5q35 0 58.5 -24.5t23.5 -57.5v-1321q0 -33 -23.5 -57t-58.5 -24t-58 24.5t-23 56.5z" />
<glyph unicode="&#x407;" horiz-adv-x="464" d="M-35 1721q0 39 27 67.5t68 28.5t69.5 -27.5t28.5 -68.5t-28.5 -71t-69.5 -30t-68 30t-27 71zM0 0zM150 61v1321q0 33 23.5 57.5t57.5 24.5q35 0 58.5 -24.5t23.5 -57.5v-1321q0 -33 -23.5 -57t-58.5 -24t-58 24.5t-23 56.5zM310 1721q0 39 28.5 67.5t69.5 28.5 t68.5 -27.5t27.5 -68.5t-27.5 -71t-68.5 -30t-69.5 30t-28.5 71z" />
<glyph unicode="&#x408;" horiz-adv-x="788" d="M51 0zM51 72q0 39 24.5 59.5t47.5 20.5q16 0 47 -7.5t78 -7.5q70 0 115 22.5t69.5 64.5t33.5 102.5t9 134.5v921q0 35 23.5 58.5t58.5 23.5q33 0 57.5 -24.5t24.5 -57.5v-921q0 -113 -20.5 -202t-67.5 -151.5t-127 -95t-199 -32.5q-23 0 -52.5 2t-56 11t-46 27.5 t-19.5 51.5z" />
<glyph unicode="&#x409;" horiz-adv-x="1796" d="M20 66q0 45 24 64.5t52 19.5q20 0 27.5 -3.5t30.5 -3.5q55 0 81.5 46.5t34.5 144.5l74 1032q4 45 29.5 62.5t48.5 17.5h553q33 0 57.5 -23.5t24.5 -56.5v-453h192q211 0 336 -116.5t125 -335.5q0 -90 -24.5 -173t-79 -147.5t-142.5 -102.5t-215 -38h-260 q-41 0 -69.5 28.5t-28.5 69.5v1076h2v112h-397l-64 -940q-10 -164 -70.5 -263t-185.5 -99q-31 0 -58.5 2t-49 9t-35 23.5t-13.5 47.5zM1055 160h194q90 0 148.5 25.5t91.5 68.5t45 96t12 109q0 152 -74.5 223.5t-222.5 71.5h-192v-486h-2v-108z" />
<glyph unicode="&#x40a;" horiz-adv-x="1736" d="M150 63v1319q0 33 23.5 57.5t57.5 24.5q35 0 58.5 -24.5t23.5 -57.5v-579h518v575q0 35 25 60.5t57 25.5q35 0 58.5 -25.5t23.5 -60.5v-465h195q211 0 336 -116.5t125 -335.5q0 -90 -24.5 -173t-79 -147.5t-142.5 -102.5t-215 -38h-260q-41 0 -70 28.5t-29 69.5v545h-518 v-580q0 -35 -23.5 -59t-58.5 -24t-58 24.5t-23 58.5zM995 160h195q90 0 148.5 25.5t91 68.5t45 96t12.5 109q0 152 -75 223.5t-222 71.5h-195v-594z" />
<glyph unicode="&#x40b;" horiz-adv-x="1318" d="M51 1366q0 27 23.5 53.5t58.5 26.5h721q33 0 58.5 -22.5t25.5 -57.5q0 -33 -24.5 -56.5t-59.5 -23.5h-360v-428q61 29 130.5 41t135.5 12q205 0 317.5 -116.5t112.5 -335.5v-393q0 -35 -23.5 -60.5t-58.5 -25.5q-33 0 -57.5 25.5t-24.5 60.5v391q0 160 -69.5 227.5 t-211.5 67.5q-66 0 -132 -14.5t-119 -43.5v-633q0 -33 -24 -57t-58 -24q-35 0 -58.5 24.5t-23.5 56.5v1225h-197q-35 0 -58.5 23.5t-23.5 56.5z" />
<glyph unicode="&#x40c;" horiz-adv-x="1056" d="M150 0zM150 63v1319q0 33 23.5 57.5t57.5 24.5q35 0 58.5 -24.5t23.5 -57.5v-579h119l428 622q27 39 68 39q37 0 57.5 -29.5t20.5 -58.5q0 -20 -11 -39l-430 -616l430 -615q10 -18 11 -38q0 -29 -20.5 -58.5t-57.5 -29.5q-41 0 -68 38l-430 625h-117v-580 q0 -35 -23.5 -59t-58.5 -24t-58 24.5t-23 58.5zM484 1659q0 18 10 31l160 166q23 20 35 33.5t40 13.5q23 0 43.5 -19.5t20.5 -48.5q0 -8 -2 -17t-8 -17l-166 -177q-18 -16 -31.5 -26t-34.5 -10q-29 0 -48 19t-19 52z" />
<glyph unicode="&#x40d;" horiz-adv-x="1206" d="M150 0zM150 70v1310q0 35 22.5 59.5t56.5 24.5q35 0 59.5 -24.5t24.5 -59.5v-1044l570 1079q12 23 35.5 36t50.5 13q39 0 63.5 -25.5t24.5 -64.5v-1311q0 -35 -22.5 -59t-57.5 -24t-59.5 24.5t-24.5 58.5v1045l-569 -1081q-12 -23 -35.5 -35t-48.5 -12q-41 0 -65.5 26.5 t-24.5 63.5zM348 1835q0 29 20.5 48.5t43.5 19.5q29 0 41 -13.5t35 -33.5l159 -166q10 -12 11 -31q0 -33 -20.5 -52t-47.5 -19q-20 0 -34.5 10t-31.5 26l-165 177q-6 8 -8.5 17t-2.5 17z" />
<glyph unicode="&#x40e;" horiz-adv-x="1030" d="M51 0zM51 1375v16q0 33 22.5 53t57.5 20q23 0 42.5 -13t29.5 -40l317 -856l305 856q10 27 31 40t43 13q31 0 55.5 -22.5t24.5 -57.5q0 -16 -4 -24l-332 -893q-37 -106 -72.5 -194.5t-85 -152t-117 -99t-167.5 -37.5q-35 0 -58.5 21.5t-23.5 55.5q0 29 20.5 51.5 t55.5 24.5q49 2 84.5 13.5t64.5 36t52.5 62.5t45.5 93l-387 1020q-4 4 -4 13zM264 1749q-10 41 9.5 58.5t45.5 17.5q16 0 33.5 -8t28.5 -25q33 -47 65.5 -65.5t67.5 -18.5t67.5 18.5t65.5 65.5q10 16 27.5 24.5t33.5 8.5q27 0 45.5 -17.5t8.5 -58.5t-37 -72.5t-63 -52 t-74.5 -31t-73.5 -10.5t-74 10.5t-75 31t-63.5 52t-37.5 72.5z" />
<glyph unicode="&#x40f;" horiz-adv-x="1185" d="M150 82v1300q0 35 23.5 59.5t57.5 24.5q35 0 58.5 -24.5t23.5 -59.5v-1222h559v1222q0 35 25 59.5t57 24.5q35 0 58.5 -24.5t23.5 -59.5v-1300q0 -33 -24.5 -57.5t-57.5 -24.5h-280v-246q0 -33 -23.5 -57.5t-58.5 -24.5t-58.5 24.5t-23.5 57.5v246h-279q-35 0 -58 24.5 t-23 57.5z" />
<glyph unicode="&#x410;" horiz-adv-x="1124" d="M51 0zM51 61q0 6 1 16.5t3 14.5l400 1264q14 47 37.5 77.5t68.5 30.5q47 0 69.5 -30.5t39.5 -77.5l399 -1264q2 -4 3 -14t1 -17q0 -37 -24.5 -59t-61.5 -22q-23 0 -47.5 16t-32.5 45l-88 285h-518l-86 -285q-10 -29 -32.5 -45t-45.5 -16q-35 0 -60.5 22.5t-25.5 58.5z M350 485h422l-211 695z" />
<glyph unicode="&#x411;" horiz-adv-x="1087" d="M150 98v1256q0 35 25.5 63.5t66.5 28.5h598q35 0 57.5 -23.5t22.5 -56.5q0 -35 -23 -57.5t-57 -22.5h-527v-414h236q211 0 336 -110.5t125 -321.5q0 -86 -24.5 -165.5t-79 -140t-142.5 -97.5t-215 -37h-301q-41 0 -69.5 28.5t-28.5 69.5zM313 160h236q90 0 148.5 24.5 t91 63.5t45 89t12.5 101q0 274 -297 275h-236v-553z" />
<glyph unicode="&#x412;" horiz-adv-x="1110" d="M150 0zM150 98v1248q0 41 28.5 69.5t69.5 28.5h346q100 0 175 -32t125 -84t74.5 -118.5t24.5 -138.5q0 -66 -20.5 -117t-55 -90t-83 -67.5t-105.5 -53.5q51 -16 105.5 -37.5t98.5 -58.5t71.5 -94t27.5 -143t-30.5 -161t-89 -130.5t-140.5 -87t-186 -31.5h-338 q-41 0 -69.5 28.5t-28.5 69.5zM313 160h250q154 0 229.5 68.5t75.5 179.5q0 129 -89 195.5t-224 66.5h-242v-510zM313 829h236q49 0 99 14.5t90 45.5t65.5 77t25.5 107q0 41 -12 79t-40.5 67.5t-76 47t-116.5 17.5h-271v-455z" />
<glyph unicode="&#x413;" horiz-adv-x="880" d="M150 63v1291q0 35 25.5 63.5t66.5 28.5h557q35 0 57.5 -23.5t22.5 -56.5q0 -35 -22.5 -57.5t-57.5 -22.5h-486v-1223q0 -33 -23.5 -57t-58.5 -24t-58 24.5t-23 56.5z" />
<glyph unicode="&#x414;" horiz-adv-x="1286" d="M55 55q0 45 22.5 75t57.5 30h60q51 70 78.5 209t37.5 333l31 664q4 45 29.5 62.5t48.5 17.5h594q35 0 58.5 -23.5t23.5 -56.5v-1206h51q35 0 59.5 -30t24.5 -75v-262q0 -35 -24.5 -57.5t-59.5 -22.5t-57.5 22.5t-22.5 57.5v207h-852v-207q0 -35 -22.5 -57.5t-57.5 -22.5 t-57.5 22.5t-22.5 57.5v262zM354 160h578v1126h-436l-21 -584q-8 -174 -37.5 -312t-83.5 -230z" />
<glyph unicode="&#x415;" horiz-adv-x="970" d="M150 0zM150 96v1252q0 35 27.5 65.5t68.5 30.5h555q35 0 58.5 -23.5t23.5 -58.5t-23.5 -56.5t-58.5 -21.5h-488v-479h449q31 0 55.5 -22.5t24.5 -57.5t-22.5 -57.5t-57.5 -22.5h-449v-485h508q33 0 57.5 -22.5t24.5 -53.5q0 -35 -23.5 -59.5t-58.5 -24.5h-542 q-51 0 -90 20.5t-39 75.5z" />
<glyph unicode="&#x416;" horiz-adv-x="1527" d="M51 68q0 20 10 38l377 615l-377 616q-10 18 -10 39q0 29 20.5 58.5t57.5 29.5q41 0 68 -39l389 -622h96v579q0 33 23.5 57.5t58.5 24.5t58.5 -24.5t23.5 -57.5v-579h94l391 622q27 39 68 39q37 0 57.5 -29.5t20.5 -58.5q0 -20 -11 -39l-379 -616l379 -615q10 -18 11 -38 q0 -29 -20.5 -58.5t-57.5 -29.5q-41 0 -68 38l-391 625h-94v-580q0 -35 -23.5 -59t-58.5 -24t-58.5 24.5t-23.5 58.5v580h-94l-391 -625q-27 -39 -68 -38q-37 0 -57.5 29.5t-20.5 58.5z" />
<glyph unicode="&#x417;" horiz-adv-x="993" d="M61 152q0 31 21.5 52t50.5 21q10 0 18.5 -3t22.5 -11q55 -33 116.5 -58.5t151.5 -25.5q154 0 230 78t76 190q0 70 -28 119t-76 80t-112.5 45t-138.5 18q-35 2 -67.5 13.5t-32.5 64.5q0 29 10 44.5t24.5 22.5t31 8t28.5 3q59 6 117.5 21.5t105.5 46t77 79t30 117.5 q0 43 -13.5 86t-43 77t-79 55.5t-118.5 21.5q-49 0 -97.5 -10.5t-89.5 -30.5q-35 -16 -64.5 -36.5t-57.5 -20.5q-27 0 -48.5 19t-21.5 50q0 39 38 72t96 55.5t127 35.5t128 13q100 0 175 -33.5t125 -89t74.5 -125t24.5 -141.5q0 -123 -66.5 -203.5t-176.5 -128.5 q123 -41 201.5 -124t78.5 -222q0 -84 -30.5 -159.5t-88 -133t-140.5 -91t-185 -33.5q-55 0 -126 10t-132.5 31.5t-103.5 54.5t-42 76z" />
<glyph unicode="&#x418;" horiz-adv-x="1206" d="M150 70v1310q0 35 22.5 59.5t56.5 24.5q35 0 59.5 -24.5t24.5 -59.5v-1044l570 1079q12 23 35.5 36t50.5 13q39 0 63.5 -25.5t24.5 -64.5v-1311q0 -35 -22.5 -59t-57.5 -24t-59.5 24.5t-24.5 58.5v1045l-569 -1081q-12 -23 -35.5 -35t-48.5 -12q-41 0 -65.5 26.5 t-24.5 63.5z" />
<glyph unicode="&#x419;" horiz-adv-x="1206" d="M150 0zM150 70v1310q0 35 22.5 59.5t56.5 24.5q35 0 59.5 -24.5t24.5 -59.5v-1044l570 1079q12 23 35.5 36t50.5 13q39 0 63.5 -25.5t24.5 -64.5v-1311q0 -35 -22.5 -59t-57.5 -24t-59.5 24.5t-24.5 58.5v1045l-569 -1081q-12 -23 -35.5 -35t-48.5 -12q-41 0 -65.5 26.5 t-24.5 63.5zM352 1749q-10 41 9.5 58.5t45.5 17.5q16 0 33.5 -8t28.5 -25q33 -47 65.5 -65.5t67.5 -18.5t67.5 18.5t65.5 65.5q10 16 27.5 24.5t33.5 8.5q27 0 45.5 -17.5t8.5 -58.5t-37 -72.5t-63 -52t-74.5 -31t-73.5 -10.5t-74 10.5t-75 31t-63.5 52t-37.5 72.5z" />
<glyph unicode="&#x41a;" horiz-adv-x="1056" d="M150 63v1319q0 33 23.5 57.5t57.5 24.5q35 0 58.5 -24.5t23.5 -57.5v-579h119l428 622q27 39 68 39q37 0 57.5 -29.5t20.5 -58.5q0 -20 -11 -39l-430 -616l430 -615q10 -18 11 -38q0 -29 -20.5 -58.5t-57.5 -29.5q-41 0 -68 38l-430 625h-117v-580q0 -35 -23.5 -59 t-58.5 -24t-58 24.5t-23 58.5z" />
<glyph unicode="&#x41b;" horiz-adv-x="1249" d="M20 66q0 45 24 64.5t52 19.5q20 0 27.5 -3.5t30.5 -3.5q55 0 81.5 46.5t34.5 144.5l74 1032q4 45 29.5 62.5t48.5 17.5h594q35 0 58.5 -23.5t23.5 -56.5v-1303q-2 -35 -25.5 -57t-56.5 -22q-35 0 -58.5 22.5t-23.5 56.5v1223h-438l-64 -940q-10 -164 -70.5 -263 t-185.5 -99q-31 0 -58.5 2t-49 9t-35 23.5t-13.5 47.5z" />
<glyph unicode="&#x41c;" horiz-adv-x="1413" d="M135 0zM135 59v1319q0 37 24.5 61.5t61.5 24.5q59 0 88 -53l400 -856l399 858q29 51 86 51q37 0 61.5 -25.5t24.5 -60.5v-1319q0 -33 -23.5 -56t-56.5 -23q-35 0 -59.5 23.5t-24.5 55.5v998l-329 -705q-25 -49 -80 -49q-53 0 -78 49l-330 705v-998q0 -33 -25.5 -56 t-60.5 -23q-33 0 -55.5 23.5t-22.5 55.5z" />
<glyph unicode="&#x41d;" horiz-adv-x="1187" d="M150 0zM150 63v1319q0 33 23.5 57.5t57.5 24.5q35 0 58.5 -24.5t23.5 -57.5v-579h559v579q0 33 25 57.5t57 24.5q33 0 57.5 -24.5t24.5 -57.5v-1319q0 -35 -23.5 -59t-58.5 -24q-33 0 -57.5 24.5t-24.5 58.5v580h-559v-580q0 -35 -23.5 -59t-58.5 -24t-58 24.5t-23 58.5z " />
<glyph unicode="&#x41e;" horiz-adv-x="1128" d="M92 0zM92 504v438q0 106 25.5 201.5t83 166t146.5 112.5t216 42t216 -42t146.5 -112.5t83 -165.5t25.5 -202v-438q0 -109 -29.5 -205t-88 -167t-147.5 -111.5t-206 -40.5t-206 40.5t-147 111.5t-88 167t-30 205zM256 504q0 -162 75 -263.5t232 -101.5q158 0 232.5 101.5 t74.5 263.5v438q0 82 -16 148.5t-53 113.5t-95.5 74t-142.5 27t-142.5 -27t-95 -74t-53 -113.5t-16.5 -148.5v-438z" />
<glyph unicode="&#x41f;" horiz-adv-x="1185" d="M150 63v1301q0 33 23.5 57.5t57.5 24.5h723q33 0 57.5 -24.5t24.5 -57.5v-1301q0 -35 -23.5 -59t-58.5 -24q-33 0 -57.5 24.5t-24.5 58.5v1223h-559v-1223q0 -35 -23.5 -59t-58.5 -24t-58 24.5t-23 58.5z" />
<glyph unicode="&#x420;" horiz-adv-x="1085" d="M150 0zM150 66v1280q0 41 28.5 69.5t69.5 28.5h301q127 0 215 -38t142.5 -101.5t79 -146.5t24.5 -173q0 -219 -125 -336t-336 -117h-236v-466q0 -35 -23.5 -60.5t-58.5 -25.5q-33 0 -57 25.5t-24 60.5zM313 692h236q147 0 222 72t75 223q0 55 -12.5 108.5t-45 95.5 t-91 67.5t-148.5 25.5h-236v-592z" />
<glyph unicode="&#x421;" horiz-adv-x="985" d="M92 0zM92 504v438q0 119 27.5 215t84 165t143.5 105.5t206 36.5q70 0 135.5 -14t115.5 -37.5t80.5 -55.5t30.5 -69q0 -29 -20.5 -50t-52.5 -21q-23 0 -36 9t-38 25q-90 63 -205 64q-86 0 -145.5 -25.5t-95 -75t-51 -118t-15.5 -154.5v-438q0 -86 15.5 -154.5t51 -118 t95 -75t145.5 -25.5q115 0 205 64q27 16 39 25t35 9q33 0 53 -21.5t20 -49.5q0 -37 -30.5 -69t-80.5 -55.5t-115.5 -37.5t-135.5 -14q-119 0 -206 36.5t-143.5 105.5t-84 165t-27.5 215z" />
<glyph unicode="&#x422;" horiz-adv-x="989" d="M51 0zM51 1364q0 27 23.5 53.5t58.5 26.5h721q33 0 58.5 -22.5t25.5 -57.5q0 -33 -24.5 -56.5t-59.5 -23.5h-279v-1223q0 -33 -23.5 -57t-57.5 -24q-35 0 -58.5 24.5t-23.5 56.5v1223h-279q-35 0 -58.5 23.5t-23.5 56.5z" />
<glyph unicode="&#x423;" horiz-adv-x="1030" d="M51 1375v16q0 33 22.5 53t57.5 20q23 0 42.5 -13t29.5 -40l317 -856l305 856q10 27 31 40t43 13q31 0 55.5 -22.5t24.5 -57.5q0 -16 -4 -24l-332 -893q-37 -106 -72.5 -194.5t-85 -152t-117 -99t-167.5 -37.5q-35 0 -58.5 21.5t-23.5 55.5q0 29 20.5 51.5t55.5 24.5 q49 2 84.5 13.5t64.5 36t52.5 62.5t45.5 93l-387 1020q-4 4 -4 13z" />
<glyph unicode="&#x424;" horiz-adv-x="1536" d="M92 780q0 90 24.5 173t79 147.5t142.5 102.5t215 38h133v141q0 33 25.5 57.5t56.5 24.5q37 0 59.5 -24.5t22.5 -57.5v-141h133q127 0 215 -38t142.5 -102.5t79 -147.5t24.5 -173q0 -219 -125 -335.5t-336 -116.5h-133v-267q0 -33 -23.5 -57t-58.5 -24t-58.5 24.5 t-23.5 56.5v267h-133q-211 0 -336 116.5t-125 335.5zM256 782q0 -152 75 -223.5t222 -71.5h133v594h-133q-90 0 -148.5 -25.5t-91 -68.5t-45 -96t-12.5 -109zM850 487h133q147 0 222 72t75 223q0 55 -12.5 108.5t-45 96.5t-91 68.5t-148.5 25.5h-133v-594z" />
<glyph unicode="&#x425;" horiz-adv-x="989" d="M14 0zM15 63q0 12 4 24.5t8 21.5l373 643l-342 587q-10 20 -11 45q0 31 23 55.5t53 24.5q29 0 50.5 -21.5t37.5 -49.5l285 -510l285 510q14 23 36.5 47t53.5 24q29 0 51.5 -23.5t22.5 -58.5q0 -23 -11 -43l-342 -587l373 -643q4 -8 8 -20.5t4 -25.5q0 -33 -23.5 -58 t-51.5 -25q-29 0 -48.5 18t-31.5 41l-326 582l-326 -582q-10 -20 -29.5 -39.5t-47.5 -19.5q-31 0 -54.5 25.5t-23.5 57.5z" />
<glyph unicode="&#x426;" horiz-adv-x="1236" d="M150 82v1298q0 35 23.5 59.5t57.5 24.5q35 0 58.5 -24.5t23.5 -59.5v-1220h559v1220q0 35 25 59.5t57 24.5q35 0 58.5 -24.5t23.5 -59.5v-1220h82q33 0 57.5 -24.5t24.5 -57.5v-322q0 -35 -24.5 -59.5t-57.5 -24.5t-57.5 24.5t-24.5 59.5v244h-75h-7h-723q-35 0 -58 24.5 t-23 57.5z" />
<glyph unicode="&#x427;" horiz-adv-x="1120" d="M109 985v393q0 35 23.5 60.5t57.5 25.5q33 0 57.5 -25.5t24.5 -60.5v-391q0 -160 70 -227.5t211 -67.5q66 0 132.5 13.5t119.5 42.5v630q0 35 23.5 60.5t58.5 25.5q33 0 57.5 -25.5t24.5 -60.5v-1312q0 -35 -24.5 -60.5t-57.5 -25.5q-35 0 -58.5 25.5t-23.5 60.5v520 q-63 -29 -133 -41.5t-133 -12.5q-205 0 -317.5 117t-112.5 336z" />
<glyph unicode="&#x428;" horiz-adv-x="1556" d="M150 82v1298q0 35 23.5 59.5t57.5 24.5q35 0 58.5 -24.5t23.5 -59.5v-1220h381v1222q0 33 23.5 57.5t58.5 24.5t58.5 -24.5t23.5 -57.5v-1222h383v1220q0 35 24.5 59.5t57.5 24.5q35 0 58.5 -24.5t23.5 -59.5v-1298q0 -33 -24.5 -57.5t-57.5 -24.5h-1092q-35 0 -58 24.5 t-23 57.5z" />
<glyph unicode="&#x429;" horiz-adv-x="1605" d="M150 82v1298q0 35 23.5 59.5t57.5 24.5q35 0 58.5 -24.5t23.5 -59.5v-1220h381v1222q0 33 23.5 57.5t58.5 24.5t58.5 -24.5t23.5 -57.5v-1222h383v1220q0 35 24.5 59.5t57.5 24.5q35 0 58.5 -24.5t23.5 -59.5v-1220h82q33 0 57.5 -24.5t24.5 -57.5v-322 q0 -35 -23.5 -59.5t-58.5 -24.5q-33 0 -57.5 24.5t-24.5 59.5v244h-1174q-35 0 -58 24.5t-23 57.5z" />
<glyph unicode="&#x42a;" horiz-adv-x="1339" d="M33 1366q0 33 22.5 56.5t57.5 23.5h352q41 0 66.5 -28.5t25.5 -63.5v-441h236q211 0 335.5 -116.5t124.5 -335.5q0 -90 -24.5 -173t-78.5 -147.5t-142 -102.5t-215 -38h-301q-41 0 -70 28.5t-29 69.5v1188h-280q-35 0 -57.5 22.5t-22.5 57.5zM557 160h236q90 0 148 25.5 t91 68.5t45.5 96t12.5 109q0 152 -75 223.5t-222 71.5h-236v-594z" />
<glyph unicode="&#x42b;" horiz-adv-x="1484" d="M150 98v1280q0 35 24.5 60.5t56.5 25.5q35 0 58.5 -25.5t23.5 -60.5v-465h236q211 0 336 -116.5t125 -335.5q0 -90 -24.5 -173t-79 -147.5t-142.5 -102.5t-215 -38h-301q-41 0 -69.5 28.5t-28.5 69.5zM313 160h236q90 0 148.5 25.5t91 68.5t45 96t12.5 109 q0 152 -75 223.5t-222 71.5h-236v-594zM1169 61q0 -33 24 -57t58 -24q35 0 58.5 24.5t23.5 56.5v1321q0 33 -23.5 57.5t-58.5 24.5t-58.5 -24.5t-23.5 -57.5v-1321z" />
<glyph unicode="&#x42c;" horiz-adv-x="1095" d="M150 98v1280q0 35 24.5 60.5t56.5 25.5q35 0 58.5 -25.5t23.5 -60.5v-465h236q211 0 336 -116.5t125 -335.5q0 -90 -24.5 -173t-79 -147.5t-142.5 -102.5t-215 -38h-301q-41 0 -69.5 28.5t-28.5 69.5zM313 160h236q90 0 148.5 25.5t91 68.5t45 96t12.5 109 q0 152 -75 223.5t-222 71.5h-236v-594z" />
<glyph unicode="&#x42d;" horiz-adv-x="1019" d="M102 158q0 29 20.5 50t53.5 21q23 0 35 -9t39 -25q90 -63 205 -64q86 0 145 25.5t95 75t51.5 118t15.5 154.5v139h-381q-35 0 -56.5 23.5t-21.5 58.5t23.5 57.5t54.5 22.5h381v137q0 86 -15.5 154.5t-51.5 118t-95 75t-145 25.5q-115 0 -205 -64q-25 -16 -38 -25t-36 -9 q-33 0 -53.5 21.5t-20.5 49.5q0 37 31 69t81 55.5t115.5 37.5t135.5 14q119 0 205 -36.5t143 -105.5t85 -165t28 -215v-438q0 -119 -28 -215t-85 -165t-143 -105.5t-205 -36.5q-70 0 -135.5 14t-115.5 37.5t-81 55.5t-31 69z" />
<glyph unicode="&#x42e;" horiz-adv-x="1552" d="M150 63v1319q0 33 23.5 57.5t57.5 24.5q35 0 58.5 -24.5t23.5 -57.5v-579h246v160q0 102 24.5 193t79 159.5t140.5 108.5t207 40t207 -40t140 -108.5t78.5 -159.5t24.5 -193v-480q0 -104 -28.5 -196t-85 -160t-140 -107.5t-196.5 -39.5t-197 39.5t-140.5 107.5t-85 160 t-28.5 196v162h-246v-582q0 -35 -23.5 -59t-58.5 -24t-58 24.5t-23 58.5zM723 483q0 -76 17.5 -139t52 -108.5t89 -71t128.5 -25.5t128 25.5t89 71t52 109t17 138.5v480q0 76 -15 139t-49 108t-88 70t-134 25t-134.5 -25t-88 -70t-49 -108.5t-15.5 -138.5v-480z" />
<glyph unicode="&#x42f;" horiz-adv-x="1148" d="M123 59q0 27 10 47l328 539q-147 29 -232.5 127t-85.5 262q0 76 22.5 149.5t75 132t137.5 94.5t212 36h315q39 0 66.5 -28.5t27.5 -69.5v-1282q0 -35 -22.5 -60.5t-56.5 -25.5q-35 0 -59.5 25.5t-24.5 60.5v569h-197l-360 -615q-23 -39 -68 -38q-25 0 -56.5 22.5 t-31.5 54.5zM307 1034q0 -119 72 -180t207 -61h250v493h-238q-90 0 -146.5 -22.5t-88 -58.5t-44 -81t-12.5 -90z" />
<glyph unicode="&#x430;" horiz-adv-x="987" d="M92 0zM92 293v8q0 303 361 303q109 0 206 -29v117q0 219 -219 219q-53 0 -87 -12t-68 -31q-4 -2 -20.5 -9t-33.5 -7q-29 0 -42 22.5t-15 45.5q-4 35 20.5 60.5t66.5 41.5t94.5 23.5t105.5 7.5q193 0 275.5 -104.5t82.5 -309.5v-451q0 -61 37 -61q4 0 7 1t9 1 q29 0 44.5 -21.5t15.5 -48.5q0 -39 -29 -54t-63 -15q-51 0 -91 27.5t-63 74.5q-119 -109 -280 -108q-160 0 -237 85t-77 224zM250 291q0 -72 39 -118t141 -46q66 0 121 21.5t108 68.5v221q-51 16 -106 23.5t-102 7.5q-63 0 -102.5 -13.5t-61 -37t-29.5 -54t-8 -65.5v-8z" />
<glyph unicode="&#x431;" horiz-adv-x="952" d="M92 348v629q0 197 95.5 308.5t310.5 133.5q27 2 44 3t37.5 5.5t49 14.5t82.5 35q4 2 11 4t17 2q31 0 51.5 -21.5t20.5 -52.5q0 -39 -34 -63.5t-83 -38t-102 -20.5t-92 -9q-33 -4 -76 -12.5t-81 -37t-64.5 -86t-26.5 -155.5v-104q41 53 104.5 82.5t149.5 29.5 q82 0 147.5 -28.5t111.5 -77.5t69.5 -115.5t23.5 -142.5v-283q0 -78 -24.5 -144.5t-72.5 -115.5t-120 -76.5t-166 -27.5t-165.5 27.5t-120 76.5t-73 115.5t-24.5 144.5zM252 348q0 -102 56 -159.5t167 -57.5t167 57.5t56 159.5v285q0 100 -51 157.5t-162 57.5 q-109 0 -169 -54.5t-64 -150.5v-295z" />
<glyph unicode="&#x432;" horiz-adv-x="958" d="M150 80v874q0 33 22.5 56.5t56.5 23.5h275q86 0 149.5 -21.5t106.5 -60.5t63.5 -91.5t20.5 -115.5q0 -78 -34 -133t-110 -84q86 -31 125 -91t39 -146q0 -129 -84 -210t-256 -81h-295q-35 0 -57 23.5t-22 56.5zM309 137h211q92 0 139.5 38t47.5 122q0 29 -8.5 57.5t-31 51 t-63.5 37t-106 14.5h-189v-320zM309 592h195q57 0 93 12t55.5 32.5t26.5 47.5t7 53q0 84 -47 122t-139 38h-191v-305z" />
<glyph unicode="&#x433;" horiz-adv-x="761" d="M150 63v900q0 31 21.5 51t51.5 20h461q29 0 51.5 -20.5t22.5 -50.5q0 -31 -21.5 -51.5t-52.5 -20.5h-375v-828q0 -35 -22.5 -57t-57.5 -22t-57 22.5t-22 56.5z" />
<glyph unicode="&#x434;" horiz-adv-x="1101" d="M47 55q0 35 22.5 57.5t57.5 22.5h39q47 47 72.5 151.5t33.5 252.5l19 415q4 45 29.5 62.5t48.5 17.5h471q35 0 57.5 -23.5t22.5 -56.5v-819h55q35 0 57.5 -22.5t22.5 -57.5v-262q0 -35 -22.5 -57.5t-57.5 -22.5t-57.5 22.5t-22.5 57.5v207h-688v-207q0 -35 -22.5 -57.5 t-57.5 -22.5t-57.5 22.5t-22.5 57.5v262zM330 135h430v764h-324l-14 -360q-4 -129 -26.5 -230.5t-65.5 -173.5z" />
<glyph unicode="&#x435;" horiz-adv-x="886" d="M92 0zM92 324v383q0 74 24.5 137t72 109t117 73t161.5 27q172 0 256 -90.5t84 -243.5q0 -141 -81 -222t-265 -81q-47 0 -101.5 4t-107.5 14v-121q0 -86 56 -137t167 -51q66 0 113 16.5t100 40.5q4 2 11.5 4t17.5 2q31 0 51 -21.5t20 -49.5q0 -37 -35.5 -62.5t-88 -41 t-109.5 -22.5t-98 -7q-86 0 -155 25.5t-115 71.5t-70.5 108.5t-24.5 134.5zM252 565q57 -8 120.5 -11t94.5 -3q57 0 93 14.5t56.5 38t26.5 54t6 61.5q0 100 -48 144t-138 44q-100 0 -155.5 -50t-55.5 -136v-156z" />
<glyph unicode="&#x436;" horiz-adv-x="1245" d="M51 51q0 10 3 23.5t9 23.5l256 416l-256 416q-8 10 -10 23.5t-2 23.5q2 31 23.5 49t52.5 18q41 0 66 -38l247 -404h103v365q0 33 22.5 56.5t57.5 23.5t57 -24t22 -56v-365h101l250 404q20 39 65 38q33 0 53.5 -18t22.5 -49q0 -10 -3 -23.5t-9 -23.5l-256 -416l256 -416 q6 -10 9 -23.5t3 -23.5q-2 -31 -23.5 -49t-52.5 -18q-41 0 -65 39l-275 444h-76v-404q0 -35 -22.5 -57t-56.5 -22q-35 0 -57.5 22.5t-22.5 56.5v404h-76l-274 -444q-27 -39 -66 -39q-33 0 -53.5 18t-22.5 49z" />
<glyph unicode="&#x437;" horiz-adv-x="835" d="M80 104q0 23 17.5 47.5t64.5 24.5q10 0 11 -1t5 -3q39 -16 96.5 -31.5t126.5 -15.5q92 0 140.5 37t48.5 127q0 20 -6 48t-30 52.5t-72 43t-132 22.5q-35 2 -67.5 12t-32.5 57q0 25 9 37t23.5 18.5t31 8.5t30.5 4q76 6 121 26.5t67.5 47t29.5 54.5t7 50q0 70 -45 105.5 t-143 35.5q-59 0 -98 -11t-72 -26q-20 -10 -37 -10q-33 0 -53.5 21.5t-20.5 50.5q0 33 30 55.5t73 35.5t93 19.5t91 6.5q170 0 254 -82t84 -211q0 -92 -45 -151.5t-150 -80.5q115 -23 165 -86t50 -163q0 -135 -86 -215t-264 -80q-41 0 -95 5t-103.5 19.5t-83 37t-33.5 58.5z " />
<glyph unicode="&#x438;" horiz-adv-x="1085" d="M150 70v895q0 35 21.5 59.5t55.5 24.5q35 0 58.5 -25t23.5 -59v-691l455 725q27 49 84 50q39 0 62.5 -26t23.5 -65v-895q0 -35 -22.5 -59t-57.5 -24t-57.5 24.5t-22.5 58.5v691l-452 -727q-31 -47 -82 -47q-41 0 -65.5 26.5t-24.5 63.5z" />
<glyph unicode="&#x439;" horiz-adv-x="1085" d="M150 0zM150 70v895q0 35 21.5 59.5t55.5 24.5q35 0 58.5 -25t23.5 -59v-691l455 725q27 49 84 50q39 0 62.5 -26t23.5 -65v-895q0 -35 -22.5 -59t-57.5 -24t-57.5 24.5t-22.5 58.5v691l-452 -727q-31 -47 -82 -47q-41 0 -65.5 26.5t-24.5 63.5zM293 1337q-10 41 9.5 58.5 t45.5 17.5q16 0 33.5 -8t28.5 -25q33 -47 65.5 -65.5t67.5 -18.5t67.5 18.5t65.5 65.5q10 16 27.5 24.5t33.5 8.5q27 0 45.5 -17.5t8.5 -58.5t-37 -72.5t-63 -52t-74.5 -31t-73.5 -10.5t-74 10.5t-75 31t-63.5 52t-37.5 72.5z" />
<glyph unicode="&#x43a;" horiz-adv-x="892" d="M150 63v904q0 33 22.5 56.5t56.5 23.5q35 0 57.5 -24t22.5 -56v-365h125l266 404q25 39 66 38q31 0 52.5 -18t23.5 -49q0 -10 -3 -23.5t-10 -23.5l-280 -416l280 -416q6 -10 9.5 -23.5t3.5 -23.5q-2 -31 -23.5 -49t-52.5 -18q-41 0 -66 39l-292 444h-99v-404 q0 -35 -22.5 -57t-57.5 -22t-57 22.5t-22 56.5z" />
<glyph unicode="&#x43b;" horiz-adv-x="1073" d="M23 61q0 41 23.5 59.5t51.5 18.5q10 0 13.5 -1t13.5 -1q55 0 81.5 45t35.5 140l53 632q4 45 29.5 62.5t48.5 17.5h471q35 0 57.5 -23.5t22.5 -56.5v-891q0 -35 -22.5 -57t-57.5 -22t-57.5 22.5t-22.5 56.5v836h-326l-45 -565q-12 -156 -68.5 -250t-177.5 -94q-25 0 -47 1 t-39.5 8t-27.5 21.5t-10 40.5z" />
<glyph unicode="&#x43c;" horiz-adv-x="1310" d="M150 63v898q0 37 24.5 61.5t61.5 24.5q29 0 48 -14.5t33 -39.5l336 -612l336 612q14 25 33.5 39.5t48.5 14.5q37 0 61.5 -25t24.5 -61v-898q0 -33 -23.5 -56t-54.5 -23q-35 0 -57.5 23.5t-22.5 55.5v637l-266 -481q-27 -49 -78 -49h-4q-51 0 -78 49l-266 481v-637 q0 -33 -23.5 -56t-56.5 -23t-55 23.5t-22 55.5z" />
<glyph unicode="&#x43d;" horiz-adv-x="1052" d="M150 63v904q0 33 22.5 56.5t56.5 23.5q35 0 57.5 -24t22.5 -56v-365h434v365q0 33 22.5 56.5t57.5 23.5t57.5 -24t22.5 -56v-904q0 -35 -22.5 -57t-57.5 -22t-57.5 22.5t-22.5 56.5v404h-434v-404q0 -35 -22.5 -57t-57.5 -22t-57 22.5t-22 56.5z" />
<glyph unicode="&#x43e;" horiz-adv-x="952" d="M92 0zM92 348v342q0 76 24.5 142.5t73 115.5t120 78t165.5 29t166 -29t120 -78t72.5 -115.5t24.5 -142.5v-342q0 -78 -24.5 -144.5t-72.5 -115.5t-120 -76.5t-166 -27.5t-165.5 27.5t-120 76.5t-73 115.5t-24.5 144.5zM252 348q0 -102 56 -159.5t167 -57.5t167 57.5 t56 159.5v344q0 100 -56 157.5t-167 57.5t-167 -57t-56 -158v-344z" />
<glyph unicode="&#x43f;" horiz-adv-x="1032" d="M150 63v891q0 33 22.5 56.5t56.5 23.5h574q35 0 57.5 -23.5t22.5 -56.5v-891q0 -35 -22.5 -57t-57.5 -22t-57.5 22.5t-22.5 56.5v836h-414v-836q0 -35 -22.5 -57t-57.5 -22t-57 22.5t-22 56.5z" />
<glyph unicode="&#x440;" horiz-adv-x="978" d="M111 0zM111 940q0 33 22.5 52.5t48.5 19.5q25 0 44.5 -13.5t35.5 -35.5q70 37 144.5 63.5t154.5 26.5q162 0 244 -107.5t82 -279.5v-267q0 -92 -16.5 -167.5t-56.5 -130t-105.5 -85t-163.5 -30.5q-53 0 -112.5 10t-115.5 29v-387q0 -33 -20.5 -55.5t-58.5 -22.5 q-39 0 -59.5 22.5t-20.5 55.5v1118q0 51 -7.5 82.5t-25.5 60.5q-6 10 -10 18.5t-4 22.5zM307 840q10 -51 10 -84v-588q49 -23 108.5 -33t98.5 -10q113 0 158 65.5t45 208.5v267q0 244 -199 243q-53 0 -110.5 -18.5t-110.5 -50.5z" />
<glyph unicode="&#x441;" horiz-adv-x="798" d="M92 0zM92 360v310q0 80 21.5 148.5t65.5 118.5t113.5 80t166.5 30q37 0 85 -6.5t93 -20.5t75.5 -38t30.5 -60q0 -29 -20.5 -49.5t-48.5 -20.5q-14 0 -33 6q-37 18 -75 32.5t-91 14.5q-121 0 -172 -61.5t-51 -173.5v-310q0 -113 51 -174t172 -61q53 0 91 14.5t75 32.5 q18 6 33 6q29 0 49 -20.5t20 -48.5q0 -37 -30.5 -60.5t-75.5 -38t-93 -20.5t-85 -6q-96 0 -166 29.5t-114 79.5t-65.5 119t-21.5 148z" />
<glyph unicode="&#x442;" horiz-adv-x="835" d="M51 958q0 33 21.5 54.5t52.5 21.5h586q31 0 52 -21.5t21 -54.5t-21.5 -54t-51.5 -21h-213v-820q0 -35 -22.5 -57t-57.5 -22t-57.5 22.5t-22.5 56.5v820h-213q-31 0 -52.5 21.5t-21.5 53.5z" />
<glyph unicode="&#x443;" horiz-adv-x="843" d="M33 0zM33 957.5v15.5q0 33 22.5 53.5t57.5 20.5q23 0 42 -13.5t29 -40.5l256 -776l224 776q10 27 30.5 40.5t42.5 13.5q31 0 55.5 -23t24.5 -57q0 -8 -4 -25l-250 -813q-37 -121 -72.5 -219t-85 -170t-117 -113t-167.5 -43q-35 0 -58.5 21.5t-23.5 56.5q0 29 20.5 51.5 t55.5 24.5q49 2 85 17.5t64.5 47t52 80.5t45.5 121l-325 940q-4 4 -4 13.5z" />
<glyph unicode="&#x444;" horiz-adv-x="1198" d="M92 451v155q0 94 26.5 176t81 142.5t133.5 94.5t183 34v352q0 33 22.5 56.5t57.5 23.5t57.5 -22.5t22.5 -57.5v-352h4q104 0 183 -34t133.5 -94.5t81 -142.5t26.5 -176v-155q0 -100 -26.5 -185.5t-81 -148t-133.5 -98t-183 -35.5h-4v-344q0 -35 -22.5 -57.5t-57.5 -22.5 t-57.5 23.5t-22.5 56.5v344q-104 0 -183 35.5t-133.5 98t-81 147.5t-26.5 186zM252 451q0 -147 65.5 -233.5t198.5 -86.5v774q-133 0 -198.5 -80t-65.5 -217v-157zM676 131h4q133 0 198.5 86t65.5 234v157q0 137 -65.5 217t-198.5 80h-4v-774z" />
<glyph unicode="&#x445;" horiz-adv-x="882" d="M51 0zM51 63q0 18 10 35l287 426l-268 406q-12 14 -12 35q0 33 22.5 57.5t56.5 24.5q35 0 54.5 -24t36.5 -46l206 -318l215 334q16 25 32 39.5t44 14.5q29 0 53.5 -21.5t24.5 -54.5q0 -10 -2 -19.5t-8 -19.5l-268 -404l286 -426q10 -16 10 -34q0 -35 -22.5 -59.5 t-58.5 -24.5q-29 0 -44.5 13t-33.5 42l-232 356l-241 -370q-27 -41 -66 -41q-35 0 -58.5 22.5t-23.5 56.5z" />
<glyph unicode="&#x446;" horiz-adv-x="1083" d="M150 80v887q0 35 22.5 57.5t56.5 22.5q35 0 57.5 -23t22.5 -57v-832h434v832q0 35 22.5 57.5t57.5 22.5t57.5 -22.5t22.5 -57.5v-832h55q35 0 57.5 -22.5t22.5 -57.5v-262q0 -35 -22.5 -57.5t-57.5 -22.5t-57 22.5t-22 57.5v207h-650q-35 0 -57 23.5t-22 56.5z" />
<glyph unicode="&#x447;" horiz-adv-x="958" d="M92 678v289q0 33 22.5 56.5t57.5 23.5t57.5 -24t22.5 -56v-289q0 -31 6 -61.5t25.5 -54t54.5 -38t94 -14.5q31 0 93.5 8t121.5 21v428q0 33 22.5 56.5t57.5 23.5t57.5 -24t22.5 -56v-904q0 -35 -22.5 -57t-57.5 -22t-57.5 22.5t-22.5 56.5v340q-115 -29 -209 -28 q-184 0 -265 81t-81 222z" />
<glyph unicode="&#x448;" horiz-adv-x="1443" d="M150 80v887q0 35 22.5 57.5t56.5 22.5q35 0 57.5 -23t22.5 -57v-832h332v832q0 33 22.5 56.5t57.5 23.5t57.5 -24t22.5 -56v-832h332v832q0 35 22.5 57.5t56.5 22.5q35 0 57.5 -23t22.5 -57v-887q0 -33 -22.5 -56.5t-57.5 -23.5h-983q-35 0 -57 23.5t-22 56.5z" />
<glyph unicode="&#x449;" horiz-adv-x="1470" d="M150 80v887q0 35 22.5 57.5t56.5 22.5q35 0 57.5 -23t22.5 -57v-832h332v832q0 33 22.5 56.5t57.5 23.5t57.5 -24t22.5 -56v-832h332v832q0 35 22.5 57.5t56.5 22.5q35 0 57.5 -23t22.5 -57v-832h56q35 0 57 -22.5t22 -57.5v-262q0 -35 -22.5 -57.5t-56.5 -22.5 q-35 0 -57.5 22.5t-22.5 57.5v207h-1039q-35 0 -57 23.5t-22 56.5z" />
<glyph unicode="&#x44a;" horiz-adv-x="1081" d="M20 963q0 31 23 51t51 20h256q31 0 52.5 -20.5t21.5 -50.5v-351h209q197 0 281.5 -80.5t84.5 -230.5q0 -135 -84 -218t-256 -83h-315q-35 0 -57.5 23.5t-22.5 56.5v811h-170q-31 0 -52.5 20.5t-21.5 51.5zM424 137h231q186 0 187 170q0 31 -8.5 61.5t-31 54t-63.5 39 t-106 15.5h-209v-340z" />
<glyph unicode="&#x44b;" horiz-adv-x="1339" d="M150 80v887q0 33 22.5 56.5t56.5 23.5q35 0 57.5 -24t22.5 -56v-355h209q197 0 282 -80.5t85 -230.5q0 -135 -84 -218t-256 -83h-316q-35 0 -57 23.5t-22 56.5zM309 137h232q186 0 186 170q0 31 -8 61.5t-30.5 54t-63.5 39t-107 15.5h-209v-340zM1028 63v904 q0 33 22.5 56.5t57.5 23.5t57.5 -24t22.5 -56v-904q0 -35 -22.5 -57t-57.5 -22t-57.5 22.5t-22.5 56.5z" />
<glyph unicode="&#x44c;" horiz-adv-x="966" d="M150 80v887q0 33 22.5 56.5t56.5 23.5q35 0 57.5 -24t22.5 -56v-355h209q197 0 282 -80.5t85 -230.5q0 -135 -84 -218t-256 -83h-316q-35 0 -57 23.5t-22 56.5zM309 137h232q186 0 186 170q0 31 -8 61.5t-30.5 54t-63.5 39t-107 15.5h-209v-340z" />
<glyph unicode="&#x44d;" horiz-adv-x="804" d="M59 109q0 29 20.5 49t49.5 20q14 0 33 -6q41 -18 84 -32.5t102 -14.5q111 0 157 66.5t46 189.5v68h-313q-31 0 -52.5 20t-21.5 51t21.5 51.5t52.5 20.5h313v57q0 123 -46 189.5t-157 66.5q-59 0 -102 -14t-84 -33q-18 -6 -33 -6q-29 0 -49.5 20.5t-20.5 49.5 q0 37 33 60.5t81 37.5t100.5 20.5t91.5 6.5q90 0 155.5 -31t107.5 -84t62.5 -126t20.5 -157v-268q0 -84 -20.5 -156.5t-62.5 -126t-107.5 -84t-155.5 -30.5q-39 0 -91.5 6t-100.5 20.5t-81 38t-33 60.5z" />
<glyph unicode="&#x44e;" horiz-adv-x="1394" d="M150 63v904q0 33 22.5 56.5t56.5 23.5q35 0 57.5 -24t22.5 -56v-365h226v86q0 76 24.5 142.5t72.5 115.5t119.5 78t166.5 29q94 0 165.5 -29t119.5 -78t72.5 -115.5t24.5 -142.5v-340q0 -78 -24.5 -144.5t-72.5 -115.5t-119.5 -76.5t-165.5 -27.5t-166 27.5t-120 76.5 t-72.5 115.5t-24.5 144.5v119h-226v-404q0 -35 -22.5 -57t-57.5 -22t-57 22.5t-22 56.5zM694 348q0 -102 56.5 -159.5t167.5 -57.5t167 57.5t56 159.5v342q0 100 -56.5 157.5t-166.5 57.5q-111 0 -167.5 -57t-56.5 -158v-342z" />
<glyph unicode="&#x44f;" horiz-adv-x="997" d="M102 51q0 10 3.5 23.5t9.5 23.5l225 336q-123 27 -176 102.5t-53 196.5q0 135 84 218t256 83h315q35 0 57.5 -23.5t22.5 -56.5v-891q0 -33 -22.5 -56t-57.5 -23t-57.5 23.5t-22.5 55.5v359h-180l-262 -399q-27 -39 -66 -39q-33 0 -53.5 18t-22.5 49zM268 727 q0 -31 8.5 -61.5t31 -54t63.5 -39t106 -15.5h209v340h-231q-187 0 -187 -170z" />
<glyph unicode="&#x450;" horiz-adv-x="886" d="M92 0zM92 324v383q0 74 24.5 137t72 109t117 73t161.5 27q172 0 256 -90.5t84 -243.5q0 -141 -81 -222t-265 -81q-47 0 -101.5 4t-107.5 14v-121q0 -86 56 -137t167 -51q66 0 113 16.5t100 40.5q4 2 11.5 4t17.5 2q31 0 51 -21.5t20 -49.5q0 -37 -35.5 -62.5t-88 -41 t-109.5 -22.5t-98 -7q-86 0 -155 25.5t-115 71.5t-70.5 108.5t-24.5 134.5zM243 1423q0 29 20.5 48.5t43.5 19.5q29 0 41 -13.5t35 -33.5l159 -166q10 -12 11 -31q0 -33 -20.5 -52t-47.5 -19q-20 0 -34.5 10t-31.5 26l-165 177q-6 8 -8.5 17t-2.5 17zM252 565 q57 -8 120.5 -11t94.5 -3q57 0 93 14.5t56.5 38t26.5 54t6 61.5q0 100 -48 144t-138 44q-100 0 -155.5 -50t-55.5 -136v-156z" />
<glyph unicode="&#x451;" horiz-adv-x="886" d="M92 0zM92 324v383q0 74 24.5 137t72 109t117 73t161.5 27q172 0 256 -90.5t84 -243.5q0 -141 -81 -222t-265 -81q-47 0 -101.5 4t-107.5 14v-121q0 -86 56 -137t167 -51q66 0 113 16.5t100 40.5q4 2 11.5 4t17.5 2q31 0 51 -21.5t20 -49.5q0 -37 -35.5 -62.5t-88 -41 t-109.5 -22.5t-98 -7q-86 0 -155 25.5t-115 71.5t-70.5 108.5t-24.5 134.5zM217 1309q0 39 27 67.5t68 28.5t69.5 -27.5t28.5 -68.5t-28.5 -71t-69.5 -30t-68 30t-27 71zM252 565q57 -8 120.5 -11t94.5 -3q57 0 93 14.5t56.5 38t26.5 54t6 61.5q0 100 -48 144t-138 44 q-100 0 -155.5 -50t-55.5 -136v-156zM562 1309q0 39 28.5 67.5t69.5 28.5t68.5 -27.5t27.5 -68.5t-27.5 -71t-68.5 -30t-69.5 30t-28.5 71z" />
<glyph unicode="&#x452;" horiz-adv-x="1191" d="M51 1241q0 31 21.5 53.5t54.5 22.5h178v100q0 31 21.5 55.5t56.5 24.5t57.5 -22.5t22.5 -57.5v-100h174q31 0 52.5 -22.5t21.5 -53.5t-21.5 -52.5t-52.5 -21.5h-174v-262q53 41 117.5 63.5t138.5 22.5q82 0 142.5 -27.5t99 -78.5t58 -121t19.5 -154v-559 q0 -199 -74.5 -318.5t-213.5 -146.5q-12 -2 -20.5 -2h-18.5q-25 0 -43.5 14.5t-24.5 39.5q-10 41 14.5 62t47.5 26q84 25 129 96.5t45 220.5v565q0 117 -41 175.5t-138 58.5q-63 0 -127.5 -29t-109.5 -88v-662q0 -35 -21.5 -57t-56.5 -22t-57.5 22.5t-22.5 56.5v1104h-178 q-33 0 -54.5 21.5t-21.5 52.5z" />
<glyph unicode="&#x453;" horiz-adv-x="761" d="M150 0zM150 63v900q0 31 21.5 51t51.5 20h461q29 0 51.5 -20.5t22.5 -50.5q0 -31 -21.5 -51.5t-52.5 -20.5h-375v-828q0 -35 -22.5 -57t-57.5 -22t-57 22.5t-22 56.5zM387 1247q0 18 10 31l160 166q23 20 35 33.5t40 13.5q23 0 43.5 -19.5t20.5 -48.5q0 -8 -2 -17t-8 -17 l-166 -177q-18 -16 -31.5 -26t-34.5 -10q-29 0 -48 19t-19 52z" />
<glyph unicode="&#x454;" horiz-adv-x="798" d="M92 381v268q0 84 20.5 157t62.5 126t107.5 84t155.5 31q39 0 91.5 -6.5t99.5 -20.5t80.5 -38t33.5 -60q0 -29 -20.5 -49.5t-48.5 -20.5q-14 0 -33 6q-41 18 -84 32.5t-102 14.5q-111 0 -157 -66.5t-46 -189.5v-57h313q31 0 52.5 -20.5t21.5 -51.5t-21.5 -51t-52.5 -20 h-313v-68q0 -123 46 -189.5t157 -66.5q59 0 102 14.5t84 32.5q18 6 33 6q29 0 49 -20.5t20 -48.5q0 -37 -33.5 -60.5t-80.5 -38t-99.5 -20.5t-91.5 -6q-90 0 -155.5 30.5t-107.5 84t-62.5 126t-20.5 156.5z" />
<glyph unicode="&#x455;" horiz-adv-x="851" d="M96 0zM96 102q0 27 19.5 50.5t56.5 23.5q10 0 13 -1t8 -3q43 -16 93 -31.5t111 -15.5q86 0 137.5 36t51.5 115q0 55 -22.5 83t-53.5 44q-49 27 -117.5 47.5t-131 55.5t-107.5 92.5t-45 159.5q0 133 83.5 214t247.5 81q39 0 87 -6.5t89 -19.5t69 -34.5t28 -54.5 q0 -29 -20.5 -51.5t-53.5 -22.5q-16 0 -37 10q-33 16 -66.5 26.5t-89.5 10.5q-182 0 -182 -143q0 -47 21.5 -75.5t74.5 -55.5t119 -47.5t124.5 -56t98 -93t39.5 -157.5q0 -139 -86 -219t-258 -80q-39 0 -91 5t-98 18t-79 37t-33 58z" />
<glyph unicode="&#x456;" horiz-adv-x="501" d="M152 0zM152 1368q0 41 28.5 69.5t69.5 28.5t69.5 -28.5t28.5 -69.5t-28.5 -69.5t-69.5 -28.5t-69.5 28.5t-28.5 69.5zM170 63v904q0 33 22.5 56.5t57.5 23.5t57.5 -24t22.5 -56v-904q0 -35 -22.5 -57t-57.5 -22t-57.5 22.5t-22.5 56.5z" />
<glyph unicode="&#x457;" horiz-adv-x="501" d="M-49 1268q0 43 30.5 74.5t75.5 31.5q47 0 78 -30.5t31 -75.5q0 -47 -31 -79t-78 -32q-45 0 -75.5 33t-30.5 78zM170 63v904q0 33 22.5 56.5t57.5 23.5t57.5 -24t22.5 -56v-904q0 -35 -22.5 -57t-57.5 -22t-57.5 22.5t-22.5 56.5zM334 1268q0 43 31.5 74.5t76.5 31.5 t77 -30.5t32 -75.5q0 -47 -32 -79t-77 -32t-76.5 33t-31.5 78z" />
<glyph unicode="&#x458;" horiz-adv-x="501" d="M-39 -362q-10 41 14.5 62t47.5 26q84 18 129 70t45 165v1006q0 33 22.5 56.5t57.5 23.5t57.5 -24t22.5 -56v-998q0 -162 -75 -262t-214 -121q-12 -2 -20.5 -2h-18.5q-25 0 -43 14.5t-25 39.5zM0 0zM179 1368q0 41 28.5 69.5t69.5 28.5t69.5 -28.5t28.5 -69.5t-28.5 -69.5 t-69.5 -28.5t-69.5 28.5t-28.5 69.5z" />
<glyph unicode="&#x459;" horiz-adv-x="1509" d="M33 61q0 41 23.5 59.5t52.5 18.5q10 0 13 -1t13 -1q55 0 82 45t35 140l53 632q4 45 29.5 62.5t48.5 17.5h430q35 0 57.5 -23.5t22.5 -56.5v-342h168q197 0 281.5 -80.5t84.5 -230.5q0 -135 -83.5 -218t-256.5 -83h-274q-35 0 -57.5 23.5t-22.5 56.5v819h-284l-46 -565 q-12 -156 -68 -250t-177 -94q-25 0 -47.5 1t-40 8t-27.5 21.5t-10 40.5zM893 137h190q186 0 187 170q0 31 -8.5 61.5t-31 54t-63.5 39t-106 15.5h-168v-340z" />
<glyph unicode="&#x45a;" horiz-adv-x="1478" d="M150 63v904q0 33 22.5 56.5t56.5 23.5q35 0 57.5 -24t22.5 -56v-365h393v365q0 33 23 56.5t57 23.5q35 0 57.5 -24t22.5 -56v-365h168q197 0 282 -78t85 -223q0 -135 -84 -218t-256 -83h-275q-35 0 -57.5 23.5t-22.5 56.5v387h-393v-404q0 -35 -22.5 -57t-57.5 -22 t-57 22.5t-22 56.5zM862 137h191q186 0 186 170q0 29 -8 57.5t-30.5 51t-63.5 37t-107 14.5h-168v-330z" />
<glyph unicode="&#x45b;" horiz-adv-x="1191" d="M51 1241q0 31 21.5 53.5t54.5 22.5h178v100q0 31 21.5 55.5t56.5 24.5t57.5 -22.5t22.5 -57.5v-100h174q31 0 52.5 -22.5t21.5 -53.5t-21.5 -52.5t-52.5 -21.5h-174v-262q53 41 117.5 63.5t138.5 22.5q164 0 241.5 -95t77.5 -245v-588q0 -35 -23.5 -57t-56.5 -22 q-35 0 -57 22.5t-22 56.5v586q0 96 -41 144.5t-138 48.5q-63 0 -127.5 -29t-109.5 -88v-662q0 -35 -21.5 -57t-56.5 -22t-57.5 22.5t-22.5 56.5v1104h-178q-33 0 -54.5 21.5t-21.5 52.5z" />
<glyph unicode="&#x45c;" horiz-adv-x="892" d="M150 0zM150 63v904q0 33 22.5 56.5t56.5 23.5q35 0 57.5 -24t22.5 -56v-365h125l266 404q25 39 66 38q31 0 52.5 -18t23.5 -49q0 -10 -3 -23.5t-10 -23.5l-280 -416l280 -416q6 -10 9.5 -23.5t3.5 -23.5q-2 -31 -23.5 -49t-52.5 -18q-41 0 -66 39l-292 444h-99v-404 q0 -35 -22.5 -57t-57.5 -22t-57 22.5t-22 56.5zM428 1247q0 18 10 31l160 166q23 20 35 33.5t40 13.5q23 0 43.5 -19.5t20.5 -48.5q0 -8 -2 -17t-8 -17l-166 -177q-18 -16 -31.5 -26t-34.5 -10q-29 0 -48 19t-19 52z" />
<glyph unicode="&#x45d;" horiz-adv-x="1085" d="M150 0zM150 70v895q0 35 21.5 59.5t55.5 24.5q35 0 58.5 -25t23.5 -59v-691l455 725q27 49 84 50q39 0 62.5 -26t23.5 -65v-895q0 -35 -22.5 -59t-57.5 -24t-57.5 24.5t-22.5 58.5v691l-452 -727q-31 -47 -82 -47q-41 0 -65.5 26.5t-24.5 63.5zM338 1423q0 29 20.5 48.5 t43.5 19.5q29 0 41 -13.5t35 -33.5l159 -166q10 -12 11 -31q0 -33 -20.5 -52t-47.5 -19q-20 0 -34.5 10t-31.5 26l-165 177q-6 8 -8.5 17t-2.5 17z" />
<glyph unicode="&#x45e;" horiz-adv-x="843" d="M33 0zM33 957.5v15.5q0 33 22.5 53.5t57.5 20.5q23 0 42 -13.5t29 -40.5l256 -776l224 776q10 27 30.5 40.5t42.5 13.5q31 0 55.5 -23t24.5 -57q0 -8 -4 -25l-250 -813q-37 -121 -72.5 -219t-85 -170t-117 -113t-167.5 -43q-35 0 -58.5 21.5t-23.5 56.5q0 29 20.5 51.5 t55.5 24.5q49 2 85 17.5t64.5 47t52 80.5t45.5 121l-325 940q-4 4 -4 13.5zM172 1337q-10 41 9.5 58.5t45.5 17.5q16 0 33.5 -8t28.5 -25q33 -47 65.5 -65.5t67.5 -18.5t67.5 18.5t65.5 65.5q10 16 27.5 24.5t33.5 8.5q27 0 45.5 -17.5t8.5 -58.5t-37 -72.5t-63 -52 t-74.5 -31t-73.5 -10.5t-74 10.5t-75 31t-63.5 52t-37.5 72.5z" />
<glyph unicode="&#x45f;" horiz-adv-x="1032" d="M150 80v891q0 35 22.5 57.5t56.5 22.5q35 0 57.5 -22.5t22.5 -57.5v-836h414v836q0 35 22.5 57.5t57.5 22.5t57.5 -22.5t22.5 -57.5v-891q0 -33 -22.5 -56.5t-57.5 -23.5h-207v-207q0 -35 -22.5 -57.5t-57.5 -22.5t-57.5 22.5t-22.5 57.5v207h-207q-35 0 -57 23.5 t-22 56.5z" />
<glyph unicode="&#x462;" horiz-adv-x="1318" d="M51 1262q0 29 23.5 55t58.5 26h197v142q0 33 23.5 57.5t58.5 24.5t58.5 -24.5t23.5 -57.5v-142h360q33 0 58.5 -22t25.5 -57q0 -33 -24.5 -56.5t-59.5 -23.5h-360v-312h235q211 0 336 -110.5t125 -321.5q0 -86 -24.5 -165.5t-79 -140t-142.5 -97.5t-215 -37h-301 q-41 0 -69.5 28.5t-28.5 69.5v1086h-197q-35 0 -58.5 24.5t-23.5 53.5zM494 160h235q90 0 148.5 24.5t91 63.5t45 89t12.5 101q0 274 -297 275h-235v-553z" />
<glyph unicode="&#x463;" horiz-adv-x="1191" d="M51 1141q0 31 21.5 52t54.5 21h178v183q0 35 22.5 57.5t57.5 22.5t57.5 -22.5t22.5 -57.5v-183h172q31 0 52.5 -22t21.5 -53t-21.5 -52.5t-52.5 -21.5h-172v-350h209q195 0 280.5 -91.5t85.5 -256.5q0 -166 -84 -266.5t-256 -100.5h-315q-35 0 -57.5 23.5t-22.5 56.5v985 h-178q-33 0 -54.5 22.5t-21.5 53.5zM465 137h231q186 0 187 228q0 39 -7.5 77.5t-30 69.5t-63.5 49.5t-108 18.5h-209v-443z" />
<glyph unicode="&#x490;" horiz-adv-x="880" d="M150 63v1291q0 35 25.5 63.5t66.5 28.5h473v186q0 33 23.5 57.5t58.5 24.5t58.5 -24.5t23.5 -57.5v-266q0 -35 -22.5 -57.5t-57.5 -22.5h-486v-1223q0 -33 -23.5 -57t-58.5 -24t-58 24.5t-23 56.5z" />
<glyph unicode="&#x491;" horiz-adv-x="768" d="M150 63v900q0 31 21.5 51t51.5 20h381v199q0 35 22.5 57.5t57.5 22.5t57.5 -22.5t22.5 -57.5v-262q0 -35 -22.5 -57.5t-57.5 -22.5h-375v-828q0 -35 -22.5 -57t-57.5 -22t-57 22.5t-22 56.5z" />
<glyph unicode="&#x2000;" horiz-adv-x="951" />
<glyph unicode="&#x2001;" horiz-adv-x="1903" />
<glyph unicode="&#x2002;" horiz-adv-x="951" />
<glyph unicode="&#x2003;" horiz-adv-x="1903" />
<glyph unicode="&#x2004;" horiz-adv-x="634" />
<glyph unicode="&#x2005;" horiz-adv-x="475" />
<glyph unicode="&#x2006;" horiz-adv-x="317" />
<glyph unicode="&#x2007;" horiz-adv-x="317" />
<glyph unicode="&#x2008;" horiz-adv-x="237" />
<glyph unicode="&#x2009;" horiz-adv-x="380" />
<glyph unicode="&#x200a;" horiz-adv-x="105" />
<glyph unicode="&#x2010;" horiz-adv-x="817" d="M78 604q0 31 21.5 53.5t54.5 22.5h510q31 0 52 -22.5t21 -53.5t-21.5 -52.5t-51.5 -21.5h-510q-33 0 -54.5 21.5t-21.5 52.5z" />
<glyph unicode="&#x2011;" horiz-adv-x="817" d="M78 604q0 31 21.5 53.5t54.5 22.5h510q31 0 52 -22.5t21 -53.5t-21.5 -52.5t-51.5 -21.5h-510q-33 0 -54.5 21.5t-21.5 52.5z" />
<glyph unicode="&#x2012;" horiz-adv-x="817" d="M78 604q0 31 21.5 53.5t54.5 22.5h510q31 0 52 -22.5t21 -53.5t-21.5 -52.5t-51.5 -21.5h-510q-33 0 -54.5 21.5t-21.5 52.5z" />
<glyph unicode="&#x2013;" horiz-adv-x="882" d="M78 588q0 31 21.5 53.5t54.5 22.5h573q33 0 54.5 -22.5t21.5 -53.5t-22.5 -52.5t-53.5 -21.5h-573q-33 0 -54.5 21.5t-21.5 52.5z" />
<glyph unicode="&#x2014;" horiz-adv-x="1085" d="M78 588q0 31 21.5 53.5t54.5 22.5h778q33 0 54.5 -22.5t21.5 -53.5t-22.5 -52.5t-53.5 -21.5h-778q-33 0 -54.5 21.5t-21.5 52.5z" />
<glyph unicode="&#x2018;" horiz-adv-x="471" d="M125 1149q0 51 16.5 110.5t41 109.5t51 83t47.5 33q16 0 27 -7.5t11 -27.5q0 -25 -8 -45.5t-20 -42t-25.5 -45t-21.5 -55.5q43 -4 71.5 -36t28.5 -77t-31.5 -77t-79.5 -32q-45 0 -76.5 32t-31.5 77z" />
<glyph unicode="&#x2019;" horiz-adv-x="471" d="M125 1376q0 45 31.5 77t79.5 32q45 0 76.5 -32t31.5 -77q0 -51 -16.5 -110.5t-41 -109.5t-51 -83t-47.5 -33q-16 0 -27 7.5t-11 27.5q0 25 8 45.5t20 42t24.5 45t22.5 56.5q-43 4 -71.5 35.5t-28.5 76.5z" />
<glyph unicode="&#x201a;" horiz-adv-x="471" d="M125 92q0 45 31.5 77t79.5 32q45 0 76.5 -32t31.5 -77q0 -51 -16.5 -110.5t-41 -109.5t-51 -83t-47.5 -33q-16 0 -27 7.5t-11 27.5q0 25 8 45.5t20 42t24.5 45t22.5 56.5q-43 4 -71.5 35.5t-28.5 76.5z" />
<glyph unicode="&#x201c;" horiz-adv-x="755" d="M125 1149q0 51 16.5 110.5t41 109.5t51 83t47.5 33q16 0 27 -7.5t11 -27.5q0 -25 -8 -45.5t-20 -42t-25.5 -45t-21.5 -55.5q43 -4 71.5 -36t28.5 -77t-31.5 -77t-79.5 -32q-45 0 -76.5 32t-31.5 77zM412 1149q0 51 16 110.5t41 109.5t51.5 83t46.5 33q39 0 39 -35 q0 -25 -8 -45.5t-20.5 -42t-25.5 -45t-22 -55.5q43 -4 72 -36t29 -77t-32 -77t-79 -32q-45 0 -76.5 32t-31.5 77z" />
<glyph unicode="&#x201d;" horiz-adv-x="755" d="M125 1376q0 45 31.5 77t79.5 32q45 0 76.5 -32t31.5 -77q0 -51 -16.5 -110.5t-41 -109.5t-51 -83t-47.5 -33q-39 0 -38 35q0 25 8 45.5t20 42t24.5 45t22.5 56.5q-43 4 -71.5 35.5t-28.5 76.5zM412 1376q0 45 31.5 77t78.5 32q45 0 77 -32t32 -77q0 -51 -16.5 -110.5 t-41 -109.5t-51 -83t-47.5 -33q-16 0 -27.5 7.5t-11.5 27.5q0 25 8.5 45.5t20.5 42t24.5 45t22.5 56.5q-43 4 -71.5 35.5t-28.5 76.5z" />
<glyph unicode="&#x201e;" horiz-adv-x="755" d="M125 92q0 47 31.5 78t79.5 31q45 0 76.5 -32t31.5 -77q0 -51 -16.5 -110.5t-41 -109.5t-51 -83t-47.5 -33q-39 0 -38 35q0 25 8 45.5t20 42t24.5 45t22.5 56.5q-43 4 -71.5 35.5t-28.5 76.5zM412 92q0 47 31.5 78t78.5 31q45 0 77 -32t32 -77q0 -51 -16.5 -110.5 t-41 -109.5t-51 -83t-47.5 -33q-16 0 -27.5 8.5t-11.5 26.5q0 25 8.5 45.5t20.5 42t24.5 45t22.5 56.5q-43 4 -71.5 35.5t-28.5 76.5z" />
<glyph unicode="&#x2022;" horiz-adv-x="620" d="M152 561q0 66 46 112t111 46q33 0 62.5 -12.5t51 -34t34 -50t12.5 -61.5q0 -66 -47 -113t-113 -47q-33 0 -61.5 12.5t-50 34t-33.5 51t-12 62.5z" />
<glyph unicode="&#x2026;" horiz-adv-x="1193" d="M125 90q0 47 31.5 79t76.5 32q47 0 79 -32t32 -79q0 -45 -31.5 -77.5t-79.5 -32.5q-45 0 -76.5 32.5t-31.5 77.5zM485 90q0 47 33 79t78 32q47 0 79 -32t32 -79q0 -45 -32 -77.5t-79 -32.5q-45 0 -78 32.5t-33 77.5zM850 90q0 47 31.5 79t76.5 32q47 0 79 -32t32 -79 q0 -45 -31.5 -77.5t-79.5 -32.5q-45 0 -76.5 32.5t-31.5 77.5z" />
<glyph unicode="&#x202f;" horiz-adv-x="380" />
<glyph unicode="&#x2039;" horiz-adv-x="651" d="M84 524l311 469q16 25 31.5 39.5t44.5 14.5t53.5 -21.5t24.5 -54.5q0 -10 -2 -19.5t-8 -19.5l-269 -404l287 -426q10 -16 10 -34q0 -35 -22.5 -59.5t-59.5 -24.5q-29 0 -44 13t-33 42z" />
<glyph unicode="&#x203a;" horiz-adv-x="651" d="M84 68q0 18 10 34l287 426l-268 404q-6 10 -8.5 19.5t-2.5 19.5q0 33 25 54.5t53 21.5q29 0 44.5 -14.5t31.5 -39.5l311 -469l-323 -485q-18 -29 -33.5 -42t-44.5 -13q-37 0 -59.5 24.5t-22.5 59.5z" />
<glyph unicode="&#x205f;" horiz-adv-x="475" />
<glyph unicode="&#x20ac;" d="M20 588q0 33 25 54.5t55 21.5h95v114h-95q-35 0 -57.5 21.5t-22.5 54.5t25 54.5t55 21.5h95v74q0 209 97 334.5t302 125.5q70 0 135.5 -14t115.5 -37.5t80.5 -55.5t30.5 -69q0 -29 -20.5 -50t-52.5 -21q-23 0 -35 9t-39 25q-90 63 -205 64q-70 0 -117 -21.5t-75.5 -61.5 t-41 -98.5t-12.5 -129.5v-74h373q31 0 55.5 -21.5t24.5 -54.5t-22.5 -54.5t-57.5 -21.5h-373v-114h291q31 0 55.5 -21.5t24.5 -54.5t-22.5 -54.5t-57.5 -21.5h-291v-70q0 -145 53.5 -228t192.5 -83q115 0 205 64q27 16 39 25t35 9q33 0 53 -21.5t20 -49.5q0 -37 -30.5 -69 t-80.5 -55.5t-115.5 -37.5t-135.5 -14q-205 0 -302 125.5t-97 334.5v70h-95q-35 0 -57.5 21.5t-22.5 54.5z" />
<glyph unicode="&#x2122;" horiz-adv-x="1583" d="M20 1391q0 25 17.5 42t44.5 17h510q25 0 42 -17t17 -42q0 -27 -17.5 -43.5t-41.5 -16.5h-195v-700q0 -25 -17.5 -42.5t-43.5 -17.5q-27 0 -44.5 17.5t-17.5 42.5v700h-192q-27 0 -44.5 16.5t-17.5 43.5zM758 629v768q0 29 17.5 46t45.5 17q41 0 62 -37l239 -493l242 493 q10 20 26.5 28.5t34.5 8.5q25 0 44.5 -19.5t19.5 -43.5v-768q0 -23 -18.5 -40.5t-40.5 -17.5q-25 0 -42.5 17.5t-17.5 40.5v549l-188 -387q-18 -37 -60 -37q-18 0 -34.5 10t-24.5 27l-189 387v-549q0 -23 -18 -40.5t-41 -17.5q-25 0 -41 17.5t-16 40.5z" />
<glyph unicode="&#x25fc;" horiz-adv-x="1044" d="M0 0v1044h1044v-1044h-1044z" />
</font>
</defs>
</svg>
