<svg width="72" height="96" viewBox="0 0 72 96" fill="none" xmlns="http://www.w3.org/2000/svg">
<g clip-path="url(#clip0)">
<path d="M39 81C39 79.3431 37.6569 78 36 78C34.3431 78 33 79.3431 33 81V93C33 94.6569 34.3431 96 36 96C37.6569 96 39 94.6569 39 93V81Z" fill="#F67C0D"/>
<path d="M37.5 69H34.5V81H37.5V69Z" fill="#F67C0D"/>
<path d="M36 3C42.5268 3 48.907 4.93542 54.3338 8.5615C59.7607 12.1876 63.9903 17.3415 66.488 23.3714C68.9857 29.4014 69.6392 36.0366 68.3659 42.438C67.0926 48.8394 63.9497 54.7194 59.3345 59.3345C54.7194 63.9497 48.8394 67.0926 42.438 68.3659C36.0366 69.6392 29.4014 68.9857 23.3715 66.488C17.3415 63.9903 12.1876 59.7606 8.56152 54.3338C4.93543 48.907 3.00002 42.5268 3.00002 36C3.00002 27.2479 6.47679 18.8542 12.6655 12.6655C18.8542 6.47678 27.2479 3 36 3ZM36 0C28.8799 0 21.9197 2.11136 15.9995 6.06709C10.0793 10.0228 5.46511 15.6453 2.74035 22.2234C0.0155983 28.8015 -0.697322 36.0399 0.691746 43.0233C2.08081 50.0066 5.50948 56.4212 10.5442 61.4558C15.5789 66.4905 21.9935 69.9192 28.9768 71.3083C35.9601 72.6973 43.1985 71.9844 49.7766 69.2597C56.3548 66.5349 61.9772 61.9207 65.9329 56.0005C69.8886 50.0804 72 43.1201 72 36C72 26.4522 68.2072 17.2955 61.4559 10.5442C54.7046 3.79285 45.5478 0 36 0V0Z" fill="#F67C0D"/>
<path d="M8.60993 26.6398C8.28416 26.6348 7.96595 26.7382 7.7053 26.9336C7.44465 27.1291 7.25633 27.4057 7.16993 27.7198C4.9752 35.366 5.90715 43.5708 9.76084 50.53C13.6145 57.4891 20.0744 62.6328 27.7199 64.8298C27.8586 64.8573 28.0013 64.8573 28.1399 64.8298C28.5378 64.8855 28.9414 64.7809 29.2621 64.539C29.5828 64.2971 29.7942 63.9377 29.8499 63.5398C29.9056 63.142 29.801 62.7383 29.5591 62.4177C29.3172 62.097 28.9578 61.8855 28.5599 61.8298C21.7053 59.8543 15.911 55.2464 12.4428 49.0126C8.97462 42.7788 8.11435 35.4258 10.0499 28.5598C10.1045 28.3687 10.1206 28.1687 10.0973 27.9714C10.0739 27.774 10.0116 27.5833 9.91391 27.4102C9.81622 27.2372 9.68512 27.0853 9.52821 26.9633C9.37131 26.8414 9.19174 26.7518 8.99993 26.6998H8.57993L8.60993 26.6398Z" fill="black"/>
<path d="M36 63C35.7033 63 35.4133 63.088 35.1666 63.2528C34.92 63.4176 34.7277 63.6519 34.6142 63.926C34.5006 64.2001 34.4709 64.5017 34.5288 64.7926C34.5867 65.0836 34.7296 65.3509 34.9393 65.5607C35.1491 65.7704 35.4164 65.9133 35.7074 65.9712C35.9983 66.0291 36.2999 65.9993 36.574 65.8858C36.8481 65.7723 37.0824 65.58 37.2472 65.3334C37.412 65.0867 37.5 64.7967 37.5 64.5C37.5 64.1022 37.342 63.7206 37.0607 63.4393C36.7794 63.158 36.3978 63 36 63Z" fill="black"/>
<path d="M58.2601 33.21C53.6063 28.5545 47.6004 25.4885 41.1001 24.45H40.4101L38.7001 24C37.8001 24 36.9001 24 36.0001 24C35.1001 24 34.2001 24 33.3001 24L31.5901 24.21H30.9001C24.3998 25.2485 18.3939 28.3145 13.7401 32.97C13.5995 33.1094 13.4879 33.2753 13.4117 33.4581C13.3356 33.6409 13.2964 33.837 13.2964 34.035C13.2964 34.233 13.3356 34.4291 13.4117 34.6119C13.4879 34.7947 13.5995 34.9606 13.7401 35.1C14.0205 35.3748 14.3975 35.5288 14.7901 35.5288C15.1827 35.5288 15.5597 35.3748 15.8401 35.1C16.6165 34.3319 17.438 33.6106 18.3001 32.94C19.0648 37.0761 21.2539 40.8138 24.4872 43.5041C27.7205 46.1944 31.7939 47.6674 36.0001 47.6674C40.2063 47.6674 44.2797 46.1944 47.513 43.5041C50.7463 40.8138 52.9353 37.0761 53.7001 32.94C54.5622 33.6106 55.3836 34.3319 56.1601 35.1C56.2966 35.2387 56.4604 35.3476 56.6411 35.4199C56.8218 35.4922 57.0156 35.5263 57.2101 35.52C57.4048 35.5281 57.5991 35.4949 57.7801 35.4225C57.9611 35.3501 58.1247 35.2402 58.2601 35.1C58.4769 34.8328 58.5952 34.4991 58.5952 34.155C58.5952 33.8109 58.4769 33.4772 58.2601 33.21ZM51.0001 31.53C50.596 35.202 48.8511 38.5958 46.0998 41.0609C43.3485 43.5261 39.7842 44.8893 36.0901 44.8893C32.3959 44.8893 28.8317 43.5261 26.0804 41.0609C23.329 38.5958 21.5842 35.202 21.1801 31.53C24.4096 29.3609 28.0759 27.9272 31.9201 27.33H32.3701C34.837 26.9701 37.3431 26.9701 39.8101 27.33H40.2601C44.1043 27.9272 47.7706 29.3609 51.0001 31.53Z" fill="#F67C0D"/>
<path d="M36 39C39.3137 39 42 36.3137 42 33C42 29.6863 39.3137 27 36 27C32.6863 27 30 29.6863 30 33C30 36.3137 32.6863 39 36 39Z" fill="#F67C0D"/>
</g>
<defs>
<clipPath id="clip0">
<rect width="72" height="96" fill="white"/>
</clipPath>
</defs>
</svg>
