<svg width="96" height="96" viewBox="0 0 96 96" fill="none" xmlns="http://www.w3.org/2000/svg">
<g clip-path="url(#clip0)">
<path d="M48 4C56.7024 4 65.2094 6.58055 72.4451 11.4153C79.6809 16.2501 85.3205 23.122 88.6507 31.1619C91.981 39.2019 92.8523 48.0488 91.1546 56.584C89.4568 65.1191 85.2662 72.9592 79.1127 79.1127C72.9592 85.2662 65.1192 89.4568 56.584 91.1545C48.0488 92.8523 39.2019 91.9809 31.1619 88.6507C23.122 85.3204 16.2501 79.6809 11.4154 72.4451C6.58058 65.2093 4.00002 56.7024 4.00002 48C4.00002 36.3305 8.63572 25.1389 16.8873 16.8873C25.1389 8.6357 36.3305 4 48 4ZM48 0C38.5065 0 29.2262 2.81515 21.3326 8.08946C13.4391 13.3638 7.28681 20.8603 3.6538 29.6312C0.0207977 38.402 -0.929762 48.0532 0.922328 57.3643C2.77442 66.6754 7.34598 75.2282 14.0589 81.9411C20.7718 88.654 29.3246 93.2256 38.6357 95.0777C47.9468 96.9298 57.598 95.9792 66.3688 92.3462C75.1397 88.7132 82.6363 82.5609 87.9106 74.6674C93.1849 66.7738 96 57.4935 96 48C96 35.2696 90.9429 23.0606 81.9411 14.0589C72.9394 5.05713 60.7304 0 48 0V0Z" fill="#F67C0D"/>
<path d="M48 84C47.6044 84 47.2178 84.1173 46.8889 84.3371C46.56 84.5568 46.3036 84.8692 46.1522 85.2346C46.0009 85.6001 45.9613 86.0022 46.0384 86.3902C46.1156 86.7781 46.3061 87.1345 46.5858 87.4142C46.8655 87.6939 47.2219 87.8844 47.6098 87.9616C47.9978 88.0387 48.3999 87.9991 48.7654 87.8478C49.1308 87.6964 49.4432 87.44 49.6629 87.1111C49.8827 86.7822 50 86.3956 50 86C50 85.4696 49.7893 84.9609 49.4142 84.5858C49.0391 84.2107 48.5304 84 48 84Z" fill="black"/>
<path d="M11.4799 35.5198C11.0455 35.5131 10.6213 35.6509 10.2737 35.9115C9.9262 36.1722 9.67511 36.5409 9.55991 36.9598C6.6336 47.1547 7.8762 58.0944 13.0145 67.3733C18.1527 76.6521 26.7659 83.5104 36.9599 86.4398C37.1448 86.4764 37.335 86.4764 37.5199 86.4398C37.9543 86.4464 38.3786 86.3086 38.7261 86.048C39.0736 85.7873 39.3247 85.4186 39.4399 84.9998C39.5134 84.7476 39.5366 84.4835 39.5081 84.2224C39.4795 83.9613 39.3998 83.7084 39.2735 83.4781C39.1472 83.2478 38.9768 83.0446 38.772 82.8802C38.5672 82.7158 38.3321 82.5933 38.0799 82.5198C28.9224 79.8865 21.1823 73.7302 16.5561 65.4C11.9299 57.0698 10.7949 47.2453 13.3999 38.0798C13.536 37.5655 13.4658 37.0183 13.2043 36.555C12.9427 36.0918 12.5106 35.749 11.9999 35.5998H11.4399L11.4799 35.5198Z" fill="black"/>
<path d="M64.9601 62.16L52.0001 48.96C52.0415 48.6413 52.0415 48.3187 52.0001 48C51.9889 47.3088 51.7988 46.6322 51.4483 46.0363C51.0978 45.4404 50.5988 44.9456 50.0001 44.6V34C50.0001 33.4696 49.7894 32.9609 49.4143 32.5858C49.0392 32.2107 48.5305 32 48.0001 32C47.4696 32 46.9609 32.2107 46.5859 32.5858C46.2108 32.9609 46.0001 33.4696 46.0001 34V44.6C45.2678 45.0531 44.7014 45.7305 44.3849 46.5313C44.0684 47.3321 44.0189 48.2137 44.2435 49.045C44.4682 49.8763 44.9551 50.6129 45.6319 51.1453C46.3087 51.6776 47.1393 51.9774 48.0001 52C48.3275 51.976 48.6503 51.9087 48.9601 51.8L62.1601 64.96C62.3439 65.1438 62.5622 65.2897 62.8024 65.3892C63.0426 65.4887 63.3001 65.5399 63.5601 65.5399C63.8201 65.5399 64.0775 65.4887 64.3178 65.3892C64.558 65.2897 64.7762 65.1438 64.9601 64.96C65.1439 64.7761 65.2898 64.5579 65.3893 64.3177C65.4888 64.0775 65.54 63.82 65.54 63.56C65.54 63.3 65.4888 63.0425 65.3893 62.8023C65.2898 62.5621 65.1439 62.3439 64.9601 62.16Z" fill="#F67C0D"/>
</g>
<defs>
<clipPath id="clip0">
<rect width="96" height="96" fill="white"/>
</clipPath>
</defs>
</svg>
