<svg width="84" height="96" viewBox="0 0 84 96" fill="none" xmlns="http://www.w3.org/2000/svg">
<g clip-path="url(#clip0)">
<path d="M69 51C70.5913 51 72.1174 51.6321 73.2426 52.7574C74.3679 53.8826 75 55.4087 75 57V87C75 88.5913 74.3679 90.1174 73.2426 91.2426C72.1174 92.3679 70.5913 93 69 93H15C13.4087 93 11.8826 92.3679 10.7574 91.2426C9.63214 90.1174 9 88.5913 9 87V57C9 55.4087 9.63214 53.8826 10.7574 52.7574C11.8826 51.6321 13.4087 51 15 51H69ZM69 48H15C12.6131 48 10.3239 48.9482 8.63604 50.636C6.94821 52.3239 6 54.6131 6 57V87C6 89.3869 6.94821 91.6761 8.63604 93.364C10.3239 95.0518 12.6131 96 15 96H69C71.3869 96 73.6761 95.0518 75.364 93.364C77.0518 91.6761 78 89.3869 78 87V57C78 54.6131 77.0518 52.3239 75.364 50.636C73.6761 48.9482 71.3869 48 69 48Z" fill="#F67C0D"/>
<path d="M9.41995 64.5004C7.97065 64.5227 6.54322 64.1454 5.29428 63.4098C4.04534 62.6742 3.02318 61.6087 2.33995 60.3304C1.72079 59.1628 1.43782 57.8463 1.52257 56.5274C1.60732 55.2086 2.05644 53.9391 2.81995 52.8604C3.5684 51.8105 4.55925 50.9568 5.7083 50.3718C6.85735 49.7868 8.13063 49.4879 9.41995 49.5004H74.58C75.8693 49.4879 77.1426 49.7868 78.2916 50.3718C79.4407 50.9568 80.4315 51.8105 81.18 52.8604C81.9435 53.9391 82.3926 55.2086 82.4773 56.5274C82.5621 57.8463 82.2791 59.1628 81.66 60.3304C80.9767 61.6087 79.9546 62.6742 78.7056 63.4098C77.4567 64.1454 76.0293 64.5227 74.58 64.5004H9.41995Z" fill="white"/>
<path d="M74.58 51.0003C75.6283 50.9916 76.6634 51.2351 77.598 51.7102C78.5326 52.1853 79.3392 52.8782 79.95 53.7303C80.5845 54.5873 80.9587 55.6089 81.0279 56.6729C81.097 57.737 80.8582 58.7984 80.34 59.7303C79.7703 60.7497 78.9322 61.5934 77.9167 62.1699C76.9012 62.7464 75.7472 63.0336 74.58 63.0003H9.41997C8.24359 63.0249 7.08328 62.7241 6.06692 62.1313C5.05057 61.5384 4.21765 60.6764 3.65997 59.6403C3.14173 58.7084 2.90291 57.647 2.97207 56.5829C3.04124 55.5189 3.41546 54.4973 4.04997 53.6403C4.67043 52.8048 5.48134 52.1293 6.41533 51.6702C7.34931 51.211 8.37939 50.9814 9.41997 51.0003H74.58ZM74.58 48.0003H9.41997C7.88706 47.9874 6.37388 48.3464 5.01015 49.0466C3.64642 49.7467 2.47282 50.7671 1.58997 52.0203C0.671902 53.3998 0.152501 55.006 0.0890081 56.6618C0.0255154 58.3177 0.420396 59.9589 1.23013 61.4046C2.03987 62.8503 3.23302 64.0445 4.6781 64.8554C6.12318 65.6663 7.76408 66.0625 9.41997 66.0003H74.58C76.2359 66.0625 77.8768 65.6663 79.3218 64.8554C80.7669 64.0445 81.9601 62.8503 82.7698 61.4046C83.5795 59.9589 83.9744 58.3177 83.9109 56.6618C83.8474 55.006 83.328 53.3998 82.41 52.0203C81.5271 50.7671 80.3535 49.7467 78.9898 49.0466C77.6261 48.3464 76.1129 47.9874 74.58 48.0003Z" fill="#F67C0D"/>
<path d="M19.5 87C18.3065 87 17.1619 86.5259 16.318 85.682C15.4741 84.8381 15 83.6935 15 82.5V72H12V82.5C12 84.4891 12.7902 86.3968 14.1967 87.8033C15.6032 89.2098 17.5109 90 19.5 90H42V87H19.5Z" fill="black"/>
<path d="M42 90C42.8284 90 43.5 89.3284 43.5 88.5C43.5 87.6716 42.8284 87 42 87C41.1716 87 40.5 87.6716 40.5 88.5C40.5 89.3284 41.1716 90 42 90Z" fill="black"/>
<path d="M13.5 73.5C14.3284 73.5 15 72.8284 15 72C15 71.1716 14.3284 70.5 13.5 70.5C12.6716 70.5 12 71.1716 12 72C12 72.8284 12.6716 73.5 13.5 73.5Z" fill="black"/>
<path d="M51 90C51.8284 90 52.5 89.3284 52.5 88.5C52.5 87.6716 51.8284 87 51 87C50.1716 87 49.5 87.6716 49.5 88.5C49.5 89.3284 50.1716 90 51 90Z" fill="black"/>
<path d="M62.37 18.51L60.72 12C61.3856 11.8357 61.9749 11.4485 62.3898 10.9026C62.8046 10.3568 63.02 9.6853 63 9V6C63 5.20435 62.6839 4.44129 62.1213 3.87868C61.5587 3.31607 60.7957 3 60 3H45.66C44.8212 2.06221 43.7952 1.31069 42.648 0.793961C41.5009 0.277227 40.2581 0.00675491 39 0L27 0C24.6131 0 22.3239 0.948211 20.636 2.63604C18.9482 4.32387 18 6.61305 18 9V21C18 23.3869 18.9482 25.6761 20.636 27.364C22.3239 29.0518 24.6131 30 27 30H60C61.3722 29.9885 62.699 29.507 63.7591 28.6358C64.8193 27.7645 65.5488 26.5562 65.826 25.2123C66.1033 23.8684 65.9114 22.47 65.2825 21.2504C64.6536 20.0307 63.6256 19.0635 62.37 18.51ZM48 12H57.66L59.16 18H48V12ZM48 6H60V9H48V6ZM45 27H27C25.4087 27 23.8826 26.3679 22.7574 25.2426C21.6321 24.1174 21 22.5913 21 21V9C21 7.4087 21.6321 5.88258 22.7574 4.75736C23.8826 3.63214 25.4087 3 27 3H39C40.5913 3 42.1174 3.63214 43.2426 4.75736C44.3679 5.88258 45 7.4087 45 9V27ZM60 27.18H48V21H60.96C61.7008 21.2089 62.3395 21.6819 62.7555 22.3295C63.1714 22.9771 63.3358 23.7547 63.2177 24.5153C63.0995 25.2759 62.707 25.9669 62.1142 26.4578C61.5213 26.9488 60.7693 27.2057 60 27.18Z" fill="#F67C0D"/>
<path d="M25.5 21C26.3284 21 27 20.3284 27 19.5C27 18.6716 26.3284 18 25.5 18C24.6716 18 24 18.6716 24 19.5C24 20.3284 24.6716 21 25.5 21Z" fill="#F67C0D"/>
<path d="M33 6H28.5C27.3065 6 26.1619 6.47411 25.318 7.31802C24.4741 8.16193 24 9.30653 24 10.5V15C24 15.3978 24.158 15.7794 24.4393 16.0607C24.7206 16.342 25.1022 16.5 25.5 16.5C25.8978 16.5 26.2794 16.342 26.5607 16.0607C26.842 15.7794 27 15.3978 27 15V10.5C27.0077 10.1046 27.1682 9.7275 27.4478 9.44784C27.7275 9.16818 28.1046 9.00768 28.5 9H33C33.3978 9 33.7794 8.84196 34.0607 8.56066C34.342 8.27936 34.5 7.89782 34.5 7.5C34.5 7.10218 34.342 6.72064 34.0607 6.43934C33.7794 6.15804 33.3978 6 33 6Z" fill="#F67C0D"/>
<path d="M57 34.5C59.4853 34.5 61.5 32.4853 61.5 30C61.5 27.5147 59.4853 25.5 57 25.5C54.5147 25.5 52.5 27.5147 52.5 30C52.5 32.4853 54.5147 34.5 57 34.5Z" fill="#F5F5F5"/>
<path d="M57 27C57.5933 27 58.1734 27.1759 58.6667 27.5056C59.1601 27.8352 59.5446 28.3038 59.7716 28.8519C59.9987 29.4001 60.0581 30.0033 59.9424 30.5853C59.8266 31.1672 59.5409 31.7018 59.1213 32.1213C58.7018 32.5409 58.1672 32.8266 57.5853 32.9424C57.0033 33.0581 56.4001 32.9987 55.852 32.7716C55.3038 32.5446 54.8352 32.1601 54.5056 31.6667C54.1759 31.1734 54 30.5933 54 30C54 29.2044 54.3161 28.4413 54.8787 27.8787C55.4413 27.3161 56.2044 27 57 27ZM57 24C55.8133 24 54.6533 24.3519 53.6666 25.0112C52.6799 25.6705 51.9109 26.6075 51.4567 27.7039C51.0026 28.8003 50.8838 30.0067 51.1153 31.1705C51.3468 32.3344 51.9182 33.4035 52.7574 34.2426C53.5965 35.0818 54.6656 35.6532 55.8295 35.8847C56.9933 36.1162 58.1997 35.9974 59.2961 35.5433C60.3925 35.0892 61.3295 34.3201 61.9888 33.3334C62.6481 32.3467 63 31.1867 63 30C63 28.4087 62.3679 26.8826 61.2426 25.7574C60.1174 24.6321 58.5913 24 57 24Z" fill="#F67C0D"/>
<path d="M57 31.5C57.8284 31.5 58.5 30.8284 58.5 30C58.5 29.1716 57.8284 28.5 57 28.5C56.1716 28.5 55.5 29.1716 55.5 30C55.5 30.8284 56.1716 31.5 57 31.5Z" fill="#F67C0D"/>
<path d="M30 34.5C32.4853 34.5 34.5 32.4853 34.5 30C34.5 27.5147 32.4853 25.5 30 25.5C27.5147 25.5 25.5 27.5147 25.5 30C25.5 32.4853 27.5147 34.5 30 34.5Z" fill="#F5F5F5"/>
<path d="M30 27C30.5933 27 31.1734 27.1759 31.6667 27.5056C32.1601 27.8352 32.5446 28.3038 32.7716 28.8519C32.9987 29.4001 33.0581 30.0033 32.9424 30.5853C32.8266 31.1672 32.5409 31.7018 32.1213 32.1213C31.7018 32.5409 31.1672 32.8266 30.5853 32.9424C30.0033 33.0581 29.4001 32.9987 28.852 32.7716C28.3038 32.5446 27.8352 32.1601 27.5056 31.6667C27.1759 31.1734 27 30.5933 27 30C27 29.2044 27.3161 28.4413 27.8787 27.8787C28.4413 27.3161 29.2044 27 30 27ZM30 24C28.8133 24 27.6533 24.3519 26.6666 25.0112C25.6799 25.6705 24.9109 26.6075 24.4567 27.7039C24.0026 28.8003 23.8838 30.0067 24.1153 31.1705C24.3468 32.3344 24.9182 33.4035 25.7574 34.2426C26.5965 35.0818 27.6656 35.6532 28.8295 35.8847C29.9933 36.1162 31.1997 35.9974 32.2961 35.5433C33.3925 35.0892 34.3295 34.3201 34.9888 33.3334C35.6481 32.3467 36 31.1867 36 30C36 28.4087 35.3679 26.8826 34.2426 25.7574C33.1174 24.6321 31.5913 24 30 24Z" fill="#F67C0D"/>
<path d="M30 31.5C30.8284 31.5 31.5 30.8284 31.5 30C31.5 29.1716 30.8284 28.5 30 28.5C29.1716 28.5 28.5 29.1716 28.5 30C28.5 30.8284 29.1716 31.5 30 31.5Z" fill="#F67C0D"/>
</g>
<defs>
<clipPath id="clip0">
<rect width="84" height="96" fill="white"/>
</clipPath>
</defs>
</svg>
