<svg width="56" height="64" viewBox="0 0 56 64" fill="none" xmlns="http://www.w3.org/2000/svg">
<g clip-path="url(#clip0)">
<path d="M46 34C47.0609 34 48.0783 34.4214 48.8284 35.1716C49.5786 35.9217 50 36.9391 50 38V58C50 59.0609 49.5786 60.0783 48.8284 60.8284C48.0783 61.5786 47.0609 62 46 62H10C8.93913 62 7.92172 61.5786 7.17157 60.8284C6.42143 60.0783 6 59.0609 6 58V38C6 36.9391 6.42143 35.9217 7.17157 35.1716C7.92172 34.4214 8.93913 34 10 34H46ZM46 32H10C8.4087 32 6.88258 32.6321 5.75736 33.7574C4.63214 34.8826 4 36.4087 4 38V58C4 59.5913 4.63214 61.1174 5.75736 62.2426C6.88258 63.3679 8.4087 64 10 64H46C47.5913 64 49.1174 63.3679 50.2426 62.2426C51.3679 61.1174 52 59.5913 52 58V38C52 36.4087 51.3679 34.8826 50.2426 33.7574C49.1174 32.6321 47.5913 32 46 32Z" fill="#F67C0D"/>
<path d="M6.28003 43.0003C5.31252 43.022 4.35815 42.7733 3.52429 42.2822C2.69042 41.791 2.01016 41.0769 1.56003 40.2203C1.14725 39.4419 0.958611 38.5642 1.01511 37.685C1.07161 36.8057 1.37102 35.9594 1.88003 35.2403C2.379 34.5403 3.03956 33.9712 3.80559 33.5812C4.57163 33.1912 5.42048 32.9919 6.28003 33.0003H49.72C50.5796 32.9919 51.4284 33.1912 52.1945 33.5812C52.9605 33.9712 53.6211 34.5403 54.12 35.2403C54.629 35.9594 54.9284 36.8057 54.9849 37.685C55.0414 38.5642 54.8528 39.4419 54.44 40.2203C53.9899 41.0769 53.3096 41.791 52.4758 42.2822C51.6419 42.7733 50.6875 43.022 49.72 43.0003H6.28003Z" fill="white"/>
<path d="M49.72 34.0002C50.4189 33.9944 51.109 34.1567 51.732 34.4735C52.3551 34.7902 52.8928 35.2521 53.3 35.8202C53.723 36.3915 53.9725 37.0726 54.0186 37.782C54.0647 38.4913 53.9055 39.199 53.56 39.8202C53.1802 40.4998 52.6215 41.0623 51.9445 41.4466C51.2675 41.8309 50.4981 42.0224 49.72 42.0002H6.27998C5.49573 42.0166 4.72218 41.8161 4.04462 41.4208C3.36705 41.0256 2.81177 40.4509 2.43998 39.7602C2.09449 39.139 1.93527 38.4313 1.98138 37.722C2.02749 37.0126 2.27697 36.3315 2.69998 35.7602C3.11362 35.2032 3.65423 34.7529 4.27689 34.4468C4.89954 34.1407 5.58626 33.9876 6.27998 34.0002H49.72ZM49.72 32.0002H6.27998C5.25804 31.9916 4.24926 32.2309 3.3401 32.6977C2.43095 33.1645 1.64855 33.8447 1.05998 34.6802C0.447935 35.5999 0.101667 36.6707 0.0593388 37.7745C0.0170103 38.8784 0.280264 39.9726 0.820088 40.9364C1.35991 41.9002 2.15535 42.6963 3.11873 43.2369C4.08212 43.7775 5.17606 44.0417 6.27998 44.0002H49.72C50.8239 44.0417 51.9178 43.7775 52.8812 43.2369C53.8446 42.6963 54.64 41.9002 55.1799 40.9364C55.7197 39.9726 55.983 38.8784 55.9406 37.7745C55.8983 36.6707 55.552 35.5999 54.94 34.6802C54.3514 33.8447 53.569 33.1645 52.6599 32.6977C51.7507 32.2309 50.7419 31.9916 49.72 32.0002Z" fill="#F67C0D"/>
<path d="M28 58H13C12.2044 58 11.4413 57.6839 10.8787 57.1213C10.3161 56.5587 10 55.7956 10 55V48C10 47.7348 9.89464 47.4804 9.70711 47.2929C9.51957 47.1054 9.26522 47 9 47C8.73478 47 8.48043 47.1054 8.29289 47.2929C8.10536 47.4804 8 47.7348 8 48V55C8 56.3261 8.52678 57.5979 9.46447 58.5355C10.4021 59.4732 11.6739 60 13 60H28C28.2652 60 28.5196 59.8946 28.7071 59.7071C28.8946 59.5196 29 59.2652 29 59C29 58.7348 28.8946 58.4804 28.7071 58.2929C28.5196 58.1054 28.2652 58 28 58Z" fill="#F67C0D"/>
<path d="M34 60C34.5523 60 35 59.5523 35 59C35 58.4477 34.5523 58 34 58C33.4477 58 33 58.4477 33 59C33 59.5523 33.4477 60 34 60Z" fill="#F67C0D"/>
<path d="M26.7599 25.84C25.9297 25.8432 25.1119 25.638 24.3816 25.2431C23.6513 24.8483 23.0318 24.2764 22.5799 23.58C21.9496 22.5741 21.6869 21.3811 21.8364 20.2036C21.9859 19.026 22.5383 17.9365 23.3999 17.12L29.0599 11.46C29.8111 10.7133 30.2354 9.69915 30.2399 8.64V2C30.2399 1.73478 30.3452 1.48043 30.5328 1.29289C30.7203 1.10536 30.9747 1 31.2399 1H39.2399C39.5051 1 39.7595 1.10536 39.947 1.29289C40.1345 1.48043 40.2399 1.73478 40.2399 2V12.2C40.2637 12.8792 40.1482 13.5561 39.9005 14.1889C39.6529 14.8218 39.2783 15.3973 38.7999 15.88L30.3199 24.38C29.8553 24.8449 29.3034 25.2133 28.6958 25.4638C28.0883 25.7144 27.4371 25.8423 26.7799 25.84H26.7599Z" fill="white"/>
<path d="M39.2399 2V12.22C39.2488 12.7723 39.1432 13.3204 38.9298 13.8298C38.7164 14.3392 38.3998 14.799 37.9999 15.18L29.4999 23.66C28.7532 24.4112 27.7391 24.8355 26.6799 24.84C26.0125 24.841 25.3554 24.6751 24.7685 24.3572C24.1817 24.0393 23.6837 23.5796 23.3199 23.02C22.8314 22.2004 22.6365 21.2388 22.7674 20.2937C22.8983 19.3485 23.3471 18.4761 24.0399 17.82L29.6999 12.16C30.1633 11.6985 30.5309 11.1499 30.7815 10.5458C31.032 9.9417 31.1606 9.29401 31.1599 8.64V2H39.1599H39.2399ZM39.1599 0H31.1599C30.6295 0 30.1208 0.210714 29.7457 0.585786C29.3706 0.960859 29.1599 1.46957 29.1599 2V8.64C29.1549 9.43451 28.839 10.1955 28.2799 10.76L22.6999 16.4C21.678 17.3853 21.0252 18.6914 20.8504 20.1001C20.6757 21.5089 20.9897 22.9349 21.7399 24.14C22.2298 24.8847 22.8795 25.5108 23.6418 25.9729C24.404 26.4351 25.2596 26.7216 26.1464 26.8116C27.0332 26.9016 27.929 26.7929 28.7685 26.4934C29.6081 26.1938 30.3703 25.711 30.9999 25.08L39.4799 16.6C40.058 16.0182 40.5107 15.324 40.81 14.5603C41.1092 13.7966 41.2488 12.9797 41.2199 12.16C41.2199 12.16 41.2199 12.16 41.2199 12V2C41.2199 1.46957 41.0092 0.960859 40.6341 0.585786C40.2591 0.210714 39.7504 0 39.2199 0L39.1599 0Z" fill="#F67C0D"/>
<path d="M26.76 25.8403C25.7698 25.842 24.8013 25.5498 23.9775 25.0005C23.1536 24.4512 22.5113 23.6696 22.1321 22.7549C21.753 21.8402 21.6539 20.8335 21.8476 19.8624C22.0413 18.8913 22.5189 17.9996 23.22 17.3003L24.24 16.2803C25.9976 16.6062 27.615 17.4573 28.879 18.7213C30.143 19.9852 30.9941 21.6027 31.32 23.3603L30.3 24.3803C29.8355 24.8452 29.2835 25.2135 28.6759 25.4641C28.0684 25.7147 27.4172 25.8425 26.76 25.8403Z" fill="#F5F5F5"/>
<path d="M24.5599 17.3797C25.9231 17.7122 27.1729 18.4026 28.1799 19.3797C29.1524 20.3902 29.8421 21.6386 30.1799 22.9997L29.5399 23.6197C28.7932 24.3709 27.7791 24.7953 26.7199 24.7997C25.6591 24.7997 24.6417 24.3783 23.8915 23.6282C23.1414 22.878 22.7199 21.8606 22.7199 20.7997C22.7378 20.2716 22.8601 19.7522 23.0798 19.2716C23.2995 18.7911 23.6122 18.3588 23.9999 17.9997L24.6399 17.3797H24.5599ZM23.9999 15.2197L22.6199 16.5997C22.0304 17.149 21.5576 17.8114 21.2297 18.5474C20.9017 19.2834 20.7254 20.0779 20.7112 20.8835C20.697 21.6892 20.8452 22.4894 21.147 23.2365C21.4487 23.9836 21.8979 24.6623 22.4676 25.232C23.0374 25.8018 23.716 26.2509 24.4632 26.5527C25.2103 26.8545 26.0105 27.0027 26.8161 26.9885C27.6217 26.9742 28.4162 26.7979 29.1522 26.47C29.8882 26.142 30.5506 25.6692 31.0999 25.0797L32.4799 23.6997C32.2051 21.5467 31.2232 19.5459 29.6885 18.0112C28.1537 16.4764 26.1529 15.4946 23.9999 15.2197Z" fill="#F67C0D"/>
<path d="M41.24 4H29.24V6H41.24V4Z" fill="#F67C0D"/>
<path d="M20.7599 25.84C19.9297 25.8432 19.1119 25.638 18.3816 25.2431C17.6513 24.8483 17.0318 24.2764 16.5799 23.58C15.9496 22.5741 15.6869 21.3811 15.8364 20.2036C15.9859 19.026 16.5383 17.9365 17.3999 17.12L23.0599 11.46C23.8111 10.7133 24.2354 9.69915 24.2399 8.64V2C24.2399 1.73478 24.3452 1.48043 24.5328 1.29289C24.7203 1.10536 24.9747 1 25.2399 1H33.2399C33.5051 1 33.7594 1.10536 33.947 1.29289C34.1345 1.48043 34.2399 1.73478 34.2399 2V12.2C34.2685 12.8798 34.1552 13.558 33.9073 14.1916C33.6594 14.8252 33.2822 15.4002 32.7999 15.88L24.3199 24.38C23.8553 24.8449 23.3034 25.2133 22.6958 25.4638C22.0882 25.7144 21.4371 25.8423 20.7799 25.84H20.7599Z" fill="white"/>
<path d="M33.2399 2V12.22C33.2488 12.7723 33.1432 13.3204 32.9298 13.8298C32.7164 14.3392 32.3998 14.799 31.9999 15.18L23.4999 23.66C22.7532 24.4112 21.7391 24.8355 20.6799 24.84C20.0125 24.841 19.3554 24.6751 18.7685 24.3572C18.1817 24.0393 17.6837 23.5796 17.3199 23.02C16.8314 22.2004 16.6365 21.2388 16.7674 20.2937C16.8983 19.3485 17.3471 18.4761 18.0399 17.82L23.6999 12.16C24.1633 11.6985 24.5309 11.1499 24.7815 10.5458C25.032 9.9417 25.1606 9.29401 25.1599 8.64V2H33.1599H33.2399ZM33.1599 0H25.1599C24.6295 0 24.1208 0.210714 23.7457 0.585786C23.3706 0.960859 23.1599 1.46957 23.1599 2V8.64C23.1549 9.43451 22.839 10.1955 22.2799 10.76L16.6999 16.4C15.678 17.3853 15.0252 18.6914 14.8504 20.1001C14.6757 21.5089 14.9897 22.9349 15.7399 24.14C16.2298 24.8847 16.8795 25.5108 17.6418 25.9729C18.404 26.4351 19.2596 26.7216 20.1464 26.8116C21.0332 26.9016 21.929 26.7929 22.7685 26.4934C23.6081 26.1938 24.3703 25.711 24.9999 25.08L33.4799 16.6C34.058 16.0182 34.5107 15.324 34.81 14.5603C35.1092 13.7966 35.2488 12.9797 35.2199 12.16C35.2199 12.16 35.2199 12.16 35.2199 12V2C35.2199 1.46957 35.0092 0.960859 34.6341 0.585786C34.2591 0.210714 33.7504 0 33.2199 0L33.1599 0Z" fill="#F67C0D"/>
<path d="M20.76 25.8403C19.7698 25.842 18.8013 25.5498 17.9775 25.0005C17.1536 24.4512 16.5113 23.6696 16.1321 22.7549C15.753 21.8402 15.6539 20.8335 15.8476 19.8624C16.0413 18.8913 16.5189 17.9996 17.22 17.3003L18.24 16.2803C19.9976 16.6062 21.615 17.4573 22.879 18.7213C24.143 19.9852 24.9941 21.6027 25.32 23.3603L24.3 24.3803C23.8355 24.8452 23.2835 25.2135 22.6759 25.4641C22.0684 25.7147 21.4172 25.8425 20.76 25.8403Z" fill="#F5F5F5"/>
<path d="M18.5599 17.3797C19.9231 17.7122 21.1729 18.4026 22.1799 19.3797C23.1524 20.3902 23.8421 21.6386 24.1799 22.9997L23.5399 23.6197C22.7932 24.3709 21.7791 24.7953 20.7199 24.7997C19.6591 24.7997 18.6417 24.3783 17.8915 23.6282C17.1414 22.878 16.7199 21.8606 16.7199 20.7997C16.7378 20.2716 16.8601 19.7522 17.0798 19.2716C17.2995 18.7911 17.6122 18.3588 17.9999 17.9997L18.6399 17.3797H18.5599ZM17.9999 15.2197L16.6199 16.5997C16.0304 17.149 15.5576 17.8114 15.2297 18.5474C14.9017 19.2834 14.7254 20.0779 14.7112 20.8835C14.697 21.6892 14.8452 22.4894 15.147 23.2365C15.4487 23.9836 15.8979 24.6623 16.4676 25.232C17.0374 25.8018 17.716 26.2509 18.4632 26.5527C19.2103 26.8545 20.0105 27.0027 20.8161 26.9885C21.6217 26.9742 22.4162 26.7979 23.1522 26.47C23.8882 26.142 24.5506 25.6692 25.0999 25.0797L26.4799 23.6997C26.2051 21.5467 25.2232 19.5459 23.6885 18.0112C22.1537 16.4764 20.1529 15.4946 17.9999 15.2197Z" fill="#F67C0D"/>
<path d="M35.24 4H23.24V6H35.24V4Z" fill="#F67C0D"/>
</g>
<defs>
<clipPath id="clip0">
<rect width="56" height="64" fill="white"/>
</clipPath>
</defs>
</svg>
