<svg width="64" height="64" viewBox="0 0 64 64" fill="none" xmlns="http://www.w3.org/2000/svg">
<g clip-path="url(#clip0)">
<path d="M58 28.5597C57.2104 28.5551 56.4276 28.7065 55.6966 29.005C54.9655 29.3036 54.3006 29.7436 53.74 30.2997L45.14 38.8997C44.8906 38.7467 44.6298 38.6129 44.36 38.4997H44.16C43.8992 38.4012 43.6319 38.321 43.36 38.2597H43.04C42.7016 38.1428 42.3536 38.0559 42 37.9997H23.18C21.0138 36.6909 18.5309 35.9993 16 35.9997C14.5875 36.0026 13.1841 36.2253 11.84 36.6597C11.9436 37.0989 11.9972 37.5484 12 37.9997V38.7197C13.2821 38.2517 14.6352 38.0081 16 37.9997C18.1711 38.0052 20.3001 38.5996 22.16 39.7197L22.62 39.9997H42C42.3378 40.0056 42.6736 40.0526 43 40.1397H43.2C43.4791 40.23 43.7473 40.3507 44 40.4997C44.781 40.9315 45.3951 41.6121 45.7447 42.4331C46.0943 43.2542 46.1593 44.1686 45.9294 45.0308C45.6994 45.8931 45.1878 46.6537 44.4758 47.1917C43.7637 47.7296 42.8923 48.0141 42 47.9997H30C29.7348 47.9997 29.4804 48.105 29.2929 48.2926C29.1054 48.4801 29 48.7345 29 48.9997C29 49.2649 29.1054 49.5192 29.2929 49.7068C29.4804 49.8943 29.7348 49.9997 30 49.9997H42C43.1284 49.993 44.2321 49.6682 45.1843 49.0626C46.1365 48.457 46.8986 47.5951 47.3832 46.5759C47.8677 45.5568 48.055 44.4216 47.9235 43.3008C47.7921 42.1801 47.3472 41.1191 46.64 40.2397L55.16 31.7197C55.5319 31.3448 55.9743 31.0472 56.4617 30.8441C56.9491 30.641 57.472 30.5365 58 30.5365C58.528 30.5365 59.0509 30.641 59.5383 30.8441C60.0257 31.0472 60.4681 31.3448 60.84 31.7197C61.2107 32.0934 61.504 32.5367 61.7031 33.024C61.9021 33.5114 62.003 34.0332 62 34.5597C62.0008 35.616 61.5838 36.6297 60.84 37.3797L46.58 51.6397L41.4 56.8197C40.6533 57.5709 39.6392 57.9952 38.58 57.9997H10V59.9997H38.58C40.1708 59.9983 41.6959 59.3652 42.82 58.2397L48 53.0597L62.26 38.7997C63.0993 37.9594 63.6703 36.8889 63.9007 35.7239C64.1311 34.5588 64.0107 33.3516 63.5545 32.255C63.0983 31.1585 62.327 30.222 61.3382 29.5642C60.3494 28.9064 59.1876 28.5568 58 28.5597Z" fill="#F67C0D"/>
<path d="M24 48C23.8022 48 23.6089 48.0586 23.4444 48.1685C23.28 48.2784 23.1518 48.4346 23.0761 48.6173C23.0004 48.8 22.9806 49.0011 23.0192 49.1951C23.0578 49.3891 23.153 49.5673 23.2929 49.7071C23.4327 49.847 23.6109 49.9422 23.8049 49.9808C23.9989 50.0194 24.2 49.9996 24.3827 49.9239C24.5654 49.8482 24.7216 49.72 24.8315 49.5556C24.9414 49.3911 25 49.1978 25 49C25 48.7348 24.8946 48.4804 24.7071 48.2929C24.5196 48.1054 24.2652 48 24 48Z" fill="#F67C0D"/>
<path d="M6 34C7.06087 34 8.07828 34.4214 8.82843 35.1716C9.57857 35.9217 10 36.9391 10 38V58C10 59.0609 9.57857 60.0783 8.82843 60.8284C8.07828 61.5786 7.06087 62 6 62C4.93913 62 3.92172 61.5786 3.17157 60.8284C2.42143 60.0783 2 59.0609 2 58V38C2 36.9391 2.42143 35.9217 3.17157 35.1716C3.92172 34.4214 4.93913 34 6 34ZM6 32C4.4087 32 2.88258 32.6321 1.75736 33.7574C0.632141 34.8826 0 36.4087 0 38L0 58C0 59.5913 0.632141 61.1174 1.75736 62.2426C2.88258 63.3679 4.4087 64 6 64C7.5913 64 9.11742 63.3679 10.2426 62.2426C11.3679 61.1174 12 59.5913 12 58V38C12 36.4087 11.3679 34.8826 10.2426 33.7574C9.11742 32.6321 7.5913 32 6 32Z" fill="#F67C0D"/>
<path d="M32 2C34.769 2 37.4757 2.82109 39.778 4.35943C42.0803 5.89777 43.8747 8.08427 44.9343 10.6424C45.994 13.2006 46.2712 16.0155 45.731 18.7313C45.1908 21.447 43.8575 23.9416 41.8995 25.8995C39.9416 27.8574 37.447 29.1908 34.7313 29.731C32.0155 30.2712 29.2006 29.9939 26.6424 28.9343C24.0843 27.8747 21.8978 26.0803 20.3594 23.778C18.8211 21.4757 18 18.7689 18 16C18 12.287 19.475 8.72601 22.1005 6.1005C24.726 3.475 28.287 2 32 2ZM32 0C28.8355 0 25.7421 0.938384 23.1109 2.69649C20.4797 4.45459 18.4289 6.95345 17.2179 9.87706C16.0069 12.8007 15.6901 16.0177 16.3074 19.1214C16.9248 22.2251 18.4487 25.0761 20.6863 27.3137C22.9239 29.5513 25.7749 31.0752 28.8786 31.6926C31.9823 32.3099 35.1993 31.9931 38.123 30.7821C41.0466 29.5711 43.5454 27.5203 45.3035 24.8891C47.0616 22.2579 48 19.1645 48 16C48 11.7565 46.3143 7.68687 43.3137 4.68629C40.3131 1.68571 36.2435 0 32 0V0Z" fill="#F67C0D"/>
<path d="M29.24 25.6198C27.9761 25.2583 26.7959 24.6511 25.7669 23.833C24.7379 23.0149 23.8802 22.002 23.2431 20.8521C22.6059 19.7023 22.2017 18.4381 22.0536 17.1319C21.9055 15.8257 22.0164 14.5031 22.38 13.2398C22.4543 12.9852 22.4243 12.7115 22.2968 12.4789C22.1693 12.2464 21.9546 12.074 21.7 11.9998C21.4428 11.9317 21.1693 11.9668 20.9376 12.0976C20.706 12.2283 20.5346 12.4444 20.46 12.6998C20.0263 14.2152 19.8954 15.8013 20.0748 17.3673C20.2542 18.9334 20.7404 20.4487 21.5056 21.8268C22.2708 23.2049 23.3 24.4188 24.5345 25.399C25.7689 26.3793 27.1844 27.1067 28.7 27.5398C28.9546 27.6072 29.2255 27.5716 29.4539 27.4405C29.6823 27.3094 29.8498 27.0936 29.92 26.8398C29.9594 26.7151 29.9729 26.5836 29.9597 26.4535C29.9465 26.3234 29.9068 26.1973 29.8432 26.0831C29.7795 25.9688 29.6931 25.8688 29.5894 25.7891C29.4857 25.7095 29.3668 25.6518 29.24 25.6198Z" fill="#F67C0D"/>
<path d="M32 28C32.5523 28 33 27.5523 33 27C33 26.4477 32.5523 26 32 26C31.4477 26 31 26.4477 31 27C31 27.5523 31.4477 28 32 28Z" fill="#F67C0D"/>
<path d="M31.7 19.8199C32.3075 19.8715 32.916 19.7316 33.44 19.4199C33.5921 19.3019 33.7147 19.1502 33.798 18.9766C33.8813 18.803 33.9231 18.6124 33.92 18.4199C33.9333 18.152 33.8635 17.8866 33.72 17.6599C33.5624 17.4394 33.3659 17.2496 33.14 17.0999C32.8733 16.9292 32.5922 16.782 32.3 16.6599L31.34 16.2999L30.38 15.9999C30.0796 15.862 29.7974 15.6873 29.54 15.4799C29.2974 15.2634 29.0943 15.0062 28.94 14.7199C28.7745 14.385 28.6987 14.0129 28.72 13.6399C28.7052 13.3004 28.7577 12.9613 28.8744 12.6421C28.9911 12.3229 29.1697 12.0299 29.4 11.7799C29.9358 11.2449 30.645 10.9187 31.4 10.8599V8.91992H32.74V10.7199C33.1768 10.74 33.6114 10.7935 34.04 10.8799C34.365 10.9551 34.6855 11.0486 35 11.1599L34.7 12.3999L33.74 12.1199C33.254 12.0158 32.7564 11.9754 32.26 11.9999C31.7415 11.967 31.2254 12.0925 30.78 12.3599C30.6149 12.4776 30.4812 12.6339 30.3905 12.8152C30.2999 12.9965 30.255 13.1973 30.26 13.3999C30.2555 13.6237 30.3108 13.8446 30.42 14.0399C30.5295 14.2196 30.6803 14.3704 30.86 14.4799C31.0684 14.6315 31.2974 14.7527 31.54 14.8399L32.4 15.1799C32.82 15.3399 33.22 15.4999 33.6 15.6799C33.9504 15.8464 34.2795 16.0546 34.58 16.2999C34.8596 16.5404 35.0905 16.8324 35.26 17.1599C35.439 17.5342 35.5281 17.9451 35.52 18.3599C35.5323 18.6948 35.4767 19.0288 35.3564 19.3416C35.2361 19.6544 35.0536 19.9396 34.82 20.1799C34.2315 20.7019 33.4851 21.0117 32.7 21.0599V23.0599H31.36V21.0599C30.7456 21.0568 30.1341 20.9762 29.54 20.8199C29.1725 20.7187 28.8171 20.5779 28.48 20.3999L28.88 19.1999C29.2524 19.3766 29.6408 19.5172 30.04 19.6199C30.5802 19.769 31.1398 19.8364 31.7 19.8199Z" fill="#F67C0D"/>
</g>
<defs>
<clipPath id="clip0">
<rect width="64" height="64" fill="white"/>
</clipPath>
</defs>
</svg>
