<svg width="56" height="64" viewBox="0 0 56 64" fill="none" xmlns="http://www.w3.org/2000/svg">
<g clip-path="url(#clip0)">
<path d="M46 34C47.0609 34 48.0783 34.4214 48.8284 35.1716C49.5786 35.9217 50 36.9391 50 38V58C50 59.0609 49.5786 60.0783 48.8284 60.8284C48.0783 61.5786 47.0609 62 46 62H10C8.93913 62 7.92172 61.5786 7.17157 60.8284C6.42143 60.0783 6 59.0609 6 58V38C6 36.9391 6.42143 35.9217 7.17157 35.1716C7.92172 34.4214 8.93913 34 10 34H46ZM46 32H10C8.4087 32 6.88258 32.6321 5.75736 33.7574C4.63214 34.8826 4 36.4087 4 38V58C4 59.5913 4.63214 61.1174 5.75736 62.2426C6.88258 63.3679 8.4087 64 10 64H46C47.5913 64 49.1174 63.3679 50.2426 62.2426C51.3679 61.1174 52 59.5913 52 58V38C52 36.4087 51.3679 34.8826 50.2426 33.7574C49.1174 32.6321 47.5913 32 46 32Z" fill="#F67C0D"/>
<path d="M6.27997 43.0002C5.31377 43.0151 4.36214 42.7636 3.52952 42.2732C2.69689 41.7828 2.01545 41.0725 1.55997 40.2203C1.14719 39.4419 0.95855 38.5642 1.01505 37.685C1.07154 36.8057 1.37096 35.9594 1.87997 35.2403C2.37894 34.5403 3.0395 33.9712 3.80553 33.5812C4.57157 33.1912 5.42042 32.9919 6.27997 33.0003H49.72C50.5795 32.9919 51.4284 33.1912 52.1944 33.5812C52.9604 33.9712 53.621 34.5403 54.12 35.2403C54.629 35.9594 54.9284 36.8057 54.9849 37.685C55.0414 38.5642 54.8527 39.4419 54.44 40.2203C53.9845 41.0725 53.303 41.7828 52.4704 42.2732C51.6378 42.7636 50.6862 43.0151 49.72 43.0002H6.27997Z" fill="white"/>
<path d="M49.72 34.0002C50.4189 33.9944 51.109 34.1567 51.732 34.4735C52.3551 34.7902 52.8928 35.2521 53.3 35.8202C53.723 36.3915 53.9725 37.0726 54.0186 37.782C54.0647 38.4913 53.9055 39.199 53.56 39.8202C53.1802 40.4998 52.6215 41.0623 51.9445 41.4466C51.2675 41.8309 50.4981 42.0224 49.72 42.0002H6.27998C5.49573 42.0166 4.72218 41.8161 4.04462 41.4208C3.36705 41.0256 2.81177 40.4509 2.43998 39.7602C2.09449 39.139 1.93527 38.4313 1.98138 37.722C2.02749 37.0126 2.27697 36.3315 2.69998 35.7602C3.11362 35.2032 3.65423 34.7529 4.27689 34.4468C4.89954 34.1407 5.58626 33.9876 6.27998 34.0002H49.72ZM49.72 32.0002H6.27998C5.25804 31.9916 4.24926 32.2309 3.3401 32.6977C2.43095 33.1645 1.64855 33.8447 1.05998 34.6802C0.447935 35.5999 0.101667 36.6707 0.0593388 37.7745C0.0170103 38.8784 0.280264 39.9726 0.820088 40.9364C1.35991 41.9002 2.15535 42.6963 3.11873 43.2369C4.08212 43.7775 5.17606 44.0417 6.27998 44.0002H49.72C50.8239 44.0417 51.9178 43.7775 52.8812 43.2369C53.8446 42.6963 54.64 41.9002 55.1799 40.9364C55.7197 39.9726 55.983 38.8784 55.9406 37.7745C55.8983 36.6707 55.552 35.5999 54.94 34.6802C54.3514 33.8447 53.569 33.1645 52.6599 32.6977C51.7507 32.2309 50.7419 31.9916 49.72 32.0002Z" fill="#F67C0D"/>
<path d="M13 58C12.2044 58 11.4413 57.6839 10.8787 57.1213C10.3161 56.5587 10 55.7956 10 55V48H8V55C8 56.3261 8.52678 57.5979 9.46447 58.5355C10.4021 59.4732 11.6739 60 13 60H28V58H13Z" fill="#F67C0D"/>
<path d="M28 60C28.5523 60 29 59.5523 29 59C29 58.4477 28.5523 58 28 58C27.4477 58 27 58.4477 27 59C27 59.5523 27.4477 60 28 60Z" fill="#F67C0D"/>
<path d="M9 49C9.55228 49 10 48.5523 10 48C10 47.4477 9.55228 47 9 47C8.44772 47 8 47.4477 8 48C8 48.5523 8.44772 49 9 49Z" fill="#F67C0D"/>
<path d="M34 60C34.5523 60 35 59.5523 35 59C35 58.4477 34.5523 58 34 58C33.4477 58 33 58.4477 33 59C33 59.5523 33.4477 60 34 60Z" fill="#F67C0D"/>
<path d="M41.58 12.34L40.48 8C40.9238 7.8905 41.3166 7.63231 41.5932 7.26841C41.8697 6.90451 42.0133 6.45687 42 6V4C42 3.46957 41.7893 2.96086 41.4142 2.58579C41.0391 2.21071 40.5304 2 40 2H30.44C29.8808 1.37481 29.1968 0.873796 28.432 0.529307C27.6673 0.184818 26.8388 0.00450327 26 0L18 0C16.4087 0 14.8826 0.632141 13.7574 1.75736C12.6321 2.88258 12 4.4087 12 6V14C12 15.5913 12.6321 17.1174 13.7574 18.2426C14.8826 19.3679 16.4087 20 18 20H40C40.9148 19.9923 41.7993 19.6713 42.5061 19.0905C43.2129 18.5097 43.6992 17.7042 43.884 16.8082C44.0688 15.9122 43.9409 14.98 43.5217 14.1669C43.1024 13.3538 42.4171 12.709 41.58 12.34ZM32 8H38.44L39.44 12H32V8ZM32 4H40V6H32V4ZM30 18H18C16.9391 18 15.9217 17.5786 15.1716 16.8284C14.4214 16.0783 14 15.0609 14 14V6C14 4.93913 14.4214 3.92172 15.1716 3.17157C15.9217 2.42143 16.9391 2 18 2H26C27.0609 2 28.0783 2.42143 28.8284 3.17157C29.5786 3.92172 30 4.93913 30 6V18ZM40 18.12H32V14H40.64C41.1339 14.1393 41.5597 14.4546 41.837 14.8863C42.1143 15.3181 42.2239 15.8365 42.1451 16.3435C42.0664 16.8506 41.8047 17.3113 41.4094 17.6385C41.0142 17.9658 40.5129 18.1371 40 18.12Z" fill="#F67C0D"/>
<path d="M17 14C17.5523 14 18 13.5523 18 13C18 12.4477 17.5523 12 17 12C16.4477 12 16 12.4477 16 13C16 13.5523 16.4477 14 17 14Z" fill="#F67C0D"/>
<path d="M22 4H19C18.2044 4 17.4413 4.31607 16.8787 4.87868C16.3161 5.44129 16 6.20435 16 7V10C16 10.2652 16.1054 10.5196 16.2929 10.7071C16.4804 10.8946 16.7348 11 17 11C17.2652 11 17.5196 10.8946 17.7071 10.7071C17.8946 10.5196 18 10.2652 18 10V7C18.0051 6.73639 18.1121 6.485 18.2986 6.29856C18.485 6.11212 18.7364 6.00512 19 6H22C22.2652 6 22.5196 5.89464 22.7071 5.70711C22.8946 5.51957 23 5.26522 23 5C23 4.73478 22.8946 4.48043 22.7071 4.29289C22.5196 4.10536 22.2652 4 22 4Z" fill="#F67C0D"/>
<path d="M38 23C39.6569 23 41 21.6569 41 20C41 18.3431 39.6569 17 38 17C36.3431 17 35 18.3431 35 20C35 21.6569 36.3431 23 38 23Z" fill="#F5F5F5"/>
<path d="M38 18C38.3956 18 38.7822 18.1173 39.1111 18.3371C39.44 18.5568 39.6964 18.8692 39.8478 19.2346C39.9991 19.6001 40.0387 20.0022 39.9616 20.3902C39.8844 20.7781 39.6939 21.1345 39.4142 21.4142C39.1345 21.6939 38.7781 21.8844 38.3902 21.9616C38.0022 22.0387 37.6001 21.9991 37.2346 21.8478C36.8692 21.6964 36.5568 21.44 36.3371 21.1111C36.1173 20.7822 36 20.3956 36 20C36 19.4696 36.2107 18.9609 36.5858 18.5858C36.9609 18.2107 37.4696 18 38 18ZM38 16C37.2089 16 36.4355 16.2346 35.7777 16.6741C35.1199 17.1136 34.6072 17.7384 34.3045 18.4693C34.0017 19.2002 33.9225 20.0044 34.0769 20.7804C34.2312 21.5563 34.6122 22.269 35.1716 22.8284C35.731 23.3878 36.4437 23.7688 37.2196 23.9231C37.9956 24.0775 38.7998 23.9983 39.5307 23.6955C40.2616 23.3928 40.8864 22.8801 41.3259 22.2223C41.7654 21.5645 42 20.7911 42 20C42 18.9391 41.5786 17.9217 40.8284 17.1716C40.0783 16.4214 39.0609 16 38 16Z" fill="#F67C0D"/>
<path d="M38 21C38.5523 21 39 20.5523 39 20C39 19.4477 38.5523 19 38 19C37.4477 19 37 19.4477 37 20C37 20.5523 37.4477 21 38 21Z" fill="#F67C0D"/>
<path d="M20 23C21.6569 23 23 21.6569 23 20C23 18.3431 21.6569 17 20 17C18.3431 17 17 18.3431 17 20C17 21.6569 18.3431 23 20 23Z" fill="#F5F5F5"/>
<path d="M20 18C20.3956 18 20.7822 18.1173 21.1111 18.3371C21.44 18.5568 21.6964 18.8692 21.8478 19.2346C21.9991 19.6001 22.0387 20.0022 21.9616 20.3902C21.8844 20.7781 21.6939 21.1345 21.4142 21.4142C21.1345 21.6939 20.7781 21.8844 20.3902 21.9616C20.0022 22.0387 19.6001 21.9991 19.2346 21.8478C18.8692 21.6964 18.5568 21.44 18.3371 21.1111C18.1173 20.7822 18 20.3956 18 20C18 19.4696 18.2107 18.9609 18.5858 18.5858C18.9609 18.2107 19.4696 18 20 18ZM20 16C19.2089 16 18.4355 16.2346 17.7777 16.6741C17.1199 17.1136 16.6072 17.7384 16.3045 18.4693C16.0017 19.2002 15.9225 20.0044 16.0769 20.7804C16.2312 21.5563 16.6122 22.269 17.1716 22.8284C17.731 23.3878 18.4437 23.7688 19.2196 23.9231C19.9956 24.0775 20.7998 23.9983 21.5307 23.6955C22.2616 23.3928 22.8864 22.8801 23.3259 22.2223C23.7654 21.5645 24 20.7911 24 20C24 18.9391 23.5786 17.9217 22.8284 17.1716C22.0783 16.4214 21.0609 16 20 16Z" fill="#F67C0D"/>
<path d="M20 21C20.5523 21 21 20.5523 21 20C21 19.4477 20.5523 19 20 19C19.4477 19 19 19.4477 19 20C19 20.5523 19.4477 21 20 21Z" fill="#F67C0D"/>
</g>
<defs>
<clipPath id="clip0">
<rect width="56" height="64" fill="white"/>
</clipPath>
</defs>
</svg>
