<svg width="64" height="48" viewBox="0 0 64 48" fill="none" xmlns="http://www.w3.org/2000/svg">
<g clip-path="url(#clip0)">
<path d="M59.4 24.18L56.4 15.18C57.0634 14.6738 57.5519 13.9729 57.7971 13.1752C58.0423 12.3776 58.0319 11.5233 57.7673 10.7318C57.5028 9.94041 56.9974 9.25154 56.3218 8.76168C55.6463 8.27181 54.8344 8.00549 54 8H40V6C40 4.4087 39.3679 2.88258 38.2426 1.75736C37.1174 0.632141 35.5913 0 34 0L6 0C4.4087 0 2.88258 0.632141 1.75736 1.75736C0.632141 2.88258 0 4.4087 0 6L0 34C0 35.5913 0.632141 37.1174 1.75736 38.2426C2.88258 39.3679 4.4087 40 6 40H58C59.5913 40 61.1174 39.3679 62.2426 38.2426C63.3679 37.1174 64 35.5913 64 34V30C63.9968 28.6546 63.5415 27.3494 62.7072 26.2939C61.873 25.2384 60.7082 24.4939 59.4 24.18ZM54.56 16L57.22 24H40V16H54.56ZM54 10C54.5304 10 55.0391 10.2107 55.4142 10.5858C55.7893 10.9609 56 11.4696 56 12C56 12.5304 55.7893 13.0391 55.4142 13.4142C55.0391 13.7893 54.5304 14 54 14H40V10H54ZM38 38H6C4.93913 38 3.92172 37.5786 3.17157 36.8284C2.42143 36.0783 2 35.0609 2 34V6C2 4.93913 2.42143 3.92172 3.17157 3.17157C3.92172 2.42143 4.93913 2 6 2H34C35.0609 2 36.0783 2.42143 36.8284 3.17157C37.5786 3.92172 38 4.93913 38 6V38ZM62 34C62 35.0609 61.5786 36.0783 60.8284 36.8284C60.0783 37.5786 59.0609 38 58 38H40V26H58C59.0609 26 60.0783 26.4214 60.8284 27.1716C61.5786 27.9217 62 28.9391 62 30V34Z" fill="#F67C0D"/>
<path d="M5 24C5.55228 24 6 23.5523 6 23C6 22.4477 5.55228 22 5 22C4.44772 22 4 22.4477 4 23C4 23.5523 4.44772 24 5 24Z" fill="#F67C0D"/>
<path d="M20 4H7C6.20435 4 5.44129 4.31607 4.87868 4.87868C4.31607 5.44129 4 6.20435 4 7V20C4 20.2652 4.10536 20.5196 4.29289 20.7071C4.48043 20.8946 4.73478 21 5 21C5.26522 21 5.51957 20.8946 5.70711 20.7071C5.89464 20.5196 6 20.2652 6 20V7C6.00512 6.73639 6.11212 6.485 6.29856 6.29856C6.485 6.11212 6.73639 6.00512 7 6H20C20.2652 6 20.5196 5.89464 20.7071 5.70711C20.8946 5.51957 21 5.26522 21 5C21 4.73478 20.8946 4.48043 20.7071 4.29289C20.5196 4.10536 20.2652 4 20 4Z" fill="#F67C0D"/>
<path d="M52 47C55.866 47 59 43.866 59 40C59 36.134 55.866 33 52 33C48.134 33 45 36.134 45 40C45 43.866 48.134 47 52 47Z" fill="#F5F5F5"/>
<path d="M52 34C53.1867 34 54.3467 34.3519 55.3334 35.0112C56.3201 35.6705 57.0892 36.6075 57.5433 37.7039C57.9974 38.8003 58.1162 40.0067 57.8847 41.1705C57.6532 42.3344 57.0818 43.4035 56.2426 44.2426C55.4035 45.0818 54.3344 45.6532 53.1705 45.8847C52.0067 46.1162 50.8003 45.9974 49.7039 45.5433C48.6075 45.0892 47.6705 44.3201 47.0112 43.3334C46.3519 42.3467 46 41.1867 46 40C46 38.4087 46.6321 36.8826 47.7574 35.7574C48.8826 34.6321 50.4087 34 52 34ZM52 32C50.4178 32 48.871 32.4692 47.5554 33.3482C46.2398 34.2273 45.2145 35.4767 44.609 36.9385C44.0035 38.4003 43.845 40.0089 44.1537 41.5607C44.4624 43.1126 45.2243 44.538 46.3432 45.6569C47.462 46.7757 48.8874 47.5376 50.4393 47.8463C51.9911 48.155 53.5997 47.9965 55.0615 47.391C56.5233 46.7855 57.7727 45.7602 58.6518 44.4446C59.5308 43.129 60 41.5823 60 40C60 37.8783 59.1571 35.8434 57.6569 34.3431C56.1566 32.8429 54.1217 32 52 32Z" fill="#F67C0D"/>
<path d="M52 38C51.6044 38 51.2178 38.1173 50.8889 38.3371C50.56 38.5568 50.3036 38.8692 50.1522 39.2346C50.0009 39.6001 49.9613 40.0022 50.0384 40.3902C50.1156 40.7781 50.3061 41.1345 50.5858 41.4142C50.8655 41.6939 51.2219 41.8844 51.6098 41.9616C51.9978 42.0387 52.3999 41.9991 52.7654 41.8478C53.1308 41.6964 53.4432 41.44 53.6629 41.1111C53.8827 40.7822 54 40.3956 54 40C54 39.4696 53.7893 38.9609 53.4142 38.5858C53.0391 38.2107 52.5304 38 52 38Z" fill="#F67C0D"/>
<path d="M16 47C19.866 47 23 43.866 23 40C23 36.134 19.866 33 16 33C12.134 33 9 36.134 9 40C9 43.866 12.134 47 16 47Z" fill="#F5F5F5"/>
<path d="M16 34C17.1867 34 18.3467 34.3519 19.3334 35.0112C20.3201 35.6705 21.0892 36.6075 21.5433 37.7039C21.9974 38.8003 22.1162 40.0067 21.8847 41.1705C21.6532 42.3344 21.0818 43.4035 20.2426 44.2426C19.4035 45.0818 18.3344 45.6532 17.1705 45.8847C16.0067 46.1162 14.8003 45.9974 13.7039 45.5433C12.6075 45.0892 11.6705 44.3201 11.0112 43.3334C10.3519 42.3467 10 41.1867 10 40C10 38.4087 10.6321 36.8826 11.7574 35.7574C12.8826 34.6321 14.4087 34 16 34ZM16 32C14.4178 32 12.871 32.4692 11.5554 33.3482C10.2398 34.2273 9.21447 35.4767 8.60897 36.9385C8.00347 38.4003 7.84504 40.0089 8.15372 41.5607C8.4624 43.1126 9.22433 44.538 10.3431 45.6569C11.462 46.7757 12.8874 47.5376 14.4393 47.8463C15.9911 48.155 17.5997 47.9965 19.0615 47.391C20.5233 46.7855 21.7727 45.7602 22.6518 44.4446C23.5308 43.129 24 41.5823 24 40C24 37.8783 23.1571 35.8434 21.6569 34.3431C20.1566 32.8429 18.1217 32 16 32Z" fill="#F67C0D"/>
<path d="M16 38C15.6044 38 15.2178 38.1173 14.8889 38.3371C14.56 38.5568 14.3036 38.8692 14.1522 39.2346C14.0009 39.6001 13.9613 40.0022 14.0384 40.3902C14.1156 40.7781 14.3061 41.1345 14.5858 41.4142C14.8655 41.6939 15.2219 41.8844 15.6098 41.9616C15.9978 42.0387 16.3999 41.9991 16.7654 41.8478C17.1308 41.6964 17.4432 41.44 17.6629 41.1111C17.8827 40.7822 18 40.3956 18 40C18 39.4696 17.7893 38.9609 17.4142 38.5858C17.0391 38.2107 16.5304 38 16 38Z" fill="#F67C0D"/>
</g>
<defs>
<clipPath id="clip0">
<rect width="64" height="48" fill="white"/>
</clipPath>
</defs>
</svg>
