<svg width="56" height="64" viewBox="0 0 56 64" fill="none" xmlns="http://www.w3.org/2000/svg">
<g clip-path="url(#clip0)">
<path d="M46 34C47.0609 34 48.0783 34.4214 48.8284 35.1716C49.5786 35.9217 50 36.9391 50 38V58C50 59.0609 49.5786 60.0783 48.8284 60.8284C48.0783 61.5786 47.0609 62 46 62H10C8.93913 62 7.92172 61.5786 7.17157 60.8284C6.42143 60.0783 6 59.0609 6 58V38C6 36.9391 6.42143 35.9217 7.17157 35.1716C7.92172 34.4214 8.93913 34 10 34H46ZM46 32H10C8.4087 32 6.88258 32.6321 5.75736 33.7574C4.63214 34.8826 4 36.4087 4 38V58C4 59.5913 4.63214 61.1174 5.75736 62.2426C6.88258 63.3679 8.4087 64 10 64H46C47.5913 64 49.1174 63.3679 50.2426 62.2426C51.3679 61.1174 52 59.5913 52 58V38C52 36.4087 51.3679 34.8826 50.2426 33.7574C49.1174 32.6321 47.5913 32 46 32Z" fill="#F67C0D"/>
<path d="M6.28009 43.0003C5.31258 43.022 4.35821 42.7733 3.52435 42.2822C2.69048 41.791 2.01022 41.0769 1.56009 40.2203C1.14731 39.4419 0.958672 38.5642 1.01517 37.685C1.07167 36.8057 1.37109 35.9594 1.88009 35.2403C2.37906 34.5403 3.03962 33.9712 3.80566 33.5812C4.57169 33.1912 5.42054 32.9919 6.28009 33.0003H49.7201C50.5796 32.9919 51.4285 33.1912 52.1945 33.5812C52.9606 33.9712 53.6211 34.5403 54.1201 35.2403C54.6291 35.9594 54.9285 36.8057 54.985 37.685C55.0415 38.5642 54.8529 39.4419 54.4401 40.2203C53.99 41.0769 53.3097 41.791 52.4758 42.2822C51.642 42.7733 50.6876 43.022 49.7201 43.0003H6.28009Z" fill="white"/>
<path d="M49.72 34.0002C50.4189 33.9944 51.109 34.1567 51.732 34.4735C52.3551 34.7902 52.8928 35.2521 53.3 35.8202C53.723 36.3915 53.9725 37.0726 54.0186 37.782C54.0647 38.4913 53.9055 39.199 53.56 39.8202C53.1802 40.4998 52.6215 41.0623 51.9445 41.4466C51.2675 41.8309 50.4981 42.0224 49.72 42.0002H6.27998C5.49573 42.0166 4.72218 41.8161 4.04462 41.4208C3.36705 41.0256 2.81177 40.4509 2.43998 39.7602C2.09449 39.139 1.93527 38.4313 1.98138 37.722C2.02749 37.0126 2.27697 36.3315 2.69998 35.7602C3.11362 35.2032 3.65423 34.7529 4.27689 34.4468C4.89954 34.1407 5.58626 33.9876 6.27998 34.0002H49.72ZM49.72 32.0002H6.27998C5.25804 31.9916 4.24926 32.2309 3.3401 32.6977C2.43095 33.1645 1.64855 33.8447 1.05998 34.6802C0.447935 35.5999 0.101667 36.6707 0.0593388 37.7745C0.0170103 38.8784 0.280264 39.9726 0.820088 40.9364C1.35991 41.9002 2.15535 42.6963 3.11873 43.2369C4.08212 43.7775 5.17606 44.0417 6.27998 44.0002H49.72C50.8239 44.0417 51.9178 43.7775 52.8812 43.2369C53.8446 42.6963 54.64 41.9002 55.1799 40.9364C55.7197 39.9726 55.983 38.8784 55.9406 37.7745C55.8983 36.6707 55.552 35.5999 54.94 34.6802C54.3514 33.8447 53.569 33.1645 52.6599 32.6977C51.7507 32.2309 50.7419 31.9916 49.72 32.0002Z" fill="#F67C0D"/>
<path d="M13 58C12.2044 58 11.4413 57.6839 10.8787 57.1213C10.3161 56.5587 10 55.7956 10 55V48H8V55C8 56.3261 8.52678 57.5979 9.46447 58.5355C10.4021 59.4732 11.6739 60 13 60H28V58H13Z" fill="#F67C0D"/>
<path d="M28 60C28.5523 60 29 59.5523 29 59C29 58.4477 28.5523 58 28 58C27.4477 58 27 58.4477 27 59C27 59.5523 27.4477 60 28 60Z" fill="#F67C0D"/>
<path d="M9 49C9.55228 49 10 48.5523 10 48C10 47.4477 9.55228 47 9 47C8.44772 47 8 47.4477 8 48C8 48.5523 8.44772 49 9 49Z" fill="#F67C0D"/>
<path d="M34 60C34.5523 60 35 59.5523 35 59C35 58.4477 34.5523 58 34 58C33.4477 58 33 58.4477 33 59C33 59.5523 33.4477 60 34 60Z" fill="#F67C0D"/>
<path d="M38 0H18C16.4087 0 14.8826 0.632141 13.7574 1.75736C12.6321 2.88258 12 4.4087 12 6V18C12 19.5913 12.6321 21.1174 13.7574 22.2426C14.8826 23.3679 16.4087 24 18 24H24V28H20V30H36V28H32V24H38C39.5913 24 41.1174 23.3679 42.2426 22.2426C43.3679 21.1174 44 19.5913 44 18V6C44 4.4087 43.3679 2.88258 42.2426 1.75736C41.1174 0.632141 39.5913 0 38 0V0ZM30 28H26V24H30V28ZM42 18C42 19.0609 41.5786 20.0783 40.8284 20.8284C40.0783 21.5786 39.0609 22 38 22H18C16.9391 22 15.9217 21.5786 15.1716 20.8284C14.4214 20.0783 14 19.0609 14 18V16H42V18ZM14 14V6C14 4.93913 14.4214 3.92172 15.1716 3.17157C15.9217 2.42143 16.9391 2 18 2H38C39.0609 2 40.0783 2.42143 40.8284 3.17157C41.5786 3.92172 42 4.93913 42 6V14H14Z" fill="#F67C0D"/>
<path d="M28 18C27.8022 18 27.6089 18.0586 27.4444 18.1685C27.28 18.2784 27.1518 18.4346 27.0761 18.6173C27.0004 18.8 26.9806 19.0011 27.0192 19.1951C27.0578 19.3891 27.153 19.5673 27.2929 19.7071C27.4327 19.847 27.6109 19.9422 27.8049 19.9808C27.9989 20.0194 28.2 19.9996 28.3827 19.9239C28.5654 19.8482 28.7216 19.72 28.8315 19.5556C28.9414 19.3911 29 19.1978 29 19C29 18.7348 28.8946 18.4804 28.7071 18.2929C28.5196 18.1054 28.2652 18 28 18Z" fill="#F67C0D"/>
<path d="M27 6H25L21 10H23L27 6Z" fill="#F67C0D"/>
<path d="M33 4H31L23 12H25L33 4Z" fill="#F67C0D"/>
<path d="M35 6H33L29 10H31L35 6Z" fill="#F67C0D"/>
</g>
<defs>
<clipPath id="clip0">
<rect width="56" height="64" fill="white"/>
</clipPath>
</defs>
</svg>
