<svg width="64" height="64" viewBox="0 0 64 64" fill="none" xmlns="http://www.w3.org/2000/svg">
<g clip-path="url(#clip0)">
<path d="M26.56 63.0004C24.8652 63.0066 23.1921 62.6197 21.6721 61.8701C20.1522 61.1206 18.8267 60.0287 17.8 58.6804C16.2243 56.4827 15.489 53.7929 15.7275 51.0993C15.9661 48.4057 17.1626 45.8869 19.1 44.0004L38.94 24.0004C39.5815 23.3487 40.0884 22.577 40.4315 21.7294C40.7747 20.8817 40.9475 19.9748 40.94 19.0604V6.00036C40.9399 5.33867 41.0712 4.68355 41.3262 4.07298C41.5813 3.46241 41.9549 2.90853 42.4256 2.44344C42.8963 1.97836 43.4546 1.61132 44.0681 1.3636C44.6817 1.11589 45.3383 0.99242 46 1.00036H58C58.6566 1.00036 59.3068 1.12969 59.9134 1.38096C60.52 1.63224 61.0712 2.00053 61.5355 2.46483C61.9998 2.92912 62.3681 3.48031 62.6194 4.08694C62.8706 4.69357 63 5.34375 63 6.00036V26.0004C62.9901 26.0734 62.9901 26.1474 63 26.2204C63.0514 27.7191 62.7959 29.2126 62.249 30.6089C61.7021 32.0053 60.8755 33.2751 59.82 34.3404L34.34 59.8004C33.3172 60.819 32.1036 61.6259 30.7686 62.175C29.4336 62.7241 28.0035 63.0046 26.56 63.0004Z" fill="white"/>
<path d="M58 0H46C44.4087 0 42.8826 0.632141 41.7573 1.75736C40.6321 2.88258 40 4.4087 40 6V19.12C39.9986 20.7108 39.3655 22.2359 38.24 23.36L19.46 42.14L18.4 43.2L18 43.52C16.7584 44.7774 15.8099 46.2934 15.2222 47.9599C14.6344 49.6263 14.422 51.402 14.6 53.16V53.26C14.6577 53.8465 14.7579 54.428 14.9 55C14.9 55.28 15.06 55.54 15.14 55.82C15.2591 56.2008 15.3993 56.5748 15.56 56.94C15.7334 57.3168 15.927 57.684 16.14 58.04C16.32 58.34 16.48 58.62 16.68 58.9L16.9 59.28C17.2259 59.6912 17.573 60.085 17.94 60.46L18.04 60.56C18.5546 61.0384 19.1027 61.4795 19.68 61.88L20 62C20.5832 62.3747 21.199 62.696 21.84 62.96L22.2 63.12C22.8467 63.3718 23.5166 63.5594 24.2 63.68H24.54C25.1999 63.8025 25.8689 63.8694 26.54 63.88C29.7186 63.8825 32.7684 62.6237 35.02 60.38L36.42 58.98L60.42 34.98C61.5744 33.8434 62.4868 32.4849 63.102 30.9862C63.7173 29.4876 64.0228 27.8799 64 26.26C64 26.26 64 26.1 64 26V6C64 4.4087 63.3678 2.88258 62.2426 1.75736C61.1174 0.632141 59.5913 0 58 0V0ZM33.64 59.08C32.6266 60.0872 31.4091 60.8656 30.0695 61.3627C28.73 61.8598 27.2994 62.0641 25.8743 61.9617C24.4491 61.8594 23.0624 61.4528 21.8076 60.7694C20.5528 60.0861 19.4591 59.1417 18.6 58C17.1495 55.9902 16.4723 53.5248 16.6927 51.0561C16.9131 48.5874 18.0164 46.281 19.8 44.56L20.22 44.14C23.7145 44.8312 26.9253 46.5438 29.446 49.0609C31.9667 51.578 33.6838 54.7865 34.38 58.28L33.64 59.08ZM62 26C61.99 26.0931 61.99 26.1869 62 26.28V26.42C62.0426 27.7706 61.8072 29.1155 61.3083 30.3713C60.8094 31.627 60.0578 32.7669 59.1 33.72L36 56.76C35.1054 53.3626 33.3247 50.2637 30.84 47.78C28.3591 45.2813 25.2497 43.4986 21.84 42.62L39.7 24.78C41.1852 23.2719 42.0123 21.2366 42 19.12V14H62V26ZM62 12H42V10H62V12ZM42 8V6C42 4.93913 42.4214 3.92172 43.1715 3.17157C43.9217 2.42143 44.9391 2 46 2H58C59.0608 2 60.0783 2.42143 60.8284 3.17157C61.5785 3.92172 62 4.93913 62 6V8H42Z" fill="#F67C0D"/>
<path d="M12 63.0004C10.3052 63.0066 8.63213 62.6197 7.11215 61.8701C5.59217 61.1206 4.26673 60.0287 3.23998 58.6804C1.64874 56.4926 0.898336 53.8051 1.12603 51.1094C1.35373 48.4138 2.54431 45.8902 4.47998 44.0004L24.32 24.0004C25.6083 22.6794 26.3265 20.9055 26.32 19.0604V6.00036C26.3199 5.33867 26.4512 4.68355 26.7062 4.07298C26.9613 3.46241 27.3349 2.90853 27.8056 2.44344C28.2763 1.97836 28.8346 1.61132 29.4481 1.3636C30.0617 1.11589 30.7183 0.99242 31.38 1.00036H43.38C44.0366 1.00036 44.6868 1.12969 45.2934 1.38096C45.9 1.63224 46.4512 2.00053 46.9155 2.46483C47.3798 2.92912 47.7481 3.48031 47.9994 4.08694C48.2507 4.69357 48.38 5.34375 48.38 6.00036V26.0004C48.38 26.0004 48.38 26.1404 48.38 26.2204C48.4411 27.7202 48.1899 29.2165 47.6425 30.6142C47.0951 32.012 46.2634 33.2808 45.2 34.3404L19.72 59.8004C17.669 61.8429 14.8945 62.993 12 63.0004Z" fill="white"/>
<path d="M43.38 0H31.38C29.7887 0 28.2626 0.632141 27.1374 1.75736C26.0121 2.88258 25.38 4.4087 25.38 6V19.12C25.3786 20.7108 24.7455 22.2359 23.62 23.36L4.84001 42.14L3.76001 43.2L3.44001 43.52C2.19132 44.7738 1.23538 46.2882 0.640665 47.9548C0.0459464 49.6214 -0.17283 51.3989 7.54744e-06 53.16V53.26C0.0550577 53.8483 0.162143 54.4306 0.320008 55C0.320008 55.28 0.460008 55.54 0.540008 55.82C0.665824 56.2012 0.812716 56.5751 0.980008 56.94C1.16659 57.3088 1.38052 57.6631 1.62001 58C1.78001 58.3 1.96001 58.58 2.14001 58.86C2.22707 58.9821 2.30719 59.1089 2.38001 59.24C2.70014 59.656 3.04757 60.0502 3.42001 60.42L3.54001 60.52C4.05192 60.9934 4.59298 61.4342 5.16001 61.84L5.40001 62C5.97633 62.3745 6.5855 62.6958 7.22001 62.96L7.60001 63.12C8.24669 63.3718 8.91659 63.5594 9.60001 63.68H9.92001C10.6031 63.8452 11.2989 63.9523 12 64C15.1787 64.0025 18.2285 62.7437 20.48 60.5L21.88 59.1L45.88 35.1C47.0202 33.9463 47.9146 32.5735 48.5093 31.0644C49.104 29.5553 49.3866 27.9414 49.34 26.32C49.3511 26.2337 49.3511 26.1463 49.34 26.06V6C49.34 4.41561 48.7134 2.89551 47.5968 1.77144C46.4802 0.647364 44.9644 0.0105626 43.38 0V0ZM19 59.08C17.987 60.0804 16.7721 60.8529 15.4364 61.346C14.1008 61.839 12.6753 62.0411 11.2553 61.9389C9.83525 61.8367 8.45342 61.4324 7.20221 60.7531C5.951 60.0738 4.85926 59.1352 4.00001 58C2.54793 55.9894 1.87165 53.5217 2.09585 51.0518C2.32006 48.5818 3.42963 46.2762 5.22001 44.56L5.64001 44.14C9.13087 44.8348 12.3374 46.549 14.8542 49.0658C17.371 51.5826 19.0852 54.7891 19.78 58.28L19 59.08ZM47.38 26C47.38 26.1 47.38 26.18 47.38 26.28V26.42C47.4264 27.7693 47.1947 29.1137 46.6992 30.3695C46.2038 31.6254 45.4552 32.7659 44.5 33.72L21.32 56.76C20.4338 53.3584 18.6563 50.2548 16.1707 47.7693C13.6852 45.2837 10.5816 43.5062 7.18001 42.62L25.04 24.78C25.7827 24.0365 26.3716 23.154 26.7731 22.1828C27.1746 21.2116 27.3808 20.1709 27.38 19.12V14H47.38V26ZM47.38 12.1H27.38V10H47.38V12.1ZM27.38 8.1V6C27.38 4.93913 27.8014 3.92172 28.5516 3.17157C29.3017 2.42143 30.3191 2 31.38 2H43.38C44.4409 2 45.4583 2.42143 46.2084 3.17157C46.9586 3.92172 47.38 4.93913 47.38 6V8L27.38 8.1Z" fill="#F67C0D"/>
</g>
<defs>
<clipPath id="clip0">
<rect width="64" height="64" fill="white"/>
</clipPath>
</defs>
</svg>
