<svg width="96" height="96" viewBox="0 0 96 96" fill="none" xmlns="http://www.w3.org/2000/svg">
<g clip-path="url(#clip0)">
<path d="M60 33C63.9782 33 67.7936 34.5804 70.6066 37.3934C73.4196 40.2064 75 44.0218 75 48V87C75 88.5913 74.3679 90.1174 73.2426 91.2426C72.1174 92.3679 70.5913 93 69 93H27C25.4087 93 23.8826 92.3679 22.7574 91.2426C21.6321 90.1174 21 88.5913 21 87V48C21 44.0218 22.5804 40.2064 25.3934 37.3934C28.2064 34.5804 32.0218 33 36 33H60ZM60 30H36C31.2261 30 26.6477 31.8964 23.2721 35.2721C19.8964 38.6477 18 43.2261 18 48V87C18 89.3869 18.9482 91.6761 20.636 93.364C22.3239 95.0518 24.6131 96 27 96H69C71.3869 96 73.6761 95.0518 75.364 93.364C77.0518 91.6761 78 89.3869 78 87V48C78 43.2261 76.1036 38.6477 72.7279 35.2721C69.3523 31.8964 64.7739 30 60 30Z" fill="#F67C0D"/>
<path d="M33 49.5C33 48.6716 32.3284 48 31.5 48C30.6716 48 30 48.6716 30 49.5V94.5C30 95.3284 30.6716 96 31.5 96C32.3284 96 33 95.3284 33 94.5V49.5Z" fill="black"/>
<path d="M66 58.5C66 57.6716 65.3284 57 64.5 57C63.6716 57 63 57.6716 63 58.5V94.5C63 95.3284 63.6716 96 64.5 96C65.3284 96 66 95.3284 66 94.5V58.5Z" fill="black"/>
<path d="M64.5 48C64.2033 48 63.9133 48.088 63.6666 48.2528C63.42 48.4176 63.2277 48.6519 63.1142 48.926C63.0007 49.2001 62.9709 49.5017 63.0288 49.7926C63.0867 50.0836 63.2296 50.3509 63.4393 50.5607C63.6491 50.7704 63.9164 50.9133 64.2074 50.9712C64.4983 51.0291 64.7999 50.9993 65.074 50.8858C65.3481 50.7723 65.5824 50.58 65.7472 50.3334C65.912 50.0867 66 49.7967 66 49.5C66 49.1022 65.842 48.7206 65.5607 48.4393C65.2794 48.158 64.8978 48 64.5 48Z" fill="black"/>
<path d="M9 94.5C7.01088 94.5 5.10322 93.7098 3.6967 92.3033C2.29018 90.8968 1.5 88.9891 1.5 87C1.5 85.0109 2.29018 83.1032 3.6967 81.6967C5.10322 80.2902 7.01088 79.5 9 79.5H87C88.9891 79.5 90.8968 80.2902 92.3033 81.6967C93.7098 83.1032 94.5 85.0109 94.5 87C94.5 88.9891 93.7098 90.8968 92.3033 92.3033C90.8968 93.7098 88.9891 94.5 87 94.5H9Z" fill="white"/>
<path d="M87 81C88.5913 81 90.1174 81.6321 91.2426 82.7574C92.3679 83.8826 93 85.4087 93 87C93 88.5913 92.3679 90.1174 91.2426 91.2426C90.1174 92.3679 88.5913 93 87 93H9C7.4087 93 5.88258 92.3679 4.75736 91.2426C3.63214 90.1174 3 88.5913 3 87C3 85.4087 3.63214 83.8826 4.75736 82.7574C5.88258 81.6321 7.4087 81 9 81H87ZM87 78H9C6.61305 78 4.32387 78.9482 2.63604 80.636C0.948211 82.3239 0 84.6131 0 87C0 89.3869 0.948211 91.6761 2.63604 93.364C4.32387 95.0518 6.61305 96 9 96H87C89.3869 96 91.6761 95.0518 93.364 93.364C95.0518 91.6761 96 89.3869 96 87C96 84.6131 95.0518 82.3239 93.364 80.636C91.6761 78.9482 89.3869 78 87 78Z" fill="#F67C0D"/>
<path fill-rule="evenodd" clip-rule="evenodd" d="M53.813 78.0117C53.8135 78.0117 53.8139 78.0116 54 79.5C54.186 80.9884 54.1864 80.9884 54.1867 80.9884L54.1651 80.9912L54.0805 81.003C54.0041 81.014 53.8891 81.0314 53.7426 81.0558C53.4492 81.1047 53.0331 81.1813 52.5511 81.2908C51.5693 81.514 50.39 81.857 49.4208 82.3417C48.3818 82.8612 47.9481 83.3605 47.8485 83.709C47.7889 83.9176 47.7156 84.5944 49.0606 85.9394C50.7156 87.5944 51.5389 89.3551 51.036 91.1152C50.5731 92.7355 49.1318 93.7362 47.9208 94.3417C46.64 94.982 45.1943 95.389 44.1136 95.6346C43.5644 95.7594 43.0898 95.8469 42.7505 95.9034C42.5805 95.9318 42.4435 95.9525 42.3471 95.9664L42.2336 95.9822L42.2012 95.9865L42.1914 95.9878L42.1882 95.9882C42.1877 95.9882 42.186 95.9884 42 94.5C41.8139 93.0116 41.8135 93.0116 41.8132 93.0117L41.8348 93.0089L41.9194 92.997C41.9958 92.986 42.1108 92.9687 42.2573 92.9443C42.5507 92.8953 42.9668 92.8187 43.4488 92.7092C44.4307 92.486 45.6099 92.143 46.5791 91.6584C47.6181 91.1389 48.0518 90.6396 48.1514 90.2911C48.211 90.0825 48.2843 89.4057 46.9393 88.0607C45.2843 86.4057 44.461 84.645 44.9639 82.8848C45.4268 81.2646 46.8681 80.2639 48.0791 79.6584C49.3599 79.018 50.8057 78.611 51.8863 78.3654C52.4356 78.2406 52.9101 78.1532 53.2494 78.0966C53.4194 78.0683 53.5564 78.0475 53.6528 78.0337L53.7663 78.0178L53.7987 78.0135L53.8085 78.0123L53.813 78.0117Z" fill="#F67C0D"/>
<path d="M48 3.36C50.2915 3.36 52.4891 4.27028 54.1094 5.8906C55.7297 7.51091 56.64 9.70853 56.64 12V18C56.64 20.2915 55.7297 22.4891 54.1094 24.1094C52.4891 25.7297 50.2915 26.64 48 26.64C45.7085 26.64 43.5109 25.7297 41.8906 24.1094C40.2703 22.4891 39.36 20.2915 39.36 18V12C39.36 9.70853 40.2703 7.51091 41.8906 5.8906C43.5109 4.27028 45.7085 3.36 48 3.36ZM48 0C44.8174 0 41.7652 1.26428 39.5147 3.51472C37.2643 5.76516 36 8.8174 36 12V18C36 21.1826 37.2643 24.2348 39.5147 26.4853C41.7652 28.7357 44.8174 30 48 30C51.1826 30 54.2348 28.7357 56.4853 26.4853C58.7357 24.2348 60 21.1826 60 18V12C60 8.8174 58.7357 5.76516 56.4853 3.51472C54.2348 1.26428 51.1826 0 48 0V0Z" fill="#F67C0D"/>
</g>
<defs>
<clipPath id="clip0">
<rect width="96" height="96" fill="white"/>
</clipPath>
</defs>
</svg>
