<svg width="96" height="51" viewBox="0 0 96 51" fill="none" xmlns="http://www.w3.org/2000/svg">
<g clip-path="url(#clip0)">
<path d="M87 16.5H9C6.61305 16.5 4.32387 17.4482 2.63604 19.136C0.948211 20.8239 0 23.1131 0 25.5C0 27.8869 0.948211 30.1761 2.63604 31.864C4.32387 33.5518 6.61305 34.5 9 34.5H87C89.3869 34.5 91.6761 33.5518 93.364 31.864C95.0518 30.1761 96 27.8869 96 25.5C96 23.1131 95.0518 20.8239 93.364 19.136C91.6761 17.4482 89.3869 16.5 87 16.5ZM87 31.5H76.5V27C76.5 26.6022 76.342 26.2206 76.0607 25.9393C75.7794 25.658 75.3978 25.5 75 25.5C74.6022 25.5 74.2206 25.658 73.9393 25.9393C73.658 26.2206 73.5 26.6022 73.5 27V31.5H64.5V27C64.5 26.6022 64.342 26.2206 64.0607 25.9393C63.7794 25.658 63.3978 25.5 63 25.5C62.6022 25.5 62.2206 25.658 61.9393 25.9393C61.658 26.2206 61.5 26.6022 61.5 27V31.5H52.5V27C52.5 26.6022 52.342 26.2206 52.0607 25.9393C51.7794 25.658 51.3978 25.5 51 25.5C50.6022 25.5 50.2206 25.658 49.9393 25.9393C49.658 26.2206 49.5 26.6022 49.5 27V31.5H40.5V27C40.5 26.6022 40.342 26.2206 40.0607 25.9393C39.7794 25.658 39.3978 25.5 39 25.5C38.6022 25.5 38.2206 25.658 37.9393 25.9393C37.658 26.2206 37.5 26.6022 37.5 27V31.5H28.5V27C28.5 26.6022 28.342 26.2206 28.0607 25.9393C27.7794 25.658 27.3978 25.5 27 25.5C26.6022 25.5 26.2206 25.658 25.9393 25.9393C25.658 26.2206 25.5 26.6022 25.5 27V31.5H16.5V27C16.5 26.6022 16.342 26.2206 16.0607 25.9393C15.7794 25.658 15.3978 25.5 15 25.5C14.6022 25.5 14.2206 25.658 13.9393 25.9393C13.658 26.2206 13.5 26.6022 13.5 27V31.5H9C7.4087 31.5 5.88258 30.8679 4.75736 29.7426C3.63214 28.6174 3 27.0913 3 25.5C3 23.9087 3.63214 22.3826 4.75736 21.2574C5.88258 20.1321 7.4087 19.5 9 19.5H19.5V24C19.5077 24.3954 19.6682 24.7725 19.9478 25.0522C20.2275 25.3318 20.6046 25.4923 21 25.5C21.3978 25.5 21.7794 25.342 22.0607 25.0607C22.342 24.7794 22.5 24.3978 22.5 24V19.5H31.5V24C31.5 24.3978 31.658 24.7794 31.9393 25.0607C32.2206 25.342 32.6022 25.5 33 25.5C33.3978 25.5 33.7794 25.342 34.0607 25.0607C34.342 24.7794 34.5 24.3978 34.5 24V19.5H43.5V24C43.5 24.3978 43.658 24.7794 43.9393 25.0607C44.2206 25.342 44.6022 25.5 45 25.5C45.3978 25.5 45.7794 25.342 46.0607 25.0607C46.342 24.7794 46.5 24.3978 46.5 24V19.5H55.5V24C55.5 24.3978 55.658 24.7794 55.9393 25.0607C56.2206 25.342 56.6022 25.5 57 25.5C57.3978 25.5 57.7794 25.342 58.0607 25.0607C58.342 24.7794 58.5 24.3978 58.5 24V19.5H67.5V24C67.5 24.3978 67.658 24.7794 67.9393 25.0607C68.2206 25.342 68.6022 25.5 69 25.5C69.3978 25.5 69.7794 25.342 70.0607 25.0607C70.342 24.7794 70.5 24.3978 70.5 24V19.5H79.5V24C79.5 24.3978 79.658 24.7794 79.9393 25.0607C80.2206 25.342 80.6022 25.5 81 25.5C81.3978 25.5 81.7794 25.342 82.0607 25.0607C82.342 24.7794 82.5 24.3978 82.5 24V19.5H87C88.5913 19.5 90.1174 20.1321 91.2426 21.2574C92.3679 22.3826 93 23.9087 93 25.5C93 27.0913 92.3679 28.6174 91.2426 29.7426C90.1174 30.8679 88.5913 31.5 87 31.5Z" fill="#F67C0D"/>
<path d="M86.76 44.1607L83.76 39.6607C83.5782 39.4002 83.3185 39.2041 83.0181 39.1007C82.7178 38.9973 82.3924 38.992 82.0888 39.0854C81.7852 39.1788 81.5191 39.3662 81.3288 39.6205C81.1385 39.8749 81.0339 40.183 81.03 40.5007V43.5007H15V40.5007C14.9961 40.183 14.8915 39.8749 14.7012 39.6205C14.5109 39.3662 14.2448 39.1788 13.9412 39.0854C13.6376 38.992 13.3122 38.9973 13.0119 39.1007C12.7115 39.2041 12.4518 39.4002 12.27 39.6607L9.27 44.1607C9.10971 44.4115 9.02454 44.703 9.02454 45.0007C9.02454 45.2983 9.10971 45.5898 9.27 45.8407L12.27 50.3107C12.4502 50.5693 12.7073 50.7646 13.0049 50.8689C13.3024 50.9731 13.6252 50.9809 13.9274 50.8912C14.2297 50.8016 14.4959 50.6189 14.6885 50.3693C14.881 50.1197 14.99 49.8158 15 49.5007V46.5007H81V49.5007C81.01 49.8158 81.119 50.1197 81.3115 50.3693C81.5041 50.6189 81.7704 50.8016 82.0726 50.8912C82.3748 50.9809 82.6976 50.9731 82.9951 50.8689C83.2927 50.7646 83.5498 50.5693 83.73 50.3107L86.73 45.8407C86.8948 45.5927 86.9852 45.3027 86.9905 45.005C86.9958 44.7074 86.9158 44.4144 86.76 44.1607Z" fill="black"/>
<path d="M86.76 5.16012L83.76 0.660115C83.5831 0.386143 83.3218 0.177267 83.0156 0.0651223C82.7094 -0.0470219 82.375 -0.0563249 82.063 0.0386221C81.7511 0.133569 81.4785 0.327594 81.2867 0.59131C81.0949 0.855027 80.9942 1.17407 81 1.50012V4.50012H15V1.50012C14.9961 1.1825 14.8915 0.874315 14.7012 0.619969C14.5109 0.365623 14.2448 0.178245 13.9412 0.0848307C13.6376 -0.0085831 13.3122 -0.00320962 13.0119 0.100177C12.7115 0.203564 12.4518 0.399626 12.27 0.660115L9.27 5.16012C9.10971 5.41096 9.02454 5.70243 9.02454 6.00012C9.02454 6.2978 9.10971 6.58927 9.27 6.84012L12.27 11.3101C12.4502 11.5688 12.7073 11.7641 13.0049 11.8683C13.3024 11.9725 13.6252 11.9804 13.9274 11.8907C14.2297 11.801 14.4959 11.6184 14.6885 11.3688C14.881 11.1192 14.99 10.8152 15 10.5001V7.50012H81V10.5001C81.01 10.8152 81.119 11.1192 81.3115 11.3688C81.5041 11.6184 81.7704 11.801 82.0726 11.8907C82.3748 11.9804 82.6976 11.9725 82.9951 11.8683C83.2927 11.7641 83.5498 11.5688 83.73 11.3101L86.73 6.84012C86.8948 6.59214 86.9852 6.30219 86.9905 6.0045C86.9958 5.70681 86.9158 5.41381 86.76 5.16012Z" fill="black"/>
</g>
<defs>
<clipPath id="clip0">
<rect width="96" height="51" fill="white"/>
</clipPath>
</defs>
</svg>
