<svg width="96" height="96" viewBox="0 0 96 96" fill="none" xmlns="http://www.w3.org/2000/svg">
<g clip-path="url(#clip0)">
<path d="M94.5 93H1.5C0.671573 93 0 93.6716 0 94.5C0 95.3284 0.671573 96 1.5 96H94.5C95.3284 96 96 95.3284 96 94.5C96 93.6716 95.3284 93 94.5 93Z" fill="black"/>
<path d="M37.5 87H16.5C15.6716 87 15 87.6716 15 88.5C15 89.3284 15.6716 90 16.5 90H37.5C38.3284 90 39 89.3284 39 88.5C39 87.6716 38.3284 87 37.5 87Z" fill="black"/>
<path d="M7.5 90C8.32843 90 9 89.3284 9 88.5C9 87.6716 8.32843 87 7.5 87C6.67157 87 6 87.6716 6 88.5C6 89.3284 6.67157 90 7.5 90Z" fill="black"/>
<path d="M46.5 81H25.5C24.6716 81 24 81.6716 24 82.5C24 83.3284 24.6716 84 25.5 84H46.5C47.3284 84 48 83.3284 48 82.5C48 81.6716 47.3284 81 46.5 81Z" fill="black"/>
<path d="M16.5 84C17.3284 84 18 83.3284 18 82.5C18 81.6716 17.3284 81 16.5 81C15.6716 81 15 81.6716 15 82.5C15 83.3284 15.6716 84 16.5 84Z" fill="black"/>
<path d="M62.76 3C61.92 15.84 60 57.72 72 70.62C73.0949 71.8756 74.4392 72.8895 75.9474 73.5971C77.4556 74.3047 79.0945 74.6905 80.76 74.73C81.8306 74.91 82.9144 75.0004 84 75H86.61C88.0618 74.9361 89.4911 75.3761 90.6557 76.2454C91.8203 77.1147 92.6485 78.3599 93 79.77C93.1854 80.654 93.1688 81.5684 92.9514 82.4451C92.7341 83.3217 92.3217 84.138 91.7449 84.833C91.1681 85.5281 90.4418 86.0839 89.6202 86.4591C88.7987 86.8343 87.903 87.0192 87 87H72C61.62 87 56.46 79.29 50.49 70.35C45.27 62.49 38.04 60.66 31.05 58.86C29.04 58.35 26.97 57.81 25.05 57.15C15.69 54 15 51.54 15 48C15 45.3 16.89 42 19.53 37.59C22.0812 33.3828 24.3949 29.036 26.46 24.57C29.5635 17.7164 31.6651 10.452 32.7 3H62.7H62.76ZM66 0H30C29.2321 8.07627 27.1126 15.9661 23.73 23.34C18 36 12 42 12 48C12 54 15 57 24 60C33 63 42 63 48 72C54 81 60 90 72 90H87C88.3347 90.0003 89.6528 89.7037 90.8588 89.1317C92.0647 88.5597 93.1284 87.7266 93.9726 86.6928C94.8169 85.659 95.4206 84.4504 95.7402 83.1545C96.0597 81.8585 96.0869 80.5078 95.82 79.2C95.345 77.1248 94.1702 75.2763 92.493 73.9652C90.8158 72.654 88.7385 71.9601 86.61 72H84C82.9938 72.0022 81.9896 71.9118 81 71.73C60 71.73 66 0 66 0Z" fill="#F67C0D"/>
<path d="M33 45C32.2044 45 31.4413 44.6839 30.8787 44.1213C30.3161 43.5587 30 42.7956 30 42C30 41.2044 30.3161 40.4413 30.8787 39.8787C31.4413 39.3161 32.2044 39 33 39C33.3978 39 33.7794 38.842 34.0607 38.5607C34.342 38.2794 34.5 37.8978 34.5 37.5C34.5 37.1022 34.342 36.7206 34.0607 36.4393C33.7794 36.158 33.3978 36 33 36C31.4087 36 29.8826 36.6321 28.7574 37.7574C27.6321 38.8826 27 40.4087 27 42C27 43.5913 27.6321 45.1174 28.7574 46.2426C29.8826 47.3679 31.4087 48 33 48C33.3978 48 33.7794 47.842 34.0607 47.5607C34.342 47.2794 34.5 46.8978 34.5 46.5C34.5 46.1022 34.342 45.7206 34.0607 45.4393C33.7794 45.158 33.3978 45 33 45Z" fill="#F67C0D"/>
</g>
<defs>
<clipPath id="clip0">
<rect width="96" height="96" fill="white"/>
</clipPath>
</defs>
</svg>
