<svg width="84" height="96" viewBox="0 0 84 96" fill="none" xmlns="http://www.w3.org/2000/svg">
<g clip-path="url(#clip0)">
<path d="M69 51C70.5913 51 72.1174 51.6321 73.2426 52.7574C74.3679 53.8826 75 55.4087 75 57V87C75 88.5913 74.3679 90.1174 73.2426 91.2426C72.1174 92.3679 70.5913 93 69 93H15C13.4087 93 11.8826 92.3679 10.7574 91.2426C9.63214 90.1174 9 88.5913 9 87V57C9 55.4087 9.63214 53.8826 10.7574 52.7574C11.8826 51.6321 13.4087 51 15 51H69ZM69 48H15C12.6131 48 10.3239 48.9482 8.63604 50.636C6.94821 52.3239 6 54.6131 6 57V87C6 89.3869 6.94821 91.6761 8.63604 93.364C10.3239 95.0518 12.6131 96 15 96H69C71.3869 96 73.6761 95.0518 75.364 93.364C77.0518 91.6761 78 89.3869 78 87V57C78 54.6131 77.0518 52.3239 75.364 50.636C73.6761 48.9482 71.3869 48 69 48Z" fill="#F67C0D"/>
<path d="M9.42013 64.5004C7.96887 64.533 6.53732 64.1599 5.28652 63.4232C4.03573 62.6865 3.01533 61.6154 2.34013 60.3304C1.72097 59.1628 1.43801 57.8463 1.52275 56.5274C1.6075 55.2086 2.05663 53.9391 2.82013 52.8604C3.56859 51.8105 4.55944 50.9568 5.70848 50.3718C6.85753 49.7868 8.13081 49.4879 9.42013 49.5004H74.5801C75.8694 49.4879 77.1427 49.7868 78.2918 50.3718C79.4408 50.9568 80.4317 51.8105 81.1801 52.8604C81.9436 53.9391 82.3928 55.2086 82.4775 56.5274C82.5622 57.8463 82.2793 59.1628 81.6601 60.3304C80.9849 61.6154 79.9645 62.6865 78.7137 63.4232C77.4629 64.1599 76.0314 64.533 74.5801 64.5004H9.42013Z" fill="white"/>
<path d="M74.58 51.0003C75.6283 50.9916 76.6634 51.2351 77.598 51.7102C78.5326 52.1853 79.3392 52.8782 79.95 53.7303C80.5845 54.5873 80.9587 55.6089 81.0279 56.6729C81.097 57.737 80.8582 58.7984 80.34 59.7303C79.7703 60.7497 78.9322 61.5934 77.9167 62.1699C76.9012 62.7464 75.7472 63.0336 74.58 63.0003H9.41997C8.24359 63.0249 7.08328 62.7241 6.06692 62.1313C5.05057 61.5384 4.21765 60.6764 3.65997 59.6403C3.14173 58.7084 2.90291 57.647 2.97207 56.5829C3.04124 55.5189 3.41546 54.4973 4.04997 53.6403C4.67043 52.8048 5.48134 52.1293 6.41533 51.6702C7.34931 51.211 8.37939 50.9814 9.41997 51.0003H74.58ZM74.58 48.0003H9.41997C7.88706 47.9874 6.37388 48.3464 5.01015 49.0466C3.64642 49.7467 2.47282 50.7671 1.58997 52.0203C0.671902 53.3998 0.152501 55.006 0.0890081 56.6618C0.0255154 58.3177 0.420396 59.9589 1.23013 61.4046C2.03987 62.8503 3.23302 64.0445 4.6781 64.8554C6.12318 65.6663 7.76408 66.0625 9.41997 66.0003H74.58C76.2359 66.0625 77.8768 65.6663 79.3218 64.8554C80.7669 64.0445 81.9601 62.8503 82.7698 61.4046C83.5795 59.9589 83.9744 58.3177 83.9109 56.6618C83.8474 55.006 83.328 53.3998 82.41 52.0203C81.5271 50.7671 80.3535 49.7467 78.9898 49.0466C77.6261 48.3464 76.1129 47.9874 74.58 48.0003Z" fill="#F67C0D"/>
<path d="M19.5 87C18.3065 87 17.1619 86.5259 16.318 85.682C15.4741 84.8381 15 83.6935 15 82.5V72H12V82.5C12 84.4891 12.7902 86.3968 14.1967 87.8033C15.6032 89.2098 17.5109 90 19.5 90H42V87H19.5Z" fill="black"/>
<path d="M42 90C42.8284 90 43.5 89.3284 43.5 88.5C43.5 87.6716 42.8284 87 42 87C41.1716 87 40.5 87.6716 40.5 88.5C40.5 89.3284 41.1716 90 42 90Z" fill="black"/>
<path d="M13.5 73.5C14.3284 73.5 15 72.8284 15 72C15 71.1716 14.3284 70.5 13.5 70.5C12.6716 70.5 12 71.1716 12 72C12 72.8284 12.6716 73.5 13.5 73.5Z" fill="black"/>
<path d="M51 90C51.8284 90 52.5 89.3284 52.5 88.5C52.5 87.6716 51.8284 87 51 87C50.1716 87 49.5 87.6716 49.5 88.5C49.5 89.3284 50.1716 90 51 90Z" fill="black"/>
<path d="M57 0H27C24.6131 0 22.3239 0.948211 20.636 2.63604C18.9482 4.32387 18 6.61305 18 9V27C18 29.3869 18.9482 31.6761 20.636 33.364C22.3239 35.0518 24.6131 36 27 36H36V42H30V45H54V42H48V36H57C59.3869 36 61.6761 35.0518 63.364 33.364C65.0518 31.6761 66 29.3869 66 27V9C66 6.61305 65.0518 4.32387 63.364 2.63604C61.6761 0.948211 59.3869 0 57 0V0ZM45 42H39V36H45V42ZM63 27C63 28.5913 62.3679 30.1174 61.2426 31.2426C60.1174 32.3679 58.5913 33 57 33H27C25.4087 33 23.8826 32.3679 22.7574 31.2426C21.6321 30.1174 21 28.5913 21 27V24H63V27ZM21 21V9C21 7.4087 21.6321 5.88258 22.7574 4.75736C23.8826 3.63214 25.4087 3 27 3H57C58.5913 3 60.1174 3.63214 61.2426 4.75736C62.3679 5.88258 63 7.4087 63 9V21H21Z" fill="#F67C0D"/>
<path d="M42 27C41.7033 27 41.4133 27.088 41.1666 27.2528C40.92 27.4176 40.7277 27.6519 40.6142 27.926C40.5006 28.2001 40.4709 28.5017 40.5288 28.7926C40.5867 29.0836 40.7296 29.3509 40.9393 29.5607C41.1491 29.7704 41.4164 29.9133 41.7074 29.9712C41.9983 30.0291 42.2999 29.9994 42.574 29.8858C42.8481 29.7723 43.0824 29.58 43.2472 29.3334C43.412 29.0867 43.5 28.7967 43.5 28.5C43.5 28.1022 43.342 27.7206 43.0607 27.4393C42.7794 27.158 42.3978 27 42 27Z" fill="#F67C0D"/>
<path d="M40.5 9H37.5L31.5 15H34.5L40.5 9Z" fill="#F67C0D"/>
<path d="M49.5 6H46.5L34.5 18H37.5L49.5 6Z" fill="#F67C0D"/>
<path d="M52.5 9H49.5L43.5 15H46.5L52.5 9Z" fill="#F67C0D"/>
</g>
<defs>
<clipPath id="clip0">
<rect width="84" height="96" fill="white"/>
</clipPath>
</defs>
</svg>
