<svg width="84" height="96" viewBox="0 0 84 96" fill="none" xmlns="http://www.w3.org/2000/svg">
<g clip-path="url(#clip0)">
<path d="M69 51C70.5913 51 72.1174 51.6321 73.2426 52.7574C74.3679 53.8826 75 55.4087 75 57V87C75 88.5913 74.3679 90.1174 73.2426 91.2426C72.1174 92.3679 70.5913 93 69 93H15C13.4087 93 11.8826 92.3679 10.7574 91.2426C9.63214 90.1174 9 88.5913 9 87V57C9 55.4087 9.63214 53.8826 10.7574 52.7574C11.8826 51.6321 13.4087 51 15 51H69ZM69 48H15C12.6131 48 10.3239 48.9482 8.63604 50.636C6.94821 52.3239 6 54.6131 6 57V87C6 89.3869 6.94821 91.6761 8.63604 93.364C10.3239 95.0518 12.6131 96 15 96H69C71.3869 96 73.6761 95.0518 75.364 93.364C77.0518 91.6761 78 89.3869 78 87V57C78 54.6131 77.0518 52.3239 75.364 50.636C73.6761 48.9482 71.3869 48 69 48Z" fill="#F67C0D"/>
<path d="M9.42004 64.5004C7.96878 64.533 6.53722 64.1599 5.28643 63.4232C4.03563 62.6865 3.01524 61.6154 2.34004 60.3304C1.72088 59.1628 1.43792 57.8463 1.52266 56.5274C1.60741 55.2086 2.05654 53.9391 2.82004 52.8604C3.5685 51.8105 4.55935 50.9568 5.70839 50.3718C6.85744 49.7868 8.13072 49.4879 9.42004 49.5004H74.58C75.8694 49.4879 77.1426 49.7868 78.2917 50.3718C79.4407 50.9568 80.4316 51.8105 81.18 52.8604C81.9435 53.9391 82.3927 55.2086 82.4774 56.5274C82.5622 57.8463 82.2792 59.1628 81.66 60.3304C80.9848 61.6154 79.9644 62.6865 78.7136 63.4232C77.4628 64.1599 76.0313 64.533 74.58 64.5004H9.42004Z" fill="white"/>
<path d="M74.58 51.0003C75.6283 50.9916 76.6634 51.2351 77.598 51.7102C78.5326 52.1853 79.3392 52.8782 79.95 53.7303C80.5845 54.5873 80.9587 55.6089 81.0279 56.6729C81.097 57.737 80.8582 58.7984 80.34 59.7303C79.7703 60.7497 78.9322 61.5934 77.9167 62.1699C76.9012 62.7464 75.7472 63.0336 74.58 63.0003H9.41997C8.24359 63.0249 7.08328 62.7241 6.06692 62.1313C5.05057 61.5384 4.21765 60.6764 3.65997 59.6403C3.14173 58.7084 2.90291 57.647 2.97207 56.5829C3.04124 55.5189 3.41546 54.4973 4.04997 53.6403C4.67043 52.8048 5.48134 52.1293 6.41533 51.6702C7.34931 51.211 8.37939 50.9814 9.41997 51.0003H74.58ZM74.58 48.0003H9.41997C7.88706 47.9874 6.37388 48.3464 5.01015 49.0466C3.64642 49.7467 2.47282 50.7671 1.58997 52.0203C0.671902 53.3998 0.152501 55.006 0.0890081 56.6618C0.0255154 58.3177 0.420396 59.9589 1.23013 61.4046C2.03987 62.8503 3.23302 64.0445 4.6781 64.8554C6.12318 65.6663 7.76408 66.0625 9.41997 66.0003H74.58C76.2359 66.0625 77.8768 65.6663 79.3218 64.8554C80.7669 64.0445 81.9601 62.8503 82.7698 61.4046C83.5795 59.9589 83.9744 58.3177 83.9109 56.6618C83.8474 55.006 83.328 53.3998 82.41 52.0203C81.5271 50.7671 80.3535 49.7467 78.9898 49.0466C77.6261 48.3464 76.1129 47.9874 74.58 48.0003Z" fill="#F67C0D"/>
<path d="M42 87H19.5C18.3065 87 17.1619 86.5259 16.318 85.682C15.4741 84.8381 15 83.6935 15 82.5V72C15 71.6022 14.842 71.2206 14.5607 70.9393C14.2794 70.658 13.8978 70.5 13.5 70.5C13.1022 70.5 12.7206 70.658 12.4393 70.9393C12.158 71.2206 12 71.6022 12 72V82.5C12 84.4891 12.7902 86.3968 14.1967 87.8033C15.6032 89.2098 17.5109 90 19.5 90H42C42.3978 90 42.7794 89.842 43.0607 89.5607C43.342 89.2794 43.5 88.8978 43.5 88.5C43.5 88.1022 43.342 87.7206 43.0607 87.4393C42.7794 87.158 42.3978 87 42 87Z" fill="black"/>
<path d="M51 90C51.8284 90 52.5 89.3284 52.5 88.5C52.5 87.6716 51.8284 87 51 87C50.1716 87 49.5 87.6716 49.5 88.5C49.5 89.3284 50.1716 90 51 90Z" fill="black"/>
<path d="M40.1399 38.76C38.8946 38.7648 37.668 38.457 36.5725 37.8647C35.4771 37.2724 34.5478 36.4146 33.8699 35.37C32.9245 33.8612 32.5305 32.0717 32.7547 30.3054C32.9789 28.539 33.8075 26.9047 35.0999 25.68L43.5899 17.19C44.7167 16.0699 45.3532 14.5487 45.3599 12.96V3C45.3599 2.60218 45.5179 2.22064 45.7993 1.93934C46.0806 1.65804 46.4621 1.5 46.8599 1.5H58.8599C59.2577 1.5 59.6393 1.65804 59.9206 1.93934C60.2019 2.22064 60.3599 2.60218 60.3599 3V18.3C60.3956 19.3188 60.2223 20.3341 59.8509 21.2834C59.4794 22.2327 58.9175 23.096 58.1999 23.82L45.4799 36.57C44.7831 37.2674 43.9552 37.8199 43.0438 38.1958C42.1325 38.5716 41.1557 38.7634 40.1699 38.76H40.1399Z" fill="white"/>
<path d="M58.8599 3V18.33C58.8732 19.1584 58.7148 19.9806 58.3947 20.7447C58.0746 21.5089 57.5997 22.1984 56.9999 22.77L44.2499 35.49C43.1299 36.6168 41.6086 37.2533 40.0199 37.26C39.0188 37.2616 38.0331 37.0126 37.1528 36.5358C36.2725 36.0589 35.5255 35.3694 34.9799 34.53C34.2471 33.3005 33.9548 31.8582 34.1511 30.4405C34.3474 29.0227 35.0206 27.7141 36.0599 26.73L44.5499 18.24C45.245 17.5478 45.7964 16.7249 46.1722 15.8187C46.5481 14.9126 46.741 13.941 46.7399 12.96V3H58.7399H58.8599ZM58.7399 0H46.7399C45.9443 0 45.1812 0.316071 44.6186 0.87868C44.056 1.44129 43.7399 2.20435 43.7399 3V12.96C43.7324 14.1518 43.2586 15.2932 42.4199 16.14L34.0499 24.6C32.5171 26.0779 31.5378 28.0371 31.2757 30.1502C31.0136 32.2633 31.4846 34.4024 32.6099 36.21C33.3448 37.327 34.3193 38.2662 35.4627 38.9594C36.606 39.6526 37.8894 40.0823 39.2197 40.2174C40.5499 40.3524 41.8935 40.1893 43.1528 39.7401C44.4122 39.2908 45.5555 38.5665 46.4999 37.62L59.2199 24.9C60.0871 24.0272 60.7661 22.9859 61.215 21.8404C61.6639 20.6949 61.8732 19.4696 61.8299 18.24C61.8299 18.24 61.8299 18.24 61.8299 18V3C61.8299 2.20435 61.5138 1.44129 60.9512 0.87868C60.3886 0.316071 59.6256 0 58.8299 0L58.7399 0Z" fill="#F67C0D"/>
<path d="M40.14 38.7599C38.6546 38.7626 37.202 38.3242 35.9661 37.5002C34.7303 36.6763 33.7669 35.504 33.1982 34.1319C32.6294 32.7598 32.4809 31.2497 32.7714 29.7931C33.0619 28.3364 33.7783 26.9989 34.8299 25.9499L36.3599 24.4199C38.9963 24.9088 41.4225 26.1854 43.3185 28.0814C45.2144 29.9774 46.4911 32.4036 46.9799 35.0399L45.4499 36.5699C44.7531 37.2673 43.9252 37.8198 43.0139 38.1957C42.1025 38.5716 41.1258 38.7633 40.14 38.7599Z" fill="#F5F5F5"/>
<path d="M36.8399 26.0701C38.8847 26.5688 40.7593 27.6045 42.2699 29.0701C43.7286 30.5858 44.7632 32.4584 45.2699 34.5001L44.3099 35.4301C43.1899 36.5568 41.6687 37.1934 40.0799 37.2001C38.4886 37.2001 36.9625 36.5679 35.8373 35.4427C34.7121 34.3175 34.0799 32.7914 34.0799 31.2001C34.1067 30.4079 34.2901 29.6288 34.6197 28.908C34.9492 28.1871 35.4183 27.5386 35.9999 27.0001L36.9599 26.0701H36.8399ZM35.9999 22.8301L33.9299 24.9001C33.0457 25.724 32.3365 26.7176 31.8446 27.8216C31.3527 28.9256 31.0882 30.1174 31.0668 31.3258C31.0455 32.5342 31.2678 33.7346 31.7205 34.8552C32.1731 35.9759 32.8468 36.9939 33.7015 37.8485C34.5561 38.7032 35.5741 39.3769 36.6948 39.8295C37.8154 40.2822 39.0158 40.5045 40.2242 40.4832C41.4326 40.4619 42.6244 40.1974 43.7284 39.7054C44.8324 39.2135 45.826 38.5043 46.6499 37.6201L48.7199 35.5501C48.3076 32.3206 46.8349 29.3194 44.5328 27.0172C42.2306 24.7151 39.2294 23.2424 35.9999 22.8301Z" fill="#F67C0D"/>
<path d="M61.86 6H43.86V9H61.86V6Z" fill="#F67C0D"/>
<path d="M31.1399 38.76C29.8946 38.7648 28.668 38.457 27.5725 37.8647C26.4771 37.2724 25.5478 36.4146 24.8699 35.37C23.9245 33.8612 23.5305 32.0717 23.7547 30.3054C23.9789 28.539 24.8075 26.9047 26.0999 25.68L34.5899 17.19C35.7167 16.0699 36.3532 14.5487 36.3599 12.96V3C36.3599 2.60218 36.5179 2.22064 36.7993 1.93934C37.0806 1.65804 37.4621 1.5 37.8599 1.5H49.8599C50.2577 1.5 50.6393 1.65804 50.9206 1.93934C51.2019 2.22064 51.3599 2.60218 51.3599 3V18.3C51.4028 19.3196 51.2329 20.337 50.861 21.2874C50.4892 22.2378 49.9234 23.1003 49.1999 23.82L36.4799 36.57C35.7831 37.2674 34.9552 37.8199 34.0438 38.1958C33.1325 38.5716 32.1557 38.7634 31.1699 38.76H31.1399Z" fill="white"/>
<path d="M49.8599 3V18.33C49.8732 19.1584 49.7148 19.9806 49.3947 20.7447C49.0746 21.5089 48.5997 22.1984 47.9999 22.77L35.2499 35.49C34.1299 36.6168 32.6086 37.2533 31.0199 37.26C30.0188 37.2616 29.0331 37.0126 28.1528 36.5358C27.2725 36.0589 26.5255 35.3694 25.9799 34.53C25.2471 33.3005 24.9548 31.8582 25.1511 30.4405C25.3474 29.0227 26.0206 27.7141 27.0599 26.73L35.5499 18.24C36.245 17.5478 36.7964 16.7249 37.1722 15.8187C37.5481 14.9126 37.741 13.941 37.7399 12.96V3H49.7399H49.8599ZM49.7399 0H37.7399C36.9443 0 36.1812 0.316071 35.6186 0.87868C35.056 1.44129 34.7399 2.20435 34.7399 3V12.96C34.7324 14.1518 34.2586 15.2932 33.4199 16.14L25.0499 24.6C23.5171 26.0779 22.5378 28.0371 22.2757 30.1502C22.0136 32.2633 22.4846 34.4024 23.6099 36.21C24.3448 37.327 25.3193 38.2662 26.4627 38.9594C27.606 39.6526 28.8894 40.0823 30.2197 40.2174C31.5499 40.3524 32.8935 40.1893 34.1528 39.7401C35.4122 39.2908 36.5555 38.5665 37.4999 37.62L50.2199 24.9C51.0871 24.0272 51.7661 22.9859 52.215 21.8404C52.6639 20.6949 52.8732 19.4696 52.8299 18.24C52.8299 18.24 52.8299 18.24 52.8299 18V3C52.8299 2.20435 52.5138 1.44129 51.9512 0.87868C51.3886 0.316071 50.6256 0 49.8299 0L49.7399 0Z" fill="#F67C0D"/>
<path d="M31.1399 38.7599C29.6546 38.7626 28.202 38.3242 26.9661 37.5002C25.7303 36.6763 24.7669 35.504 24.1982 34.1319C23.6294 32.7598 23.4809 31.2497 23.7714 29.7931C24.0619 28.3364 24.7783 26.9989 25.8299 25.9499L27.3599 24.4199C29.9963 24.9088 32.4225 26.1854 34.3185 28.0814C36.2144 29.9774 37.4911 32.4036 37.9799 35.0399L36.4499 36.5699C35.7531 37.2673 34.9252 37.8198 34.0139 38.1957C33.1025 38.5716 32.1258 38.7633 31.1399 38.7599Z" fill="#F5F5F5"/>
<path d="M27.8399 26.0701C29.8847 26.5688 31.7593 27.6045 33.2699 29.0701C34.7286 30.5858 35.7632 32.4584 36.2699 34.5001L35.3099 35.4301C34.1899 36.5568 32.6687 37.1934 31.0799 37.2001C29.4886 37.2001 27.9625 36.5679 26.8373 35.4427C25.7121 34.3175 25.0799 32.7914 25.0799 31.2001C25.1067 30.4079 25.2901 29.6288 25.6197 28.908C25.9492 28.1871 26.4183 27.5386 26.9999 27.0001L27.9599 26.0701H27.8399ZM26.9999 22.8301L24.9299 24.9001C24.0457 25.724 23.3365 26.7176 22.8446 27.8216C22.3527 28.9256 22.0882 30.1174 22.0668 31.3258C22.0455 32.5342 22.2678 33.7346 22.7205 34.8552C23.1731 35.9759 23.8468 36.9939 24.7015 37.8485C25.5561 38.7032 26.5741 39.3769 27.6948 39.8295C28.8154 40.2822 30.0158 40.5045 31.2242 40.4832C32.4326 40.4619 33.6244 40.1974 34.7284 39.7054C35.8324 39.2135 36.826 38.5043 37.6499 37.6201L39.7199 35.5501C39.3076 32.3206 37.8349 29.3194 35.5328 27.0172C33.2306 24.7151 30.2294 23.2424 26.9999 22.8301Z" fill="#F67C0D"/>
<path d="M52.86 6H34.86V9H52.86V6Z" fill="#F67C0D"/>
</g>
<defs>
<clipPath id="clip0">
<rect width="84" height="96" fill="white"/>
</clipPath>
</defs>
</svg>
