<svg width="64" height="64" viewBox="0 0 64 64" fill="none" xmlns="http://www.w3.org/2000/svg">
<g clip-path="url(#clip0)">
<path d="M46 52C47.0609 52 48.0783 52.4214 48.8284 53.1716C49.5786 53.9217 50 54.9391 50 56C50 57.0609 49.5786 58.0783 48.8284 58.8284C48.0783 59.5786 47.0609 60 46 60H10C8.93913 60 7.92172 59.5786 7.17157 58.8284C6.42143 58.0783 6 57.0609 6 56C6 54.9391 6.42143 53.9217 7.17157 53.1716C7.92172 52.4214 8.93913 52 10 52H46ZM46 50H10C8.4087 50 6.88258 50.6321 5.75736 51.7574C4.63214 52.8826 4 54.4087 4 56C4 57.5913 4.63214 59.1174 5.75736 60.2426C6.88258 61.3679 8.4087 62 10 62H46C47.5913 62 49.1174 61.3679 50.2426 60.2426C51.3679 59.1174 52 57.5913 52 56C52 54.4087 51.3679 52.8826 50.2426 51.7574C49.1174 50.6321 47.5913 50 46 50Z" fill="#F67C0D"/>
<path d="M46 42C47.0609 42 48.0783 42.4214 48.8284 43.1716C49.5786 43.9217 50 44.9391 50 46C50 47.0609 49.5786 48.0783 48.8284 48.8284C48.0783 49.5786 47.0609 50 46 50H10C8.93913 50 7.92172 49.5786 7.17157 48.8284C6.42143 48.0783 6 47.0609 6 46C6 44.9391 6.42143 43.9217 7.17157 43.1716C7.92172 42.4214 8.93913 42 10 42H46ZM46 40H10C8.4087 40 6.88258 40.6321 5.75736 41.7574C4.63214 42.8826 4 44.4087 4 46C4 47.5913 4.63214 49.1174 5.75736 50.2426C6.88258 51.3679 8.4087 52 10 52H46C47.5913 52 49.1174 51.3679 50.2426 50.2426C51.3679 49.1174 52 47.5913 52 46C52 44.4087 51.3679 42.8826 50.2426 41.7574C49.1174 40.6321 47.5913 40 46 40Z" fill="#F67C0D"/>
<path d="M46 32C47.0609 32 48.0783 32.4214 48.8284 33.1716C49.5786 33.9217 50 34.9391 50 36C50 37.0609 49.5786 38.0783 48.8284 38.8284C48.0783 39.5786 47.0609 40 46 40H10C8.93913 40 7.92172 39.5786 7.17157 38.8284C6.42143 38.0783 6 37.0609 6 36C6 34.9391 6.42143 33.9217 7.17157 33.1716C7.92172 32.4214 8.93913 32 10 32H46ZM46 30H10C8.4087 30 6.88258 30.6321 5.75736 31.7574C4.63214 32.8826 4 34.4087 4 36C4 37.5913 4.63214 39.1174 5.75736 40.2426C6.88258 41.3679 8.4087 42 10 42H46C47.5913 42 49.1174 41.3679 50.2426 40.2426C51.3679 39.1174 52 37.5913 52 36C52 34.4087 51.3679 32.8826 50.2426 31.7574C49.1174 30.6321 47.5913 30 46 30Z" fill="#F67C0D"/>
<path d="M46 22C47.0609 22 48.0783 22.4214 48.8284 23.1716C49.5786 23.9217 50 24.9391 50 26C50 27.0609 49.5786 28.0783 48.8284 28.8284C48.0783 29.5786 47.0609 30 46 30H10C8.93913 30 7.92172 29.5786 7.17157 28.8284C6.42143 28.0783 6 27.0609 6 26C6 24.9391 6.42143 23.9217 7.17157 23.1716C7.92172 22.4214 8.93913 22 10 22H46ZM46 20H10C8.4087 20 6.88258 20.6321 5.75736 21.7574C4.63214 22.8826 4 24.4087 4 26C4 27.5913 4.63214 29.1174 5.75736 30.2426C6.88258 31.3679 8.4087 32 10 32H46C47.5913 32 49.1174 31.3679 50.2426 30.2426C51.3679 29.1174 52 27.5913 52 26C52 24.4087 51.3679 22.8826 50.2426 21.7574C49.1174 20.6321 47.5913 20 46 20Z" fill="#F67C0D"/>
<path d="M58 12C59.0609 12 60.0783 12.4214 60.8284 13.1716C61.5786 13.9217 62 14.9391 62 16C62 17.0609 61.5786 18.0783 60.8284 18.8284C60.0783 19.5786 59.0609 20 58 20H22C20.9391 20 19.9217 19.5786 19.1716 18.8284C18.4214 18.0783 18 17.0609 18 16C18 14.9391 18.4214 13.9217 19.1716 13.1716C19.9217 12.4214 20.9391 12 22 12H58ZM58 10H22C20.4087 10 18.8826 10.6321 17.7574 11.7574C16.6321 12.8826 16 14.4087 16 16C16 17.5913 16.6321 19.1174 17.7574 20.2426C18.8826 21.3679 20.4087 22 22 22H58C59.5913 22 61.1174 21.3679 62.2426 20.2426C63.3679 19.1174 64 17.5913 64 16C64 14.4087 63.3679 12.8826 62.2426 11.7574C61.1174 10.6321 59.5913 10 58 10Z" fill="#F67C0D"/>
<path d="M42 2C43.0609 2 44.0783 2.42143 44.8284 3.17157C45.5786 3.92172 46 4.93913 46 6C46 7.06087 45.5786 8.07828 44.8284 8.82843C44.0783 9.57857 43.0609 10 42 10H6C4.93913 10 3.92172 9.57857 3.17157 8.82843C2.42143 8.07828 2 7.06087 2 6C2 4.93913 2.42143 3.92172 3.17157 3.17157C3.92172 2.42143 4.93913 2 6 2H42ZM42 0H6C4.4087 0 2.88258 0.632141 1.75736 1.75736C0.632141 2.88258 0 4.4087 0 6C0 7.5913 0.632141 9.11742 1.75736 10.2426C2.88258 11.3679 4.4087 12 6 12H42C43.5913 12 45.1174 11.3679 46.2426 10.2426C47.3679 9.11742 48 7.5913 48 6C48 4.4087 47.3679 2.88258 46.2426 1.75736C45.1174 0.632141 43.5913 0 42 0V0Z" fill="#F67C0D"/>
<path d="M40 63C52.7025 63 63 52.7025 63 40C63 27.2975 52.7025 17 40 17C27.2975 17 17 27.2975 17 40C17 52.7025 27.2975 63 40 63Z" fill="white"/>
<path d="M40 18C44.3512 18 48.6047 19.2903 52.2226 21.7077C55.8405 24.1251 58.6602 27.561 60.3254 31.581C61.9905 35.6009 62.4262 40.0244 61.5773 44.292C60.7284 48.5596 58.6331 52.4796 55.5564 55.5564C52.4796 58.6331 48.5596 60.7284 44.292 61.5773C40.0244 62.4261 35.601 61.9905 31.581 60.3253C27.561 58.6602 24.1251 55.8404 21.7077 52.2225C19.2903 48.6047 18 44.3512 18 40C18 34.1652 20.3179 28.5695 24.4437 24.4437C28.5695 20.3179 34.1653 18 40 18ZM40 16C35.2533 16 30.6131 17.4076 26.6663 20.0447C22.7195 22.6819 19.6434 26.4302 17.8269 30.8156C16.0104 35.201 15.5351 40.0266 16.4612 44.6822C17.3872 49.3377 19.673 53.6141 23.0295 56.9706C26.3859 60.327 30.6623 62.6128 35.3179 63.5388C39.9734 64.4649 44.799 63.9896 49.1844 62.1731C53.5699 60.3566 57.3181 57.2805 59.9553 53.3337C62.5924 49.3869 64 44.7468 64 40C64 33.6348 61.4715 27.5303 56.9706 23.0294C52.4697 18.5286 46.3652 16 40 16Z" fill="#F67C0D"/>
<path d="M21.74 33.7599C21.5228 33.7565 21.3107 33.8254 21.1369 33.9558C20.9632 34.0861 20.8376 34.2705 20.78 34.4799C19.323 39.5746 19.9473 45.0394 22.5159 49.6742C25.0846 54.309 29.3875 57.735 34.48 59.1999C34.5725 59.2182 34.6676 59.2182 34.76 59.1999C34.9772 59.2032 35.1894 59.1343 35.3631 59.004C35.5369 58.8737 35.6624 58.6893 35.72 58.4799C35.7568 58.3538 35.7684 58.2217 35.7541 58.0912C35.7398 57.9606 35.7 57.8342 35.6368 57.719C35.5737 57.6039 35.4885 57.5023 35.3861 57.4201C35.2837 57.3379 35.1661 57.2767 35.04 57.2399C30.4522 55.9237 26.575 52.8393 24.2609 48.665C21.9468 44.4906 21.3854 39.5681 22.7 34.9799C22.751 34.7314 22.7075 34.4728 22.5781 34.2546C22.4486 34.0364 22.2426 33.8743 22 33.7999H21.72L21.74 33.7599Z" fill="#F67C0D"/>
<path d="M40 58C39.8022 58 39.6089 58.0586 39.4444 58.1685C39.28 58.2784 39.1518 58.4346 39.0761 58.6173C39.0004 58.8 38.9806 59.0011 39.0192 59.1951C39.0578 59.3891 39.153 59.5673 39.2929 59.7071C39.4327 59.847 39.6109 59.9422 39.8049 59.9808C39.9989 60.0194 40.2 59.9996 40.3827 59.9239C40.5654 59.8482 40.7216 59.72 40.8315 59.5556C40.9414 59.3911 41 59.1978 41 59C41 58.7348 40.8946 58.4804 40.7071 58.2929C40.5196 58.1054 40.2652 58 40 58Z" fill="#F67C0D"/>
<path d="M39.56 45.7199C40.4594 45.7996 41.3612 45.5969 42.14 45.1399C42.3755 44.9671 42.5671 44.7413 42.6992 44.4807C42.8312 44.2201 42.9 43.932 42.9 43.6399C42.909 43.2274 42.7902 42.8222 42.56 42.4799C42.3356 42.1425 42.0425 41.8563 41.7 41.6399C41.3106 41.3831 40.8949 41.1685 40.46 40.9999L39 40.4399C38.52 40.2599 38.04 40.0799 37.58 39.8599C37.1225 39.6575 36.6978 39.3878 36.32 39.0599C35.9409 38.7577 35.6335 38.3751 35.42 37.9399C35.1656 37.4388 35.0418 36.8816 35.06 36.3199C35.0266 35.29 35.392 34.287 36.08 33.5199C36.8905 32.7388 37.94 32.2528 39.06 32.1399V29.3799H41.06V31.9999C41.7342 32.0273 42.4041 32.1211 43.06 32.2799C43.66 32.4199 44.14 32.5599 44.5 32.6799L44.04 34.5599C43.5698 34.3775 43.0889 34.2238 42.6 34.0999C41.8732 33.9797 41.1347 33.9462 40.4 33.9999C39.6195 33.9485 38.8427 34.1445 38.18 34.5599C37.927 34.7311 37.7224 34.9646 37.5858 35.2378C37.4492 35.511 37.3852 35.8148 37.4 36.1199C37.3919 36.4405 37.4677 36.7576 37.62 37.0399C37.7909 37.315 38.0153 37.5531 38.28 37.7399C38.6021 37.9517 38.9437 38.1325 39.3 38.2799L40.62 38.7799C41.24 39.0199 41.82 39.2599 42.38 39.5199C42.9129 39.7576 43.4109 40.0672 43.86 40.4399C44.2754 40.8006 44.6211 41.2345 44.88 41.7199C45.1499 42.2805 45.2802 42.898 45.26 43.5199C45.282 44.0246 45.2031 44.5287 45.028 45.0026C44.8528 45.4765 44.5849 45.9107 44.24 46.2799C43.3476 47.0571 42.2215 47.5145 41.04 47.5799V50.6799H39.04V47.5999C38.1141 47.5919 37.1931 47.4641 36.3 47.2199C35.7578 47.0635 35.2293 46.8628 34.72 46.6199L35.32 44.8199C35.8778 45.0673 36.4526 45.2745 37.04 45.4399C37.8643 45.6419 38.7114 45.7361 39.56 45.7199Z" fill="#F67C0D"/>
</g>
<defs>
<clipPath id="clip0">
<rect width="64" height="64" fill="white"/>
</clipPath>
</defs>
</svg>
